<?xml version="1.0" encoding="utf-8"?>
<!-- Generator: Adobe Illustrator 19.2.1, SVG Export Plug-In . SVG Version: 6.00 Build 0)  -->
<svg version="1.1" id="Layer_1" xmlns="http://www.w3.org/2000/svg" xmlns:xlink="http://www.w3.org/1999/xlink" x="0px" y="0px"
	 viewBox="0 0 40 40" style="enable-background:new 0 0 40 40;" xml:space="preserve">
<style type="text/css">
	.st0{fill:#FFFFFF;stroke:#0A61FE;stroke-width:2;stroke-miterlimit:10;}
	.st1{fill:#FFFFFF;stroke:#0A61FE;stroke-width:8;stroke-miterlimit:10;}
	.st2{opacity:0.2;}
	.st3{fill:#010002;}
	.st4{fill:#FFFFFF;}
	.st5{fill:#CBCBCB;stroke:#000000;stroke-miterlimit:10;}
	.st6{fill:#231F20;}
	.st7{fill:#010101;}
	.st8{display:none;}
	.st9{display:inline;fill:#BAFF1F;}
	.st10{fill:#0A61FE;}
	.st11{fill:none;stroke:#0A61FE;stroke-width:8;stroke-miterlimit:10;}
	.st12{display:inline;}
	.st13{fill:none;stroke:#0A61FE;stroke-miterlimit:10;}
	.st14{fill:#0A61FE;stroke:#FFFFFF;stroke-width:8;stroke-linecap:round;stroke-miterlimit:10;}
	.st15{clip-path:url(#SVGID_2_);}
	.st16{fill:none;stroke:#0A61FE;stroke-width:40;stroke-miterlimit:10;}
	.st17{fill:#0A61FE;stroke:#FFFFFF;stroke-width:8;stroke-miterlimit:10;}
	.st18{fill:none;stroke:#85FF37;stroke-width:8;stroke-miterlimit:10;}
	.st19{fill:none;stroke:#0A61FE;stroke-width:5;stroke-miterlimit:10;}
	.st20{fill:none;stroke:#0A61FE;stroke-width:5;stroke-miterlimit:10;stroke-dasharray:11.8358,11.8358;}
	.st21{fill:#FFFFFF;stroke:#0A61FE;stroke-miterlimit:10;}
	.st22{fill:#FFFFFF;stroke:#0A61FE;stroke-width:0.5;stroke-miterlimit:10;}
	.st23{fill:none;stroke:#0A61FE;stroke-width:0.9086;stroke-miterlimit:10;}
	.st24{fill:#0A61FE;stroke:#0A61FE;stroke-width:0.5;stroke-miterlimit:10;}
	.st25{fill:#0A61FE;stroke:#0A61FE;stroke-miterlimit:10;}
	.st26{fill:none;stroke:#0A61FE;stroke-width:2;stroke-miterlimit:10;}
	.st27{fill:none;stroke:#0A61FE;stroke-width:3;stroke-miterlimit:10;}
	.st28{fill:none;stroke:#0A61FE;stroke-width:0.5712;stroke-miterlimit:10;}
	.st29{fill:#FFFFFF;stroke:#0A61FE;stroke-width:0.5712;stroke-miterlimit:10;}
	.st30{fill:#FFFFFF;stroke:#0A61FE;stroke-width:0.7519;stroke-miterlimit:10;}
	.st31{fill:none;stroke:#0A61FE;stroke-width:0.7519;stroke-miterlimit:10;}
	.st32{fill:none;stroke:#0A61FE;stroke-width:0.4699;stroke-miterlimit:10;}
	.st33{fill:none;stroke:#0A61FE;stroke-width:0.4699;stroke-miterlimit:10;stroke-dasharray:1.1115,1.1115;}
	.st34{fill:#FFFFFF;stroke:#0A61FE;stroke-width:0.4573;stroke-miterlimit:10;}
	.st35{fill:none;stroke:#0A61FE;stroke-width:0.4573;stroke-miterlimit:10;}
	.st36{fill:none;stroke:#0A61FE;stroke-width:0.5069;stroke-miterlimit:10;}
	.st37{fill:#FFFFFF;stroke:#0A61FE;stroke-width:0.5069;stroke-miterlimit:10;}
	.st38{fill:none;stroke:#0A61FE;stroke-width:0.5885;stroke-miterlimit:10;}
	.st39{fill:none;stroke:#0A61FE;stroke-width:0.4951;stroke-miterlimit:10;}
	.st40{fill:none;stroke:#0A61FE;stroke-width:0.4424;stroke-miterlimit:10;}
	.st41{fill:none;stroke:#0A61FE;stroke-width:0.438;stroke-miterlimit:10;}
	.st42{fill:#FFFFFF;stroke:#0A61FE;stroke-width:0.657;stroke-miterlimit:10;}
	.st43{fill:none;stroke:#0A61FE;stroke-width:0.657;stroke-miterlimit:10;}
</style>
<g>
	<rect x="17" y="4.1" class="st4" width="15" height="31.3"/>
	<path class="st10" d="M31.5,4.6v30.3h-14V4.6H31.5 M32.5,3.6h-16v32.3h16V3.6L32.5,3.6z"/>
</g>
<g>
	<rect x="7.9" y="14.1" class="st4" width="8.5" height="21.3"/>
	<path class="st10" d="M16,14.6v20.3H8.4V14.6H16 M17,13.6H7.4v22.3H17V13.6L17,13.6z"/>
</g>
<rect x="5.8" y="35" class="st10" width="29.1" height="1.9"/>
<rect x="9.5" y="16.2" class="st10" width="7.1" height="1.4"/>
<rect x="9.5" y="20.1" class="st10" width="7.1" height="1.4"/>
<rect x="9.5" y="23.9" class="st10" width="7.1" height="1.4"/>
<rect x="9.5" y="27.7" class="st10" width="7.1" height="1.4"/>
<rect x="9.5" y="31.6" class="st10" width="7.1" height="1.4"/>
<g>
	<rect x="18.4" y="6.6" class="st10" width="5.4" height="1.4"/>
	<rect x="24.6" y="6.6" class="st10" width="5.4" height="1.4"/>
</g>
<g>
	<rect x="18.4" y="10" class="st10" width="5.4" height="1.4"/>
	<rect x="24.6" y="10" class="st10" width="5.4" height="1.4"/>
</g>
<g>
	<rect x="18.4" y="13.5" class="st10" width="5.4" height="1.4"/>
	<rect x="24.6" y="13.5" class="st10" width="5.4" height="1.4"/>
</g>
<g>
	<rect x="18.4" y="16.9" class="st10" width="5.4" height="1.4"/>
	<rect x="24.6" y="16.9" class="st10" width="5.4" height="1.4"/>
</g>
<g>
	<rect x="18.4" y="20.4" class="st10" width="5.4" height="1.4"/>
	<rect x="24.6" y="20.4" class="st10" width="5.4" height="1.4"/>
</g>
<g>
	<rect x="18.4" y="23.8" class="st10" width="5.4" height="1.4"/>
	<rect x="24.6" y="23.8" class="st10" width="5.4" height="1.4"/>
</g>
<g>
	<rect x="18.4" y="27.3" class="st10" width="5.4" height="1.4"/>
	<rect x="24.6" y="27.3" class="st10" width="5.4" height="1.4"/>
</g>
<g>
	<rect x="18.4" y="30.8" class="st10" width="5.4" height="1.4"/>
	<rect x="24.6" y="30.8" class="st10" width="5.4" height="1.4"/>
</g>
</svg>
