<?xml version="1.0" encoding="utf-8"?>
<!-- Generator: Adobe Illustrator 19.2.1, SVG Export Plug-In . SVG Version: 6.00 Build 0)  -->
<svg version="1.1" id="Layer_1" xmlns="http://www.w3.org/2000/svg" xmlns:xlink="http://www.w3.org/1999/xlink" x="0px" y="0px"
	 viewBox="0 0 31 34" style="enable-background:new 0 0 31 34;" xml:space="preserve">
<style type="text/css">
	.st0{opacity:0.2;clip-path:url(#SVGID_2_);}
	.st1{fill:#010002;}
</style>
<g>
	<defs>
		<rect id="SVGID_1_" x="2.8" y="4" width="25.1" height="25.7"/>
	</defs>
	<clipPath id="SVGID_2_">
		<use xlink:href="#SVGID_1_"  style="overflow:visible;"/>
	</clipPath>
	<g class="st0">
		<g>
			<path class="st1" d="M26.5,15.6c-0.8-1.9-2.3-2.9-4.4-2.9c0,0-1.4,0-2.6,0c0.4-1,0.9-2.4,0.9-4.1c0-0.5,0-1-0.1-1.4
				c-0.3-2-1.7-3-3.6-2.8c-0.8,0.1-1,0.8-1.7,2.6c-0.5,1.5-1.2,3.4-2.3,5c-0.8,1.2-2.1,2.1-3.3,2.7v-0.1H1V27h8.4v-0.7
				c1.3-0.1,2.1,0,2.3,0l1.5,0.9l1.1,0.7c1.1,0.6,5.9,0.6,7.9,0.3c2.6-0.4,3.3-2.6,3.3-2.6C25.8,24.9,27.7,18.5,26.5,15.6z M24,25.2
				c0,0-0.4,1.2-2,1.5c-2.2,0.3-6.3,0.1-6.9-0.2c0,0-1-0.6-1-0.6l-1.9-1.1c-0.4-0.1-1.4-0.2-2.8-0.1v-8.3c1.4-0.5,3.5-1.7,4.7-3.6
				c1.1-1.8,1.9-3.9,2.5-5.4c0,0,0.5-1.2,0.6-1.5c0.8,0,1.3,0.5,1.5,1.5c0.1,0.4,0.1,0.8,0.1,1.2c0,2.5-1.3,4.5-1.3,4.5l-0.8,1.3
				l5.4,0c1.5,0,2.3,0.6,2.9,1.8C25.8,18.2,24.6,23.4,24,25.2z"/>
		</g>
	</g>
</g>
</svg>
