<svg xmlns="http://www.w3.org/2000/svg" xmlns:xlink="http://www.w3.org/1999/xlink" version="1.1" id="Layer_1" x="0px" y="0px" width="54.0540540541px" height="100px" viewBox="0 0 100 185.708" enable-background="new 0 0 100 185.708" xml:space="preserve">
<rect x="4.472" y="161.291" width="37.093" height="20.815"/>
<rect x="58.969" y="161.291" width="37.094" height="20.815"/>
<path d="M4.472,159.871h91.591V27.24H4.472V159.871z M69.338,36.476h17.403v21.525H69.338V36.476z M69.338,64.61h17.403v21.525  H69.338V64.61z M69.338,93.649h17.403v21.525H69.338V93.649z M69.338,125.432h17.403v21.525H69.338V125.432z M41.565,36.476h17.404  v21.525H41.565V36.476z M41.565,64.61h17.404v21.525H41.565V64.61z M41.565,93.649h17.404v21.525H41.565V93.649z M41.565,125.432  h17.404v21.525H41.565V125.432z M14.293,36.476h17.404v21.525H14.293V36.476z M14.293,64.61h17.404v21.525H14.293V64.61z   M14.293,93.649h17.404v21.525H14.293V93.649z M14.293,125.432h17.404v21.525H14.293V125.432z"/>
<polygon points="78.039,13.422 78.039,5.119 22.495,5.119 22.495,13.422 4.472,13.422 4.472,25.821 96.062,25.821 96.062,13.422 "/>
</svg>