<svg xmlns="http://www.w3.org/2000/svg" xmlns:xlink="http://www.w3.org/1999/xlink" version="1.0" id="Layer_1" x="0px" y="0px" width="100px" height="100px" viewBox="0 0 100 100" enable-background="new 0 0 100 100" xml:space="preserve">
<path fill="#000000" d="M77.401,6.349C71.457,2.256,63.052,0,53.735,0C37.742,0,19.533,7.01,17.351,22.426  c-1.742,13.58-0.504,29.653,0.994,35.022c0.371,6.518,0.696,12.359,0.792,14.469C20.322,83.518,36.256,100,49.562,100  c15.595,0,28.613-18.087,31.24-27.871c0.696-3.174,1.177-9.035,1.511-15.223c0.104-0.196,0.178-0.412,0.212-0.645  C83.892,46.401,84.97,11.563,77.401,6.349z M49.562,96.157c-12.174,0-25.657-15.585-26.572-24.522  c-0.087-1.916-0.37-7.009-0.7-12.891c0.071-0.146,0.144-0.289,0.178-0.453l2.658-13.414c4.297,0.682,8.429,0.623,12.306,0.623  c0.001,0,0.002,0,0.003,0c21.097,0,31.024-9.466,35.161-15.6l5.918,25.435c-0.318,6.42-0.785,12.675-1.467,15.788  C74.381,81.05,62.057,96.157,49.562,96.157z"/>
</svg>