<?xml version="1.0" encoding="utf-8"?>
<!-- Generator: Adobe Illustrator 19.2.1, SVG Export Plug-In . SVG Version: 6.00 Build 0)  -->
<svg version="1.1" id="Layer_1" xmlns="http://www.w3.org/2000/svg" xmlns:xlink="http://www.w3.org/1999/xlink" x="0px" y="0px"
	 viewBox="0 0 40 40" style="enable-background:new 0 0 40 40;" xml:space="preserve">
<style type="text/css">
	.st0{fill:#FFFFFF;stroke:#0A61FE;stroke-width:2;stroke-miterlimit:10;}
	.st1{fill:#FFFFFF;stroke:#0A61FE;stroke-width:8;stroke-miterlimit:10;}
	.st2{opacity:0.2;}
	.st3{fill:#010002;}
	.st4{fill:#FFFFFF;}
	.st5{fill:#CBCBCB;stroke:#000000;stroke-miterlimit:10;}
	.st6{fill:#231F20;}
	.st7{fill:#010101;}
	.st8{display:none;}
	.st9{display:inline;fill:#BAFF1F;}
	.st10{fill:#0A61FE;}
	.st11{fill:none;stroke:#0A61FE;stroke-width:8;stroke-miterlimit:10;}
	.st12{display:inline;}
	.st13{fill:none;stroke:#0A61FE;stroke-miterlimit:10;}
	.st14{fill:#0A61FE;stroke:#FFFFFF;stroke-width:8;stroke-linecap:round;stroke-miterlimit:10;}
	.st15{clip-path:url(#SVGID_2_);}
	.st16{fill:none;stroke:#0A61FE;stroke-width:40;stroke-miterlimit:10;}
	.st17{fill:#0A61FE;stroke:#FFFFFF;stroke-width:8;stroke-miterlimit:10;}
	.st18{fill:none;stroke:#85FF37;stroke-width:8;stroke-miterlimit:10;}
	.st19{fill:none;stroke:#0A61FE;stroke-width:5;stroke-miterlimit:10;}
	.st20{fill:none;stroke:#0A61FE;stroke-width:5;stroke-miterlimit:10;stroke-dasharray:11.8358,11.8358;}
	.st21{fill:#FFFFFF;stroke:#0A61FE;stroke-miterlimit:10;}
	.st22{fill:#FFFFFF;stroke:#0A61FE;stroke-width:0.5;stroke-miterlimit:10;}
	.st23{fill:none;stroke:#0A61FE;stroke-width:0.9086;stroke-miterlimit:10;}
	.st24{fill:#0A61FE;stroke:#0A61FE;stroke-width:0.5;stroke-miterlimit:10;}
	.st25{fill:#0A61FE;stroke:#0A61FE;stroke-miterlimit:10;}
	.st26{fill:none;stroke:#0A61FE;stroke-width:2;stroke-miterlimit:10;}
	.st27{fill:none;stroke:#0A61FE;stroke-width:3;stroke-miterlimit:10;}
	.st28{fill:none;stroke:#0A61FE;stroke-width:0.5712;stroke-miterlimit:10;}
	.st29{fill:#FFFFFF;stroke:#0A61FE;stroke-width:0.5712;stroke-miterlimit:10;}
	.st30{fill:#FFFFFF;stroke:#0A61FE;stroke-width:0.7519;stroke-miterlimit:10;}
	.st31{fill:none;stroke:#0A61FE;stroke-width:0.7519;stroke-miterlimit:10;}
	.st32{fill:none;stroke:#0A61FE;stroke-width:0.4699;stroke-miterlimit:10;}
	.st33{fill:none;stroke:#0A61FE;stroke-width:0.4699;stroke-miterlimit:10;stroke-dasharray:1.1115,1.1115;}
	.st34{fill:#FFFFFF;stroke:#0A61FE;stroke-width:0.4573;stroke-miterlimit:10;}
	.st35{fill:none;stroke:#0A61FE;stroke-width:0.4573;stroke-miterlimit:10;}
	.st36{fill:none;stroke:#0A61FE;stroke-width:0.5069;stroke-miterlimit:10;}
	.st37{fill:#FFFFFF;stroke:#0A61FE;stroke-width:0.5069;stroke-miterlimit:10;}
	.st38{fill:none;stroke:#0A61FE;stroke-width:0.5885;stroke-miterlimit:10;}
	.st39{fill:none;stroke:#0A61FE;stroke-width:0.4951;stroke-miterlimit:10;}
	.st40{fill:none;stroke:#0A61FE;stroke-width:0.4424;stroke-miterlimit:10;}
	.st41{fill:none;stroke:#0A61FE;stroke-width:0.438;stroke-miterlimit:10;}
	.st42{fill:#FFFFFF;stroke:#0A61FE;stroke-width:0.657;stroke-miterlimit:10;}
	.st43{fill:none;stroke:#0A61FE;stroke-width:0.657;stroke-miterlimit:10;}
</style>
<polygon class="st22" points="11.6,14.3 5.2,14.3 19,31.2 12.2,14.3 "/>
<polygon class="st21" points="9.4,7.6 5.3,13.7 11.9,13.7 "/>
<polygon class="st21" points="14.9,11.3 14.8,11.3 19.2,7.3 9.9,7.3 12.5,13.5 "/>
<g id="XMLID_11_">
	<g>
		<polygon class="st10" points="29.4,13.6 31.2,14.3 29.4,15 28.7,16.8 28,15 26.2,14.3 28,13.6 28.7,11.8 		"/>
		<path class="st4" d="M31.2,14.3l-1.8-0.7l-0.7-1.8L28,13.6l-1.8,0.7L28,15l0.7,1.8l0.7-1.8L31.2,14.3z M33,14.3h1.8L21.5,30.6
			c-0.1,0.1-0.3,0-0.2-0.1l4.8-11.7l-0.5-0.2L20,32.1l-7.2-17.8h10.5h0.4v-0.6h-0.4H13.1L20,7.4l4.9,4.5l0.4-0.4l-0.2-0.2v0
			l-4.4-4.1h9.3L29.4,9l0.5,0.2l0.6-1.6l4.1,6.1H33V14.3z"/>
	</g>
	<g>
		<path class="st23" d="M34.8,14.3H33v-0.6h1.7l-4.1-6.1l-0.6,1.6L29.4,9l0.7-1.7h-9.3l4.4,4.1v0l0.2,0.2l-0.4,0.4L20,7.4l-6.9,6.3
			h10.2h0.4v0.6h-0.4H12.8L20,32.1l5.5-13.6l0.5,0.2l-4.8,11.7c0,0.1,0.1,0.2,0.2,0.1L34.8,14.3z"/>
		<polygon class="st23" points="26.2,14.3 28,13.6 28.7,11.8 29.4,13.6 31.2,14.3 29.4,15 28.7,16.8 28,15 		"/>
	</g>
</g>
<path class="st24" d="M30.7,6.7h-9.9h-1.6H9.3l-5,7.4L20,33.3l15.7-19.2L30.7,6.7z M19.2,7.3l-4.4,4.1l0,0l-2.4,2.2L9.9,7.3H19.2z
	 M9.4,7.6l2.5,6.2H5.3L9.4,7.6z M5.2,14.3h6.4h0.5L19,31.2L5.2,14.3z M13.1,13.7L20,7.4l4.9,4.5l0.4-0.4l-0.2-0.2l0,0l-4.4-4.1h9.3
	L29.4,9l0.5,0.2l0.7-1.6l4.1,6.2H33v0.6h1.8L21,31.2l5.1-12.5l-0.5-0.2L20,32.1l-7.2-17.8"/>
</svg>
