<svg width="79" height="78" viewBox="0 0 79 78" fill="none" xmlns="http://www.w3.org/2000/svg">
<g clip-path="url(#clip0_1649_40638)">
<path d="M7.14 12.23L6.84 77.42H77.95L78.25 10.45L7.14 12.23Z" fill="#E0EFFC"/>
<path d="M4.83999 15.34L4.39999 71.05L70.18 71.49L70.03 15.94L4.83999 15.34Z" fill="#E0EFFC"/>
<path d="M72.06 0.51001L0.509995 1.84001V72.81L73.25 73.25L72.06 0.51001ZM2.43999 70.29L3.91999 14.73L68.81 15.32L69.55 70.13L2.43999 70.28V70.29Z" fill="#F6F6F6"/>
<path d="M64.21 10.73C65.9276 10.73 67.32 9.33762 67.32 7.62001C67.32 5.9024 65.9276 4.51001 64.21 4.51001C62.4924 4.51001 61.1 5.9024 61.1 7.62001C61.1 9.33762 62.4924 10.73 64.21 10.73Z" fill="#B1D6FF"/>
<path d="M54.51 10.95C56.2276 10.95 57.62 9.55762 57.62 7.84001C57.62 6.12241 56.2276 4.73001 54.51 4.73001C52.7924 4.73001 51.4 6.12241 51.4 7.84001C51.4 9.55762 52.7924 10.95 54.51 10.95Z" fill="#CBE4FF"/>
<path d="M2.44 70.29L3.92 14.73L6.44 16.66L5.55 70.29H2.44Z" fill="#D7DBDB"/>
<path d="M72.06 0.51001L74.25 3.03001L75.25 74.69L73.25 73.25L72.06 0.51001Z" fill="#D7DBDB"/>
<path d="M0.509995 72.81L73.25 73.25L75.25 74.69L3.13999 74.03L0.509995 72.81Z" fill="#CECECE"/>
<path d="M6.44 16.66L68.81 17.14V15.32L3.92 14.73L6.44 16.66Z" fill="#CECECE"/>
<path d="M4.95 5.10001L4.81 10.58L47.77 10.44L47.32 4.51001L4.95 5.10001Z" fill="white"/>
<path d="M71.81 0.25L74 2.77L75 74.44L2.89 73.77L0.26 72.55V1.58L71.81 0.25ZM71.81 0L0.25 1.33C0.11 1.33 0 1.44 0 1.58V72.55C0 72.65 0.06 72.74 0.14 72.78L2.77 74C2.77 74 2.84 74.02 2.87 74.02L74.98 74.69C75.05 74.69 75.11 74.66 75.16 74.62C75.21 74.57 75.23 74.51 75.23 74.44L74.23 2.77C74.23 2.71 74.21 2.65 74.17 2.61L71.99 0.09C71.94 0.04 71.87 0 71.8 0H71.81Z" fill="#007AFF"/>
<path d="M37.25 64.86C49.1959 64.86 58.88 55.1759 58.88 43.23C58.88 31.2841 49.1959 21.6 37.25 21.6C25.3041 21.6 15.62 31.2841 15.62 43.23C15.62 55.1759 25.3041 64.86 37.25 64.86Z" fill="#00C48C"/>
<path d="M30.2 49.76C30.2 49.76 30.47 45.98 36.64 46.08C42.34 46.17 43.08 49.85 43.08 49.85" stroke="white" stroke-miterlimit="10" stroke-linecap="round"/>
<path d="M28.24 39.36C29.1954 39.36 29.97 38.5854 29.97 37.63C29.97 36.6745 29.1954 35.9 28.24 35.9C27.2845 35.9 26.51 36.6745 26.51 37.63C26.51 38.5854 27.2845 39.36 28.24 39.36Z" fill="white"/>
<path d="M45.59 39.66C46.5455 39.66 47.32 38.8854 47.32 37.93C47.32 36.9745 46.5455 36.2 45.59 36.2C44.6345 36.2 43.86 36.9745 43.86 37.93C43.86 38.8854 44.6345 39.66 45.59 39.66Z" fill="white"/>
</g>
<defs>
<clipPath id="clip0_1649_40638">
<rect width="78.25" height="77.42" fill="white"/>
</clipPath>
</defs>
</svg>
