<svg width="79" height="78" viewBox="0 0 79 78" fill="none" xmlns="http://www.w3.org/2000/svg">
<g clip-path="url(#clip0_1649_40621)">
<path d="M7.21001 11.94L6.92001 77.12H78.03L78.32 10.16L7.21001 11.94Z" fill="#E0EFFC"/>
<path d="M4.66002 15.05L4.21002 70.75L69.99 71.19L69.84 15.64L4.66002 15.05Z" fill="#F6F6F6"/>
<path d="M71.88 0.209999L0.320007 1.55V72.51L73.06 72.95L71.88 0.209999ZM2.25001 69.99L3.73001 14.44L68.62 15.03L69.36 69.84L2.25001 69.99Z" fill="#F6F6F6"/>
<path d="M64.03 10.43C65.7476 10.43 67.14 9.0376 67.14 7.32C67.14 5.60239 65.7476 4.21 64.03 4.21C62.3124 4.21 60.92 5.60239 60.92 7.32C60.92 9.0376 62.3124 10.43 64.03 10.43Z" fill="#B1D6FF"/>
<path d="M54.32 10.66C56.0376 10.66 57.43 9.26761 57.43 7.55C57.43 5.8324 56.0376 4.44 54.32 4.44C52.6024 4.44 51.21 5.8324 51.21 7.55C51.21 9.26761 52.6024 10.66 54.32 10.66Z" fill="#CBE4FF"/>
<path d="M2.25 69.99L3.73 14.44L6.25 16.36L5.36 69.99H2.25Z" fill="#D7DBDB"/>
<path d="M71.88 0.209999L74.06 2.73L75.06 74.4L73.06 72.95L71.88 0.209999Z" fill="#D7DBDB"/>
<path d="M0.320007 72.51L73.06 72.95L75.06 74.4L2.95001 73.73L0.320007 72.51Z" fill="#CECECE"/>
<path d="M6.25001 16.36L68.62 16.84V15.03L3.73001 14.44L6.25001 16.36Z" fill="#CECECE"/>
<path d="M4.77 4.81L4.62 10.29L47.58 10.14L47.14 4.21L4.77 4.81Z" fill="white"/>
<path d="M37.94 66.97C50.5487 66.97 60.77 56.7487 60.77 44.14C60.77 31.5313 50.5487 21.31 37.94 21.31C25.3314 21.31 15.11 31.5313 15.11 44.14C15.11 56.7487 25.3314 66.97 37.94 66.97Z" fill="#B8F2EF"/>
<path d="M36.94 65.41C49.5487 65.41 59.77 55.1887 59.77 42.58C59.77 29.9713 49.5487 19.75 36.94 19.75C24.3314 19.75 14.11 29.9713 14.11 42.58C14.11 55.1887 24.3314 65.41 36.94 65.41Z" fill="white"/>
<path d="M45.77 53.97H27.66V56.08H45.77V53.97Z" fill="#00C48C"/>
<path d="M25.77 43.29H47.78L36.04 51.42L25.77 43.29Z" fill="#00C48C"/>
<path d="M41.68 30.08H31.86V44.42H41.68V30.08Z" fill="#00C48C"/>
<path d="M71.81 0.25L74 2.77L75 74.44L2.89 73.77L0.26 72.55V1.58L71.81 0.25ZM71.81 0L0.25 1.33C0.11 1.33 0 1.44 0 1.58V72.55C0 72.65 0.06 72.74 0.14 72.78L2.77 74C2.77 74 2.84 74.02 2.87 74.02L74.98 74.69C75.05 74.69 75.11 74.66 75.16 74.62C75.21 74.57 75.23 74.51 75.23 74.44L74.23 2.77C74.23 2.71 74.21 2.65 74.17 2.61L71.99 0.09C71.94 0.04 71.87 0 71.8 0H71.81Z" fill="#007AFF"/>
</g>
<defs>
<clipPath id="clip0_1649_40621">
<rect width="78.32" height="77.12" fill="white"/>
</clipPath>
</defs>
</svg>
