<svg width="79" height="78" viewBox="0 0 79 78" fill="none" xmlns="http://www.w3.org/2000/svg">
<g clip-path="url(#clip0_1649_40648)">
<path d="M7.32003 12.08L7.03003 77.27H78.14L78.44 10.31L7.32003 12.08Z" fill="#E0EFFC"/>
<path d="M1.85995 12.9L1.31995 71.79H71.3199L69.9499 13.22L1.85995 12.9Z" fill="white"/>
<path d="M71.9899 0.360001L0.439941 1.69V72.66L73.1799 73.1L71.9899 0.360001ZM2.35994 70.14L3.83994 14.58L68.7299 15.17L69.4699 69.98L2.35994 70.13V70.14Z" fill="#F6F6F6"/>
<path d="M64.14 10.58C65.8576 10.58 67.25 9.18761 67.25 7.47C67.25 5.75239 65.8576 4.36 64.14 4.36C62.4224 4.36 61.03 5.75239 61.03 7.47C61.03 9.18761 62.4224 10.58 64.14 10.58Z" fill="#B1D6FF"/>
<path d="M54.44 10.8C56.1576 10.8 57.55 9.40761 57.55 7.69C57.55 5.9724 56.1576 4.58 54.44 4.58C52.7223 4.58 51.33 5.9724 51.33 7.69C51.33 9.40761 52.7223 10.8 54.44 10.8Z" fill="#CBE4FF"/>
<path d="M2.35999 70.14L3.83999 14.58L6.35999 16.51L5.46999 70.14H2.35999Z" fill="#D7DBDB"/>
<path d="M71.99 0.360001L74.18 2.88L75.18 74.55L73.18 73.1L71.99 0.360001Z" fill="#D7DBDB"/>
<path d="M0.439941 72.66L73.1799 73.1L75.1799 74.55L3.05994 73.88L0.439941 72.66Z" fill="#CECECE"/>
<path d="M6.35997 16.51L68.73 16.99V15.18L3.83997 14.58L6.35997 16.51Z" fill="#CECECE"/>
<path d="M4.87998 4.95L4.72998 10.44L47.69 10.29L47.25 4.36L4.87998 4.95Z" fill="white"/>
<path d="M71.81 0.25L74 2.77L75 74.44L2.89 73.77L0.26 72.55V1.58L71.81 0.25ZM71.81 0L0.25 1.33C0.11 1.33 0 1.44 0 1.58V72.55C0 72.65 0.06 72.74 0.14 72.78L2.77 74C2.77 74 2.84 74.02 2.87 74.02L74.98 74.69C75.05 74.69 75.11 74.66 75.16 74.62C75.21 74.57 75.23 74.51 75.23 74.44L74.23 2.77C74.23 2.71 74.21 2.65 74.17 2.61L71.99 0.09C71.94 0.04 71.87 0 71.8 0H71.81Z" fill="#B1D6FF"/>
<path d="M71.95 0.25L74.14 2.77L75.14 74.44L3.03001 73.77L0.400015 72.55V1.58L71.95 0.25ZM71.95 0L0.390015 1.33C0.250015 1.33 0.140015 1.44 0.140015 1.58V72.55C0.140015 72.65 0.200015 72.74 0.280015 72.78L2.91001 74C2.91001 74 2.98001 74.02 3.01001 74.02L75.12 74.69C75.19 74.69 75.25 74.66 75.3 74.62C75.35 74.57 75.37 74.51 75.37 74.44L74.37 2.77C74.37 2.71 74.35 2.65 74.31 2.61L72.14 0.09C72.09 0.04 72.02 0 71.95 0Z" fill="#007AFF"/>
<path d="M6.35997 16.51L68.73 16.99L69.47 69.99L5.46997 70.14L6.35997 16.51Z" fill="white"/>
<path d="M12.07 54.36C12.07 54.36 23.69 55.59 24.45 51.78C25.21 47.97 12.99 44.29 10.86 36.9C8.37003 28.26 19.12 25.88 24.74 26.74L24.85 29.3C24.85 29.3 17.37 29.47 15.2 31.35C13.03 33.23 12.48 36.01 16.51 40.04C20.54 44.07 27.75 46.61 27.96 52.4C28.17 58.19 14.75 58.24 11.38 57.42L12.08 54.36H12.07Z" fill="#CBE4FF"/>
<path d="M16.0801 23.65L16.1901 62.98H18.3101L17.7501 23.76L16.0801 23.65Z" fill="#CBE4FF"/>
<path d="M20.03 23.7L20.14 63.04H22.25L21.69 23.81L20.03 23.7Z" fill="#CBE4FF"/>
<path d="M60.89 23.76H33.53V27.65H60.89V23.76Z" fill="#CBE4FF"/>
<path opacity="0.3" d="M47.08 30.98H33.25V34.87H47.08V30.98Z" fill="#CBE4FF"/>
<path opacity="0.3" d="M47.05 38.31H33.22V42.2H47.05V38.31Z" fill="#CBE4FF"/>
<path d="M60.97 46.59H33.61V50.48H60.97V46.59Z" fill="#CBE4FF"/>
<path opacity="0.3" d="M47.3999 54.48H33.5699V58.37H47.3999V54.48Z" fill="#CBE4FF"/>
<path opacity="0.3" d="M47.37 61.81H33.54V65.7H47.37V61.81Z" fill="#CBE4FF"/>
</g>
<defs>
<clipPath id="clip0_1649_40648">
<rect width="78.44" height="77.27" fill="white"/>
</clipPath>
</defs>
</svg>
