<svg width="182" height="182" viewBox="0 0 182 182" fill="none" xmlns="http://www.w3.org/2000/svg">
<circle cx="90.9084" cy="90.9084" r="90.9084" fill="#007AFF" fill-opacity="0.08"/>
<g clip-path="url(#clip0_1741_60398)">
<path d="M59.2503 132.063C45.9436 132.063 35.125 121.244 35.125 107.938C35.125 94.6311 45.9436 83.8125 59.2503 83.8125C72.557 83.8125 83.3755 94.6311 83.3755 107.938C83.3755 121.244 72.557 132.063 59.2503 132.063ZM59.2503 87.9384C48.227 87.9384 39.2509 96.9145 39.2509 107.938C39.2509 118.961 48.227 127.937 59.2503 127.937C70.2736 127.937 79.2497 118.961 79.2497 107.938C79.2497 96.9145 70.2736 87.9384 59.2503 87.9384Z" fill="#97C9FF"/>
<path d="M121.059 132.063C107.752 132.063 96.9336 121.244 96.9336 107.938C96.9336 94.6311 107.752 83.8125 121.059 83.8125C134.366 83.8125 145.184 94.6311 145.184 107.938C145.184 121.244 134.366 132.063 121.059 132.063ZM121.059 87.9384C110.036 87.9384 101.059 96.9145 101.059 107.938C101.059 118.961 110.036 127.937 121.059 127.937C132.082 127.937 141.058 118.961 141.058 107.938C141.058 96.9145 132.082 87.9384 121.059 87.9384Z" fill="#97C9FF"/>
<path d="M59.4374 108.772L55.4375 107.764L71.2796 45.4512L81.9092 46.2386L81.5942 50.3644L74.4291 49.829L59.4374 108.772Z" fill="white"/>
<path d="M54.5586 63.5454L55.3775 73.6081C55.3775 73.6081 63.5505 74.1278 64.9047 71.4035C68.1802 64.8052 62.7158 60.8211 54.5586 63.5454Z" fill="white"/>
<path d="M121.058 112.788C123.519 112.788 125.515 110.793 125.515 108.332C125.515 105.87 123.519 103.875 121.058 103.875C118.597 103.875 116.602 105.87 116.602 108.332C116.602 110.793 118.597 112.788 121.058 112.788Z" fill="white"/>
<path d="M57.3433 113.182C59.8046 113.182 61.7998 111.186 61.7998 108.725C61.7998 106.264 59.8046 104.269 57.3433 104.269C54.882 104.269 52.8867 106.264 52.8867 108.725C52.8867 111.186 54.882 113.182 57.3433 113.182Z" fill="white"/>
<path d="M94.5714 70.5057C94.5714 70.5057 94.0202 72.7261 95.1225 73.5135C96.2249 74.3009 118.807 75.2457 120.476 74.4584C122.145 73.671 120.76 70.8207 116.854 69.5609C112.949 68.3011 94.8548 69.8758 94.5714 70.5057Z" fill="#97C9FF"/>
<path d="M68.1652 71.1496L66.6289 73.4375L120.297 109.474L121.833 107.186L68.1652 71.1496Z" fill="white"/>
<path d="M72.2737 83.9698C62.1953 77.1983 45.3769 80.6313 45.2036 80.6628L44.6367 77.9699C45.3769 77.8125 62.7464 74.2693 73.8012 81.6864L72.2737 83.9698Z" fill="white"/>
<path d="M69.0753 68.4744C69.0753 68.4744 73.3586 66.9469 75.1853 68.6319C77.012 70.3168 77.327 72.4585 77.327 72.4585C77.327 72.4585 111.861 72.301 115.373 72.4585C118.885 72.616 137.372 71.2302 137.987 72.7577C138.601 74.2852 110.334 79.9386 110.334 79.9386C110.334 79.9386 100.555 89.4186 96.8855 91.5446L66.9336 71.8286L69.0753 68.4744Z" fill="white"/>
<g opacity="0.32">
<path opacity="0.32" d="M80.3359 76.7256L102.131 78.3476L93.3592 84.4576L80.3359 76.7256Z" fill="#97C9FF"/>
</g>
<path opacity="0.5" d="M40.418 132.347L146.242 132.772C146.242 132.772 81.5664 139.071 40.418 132.347Z" fill="white"/>
</g>
<defs>
<clipPath id="clip0_1741_60398">
<rect width="111.115" height="89.9973" fill="white" transform="translate(35.125 45.4512)"/>
</clipPath>
</defs>
</svg>
