<svg width="79" height="78" viewBox="0 0 79 78" fill="none" xmlns="http://www.w3.org/2000/svg">
<g clip-path="url(#clip0_1649_40622)">
<path d="M7.40001 12.23L7.10001 77.42H78.21L78.51 10.45L7.40001 12.23Z" fill="#E0EFFC"/>
<path d="M4.83999 15.34L4.39999 71.05L70.18 71.49L70.03 15.94L4.83999 15.34Z" fill="white"/>
<path d="M72.06 0.510002L0.51001 1.84V72.81L73.25 73.25L72.06 0.510002ZM2.44001 70.29L3.92001 14.73L68.81 15.32L69.55 70.13L2.44001 70.28V70.29Z" fill="#F6F6F6"/>
<path d="M64.21 10.73C65.9276 10.73 67.32 9.33761 67.32 7.62C67.32 5.9024 65.9276 4.51 64.21 4.51C62.4924 4.51 61.1 5.9024 61.1 7.62C61.1 9.33761 62.4924 10.73 64.21 10.73Z" fill="#B1D6FF"/>
<path d="M54.51 10.95C56.2276 10.95 57.62 9.55761 57.62 7.84C57.62 6.1224 56.2276 4.73 54.51 4.73C52.7924 4.73 51.4 6.1224 51.4 7.84C51.4 9.55761 52.7924 10.95 54.51 10.95Z" fill="#CBE4FF"/>
<path d="M2.44 70.29L3.92 14.73L6.44 16.66L5.55 70.29H2.44Z" fill="#D7DBDB"/>
<path d="M72.06 0.510002L74.25 3.03L75.25 74.69L73.25 73.25L72.06 0.510002Z" fill="#D7DBDB"/>
<path d="M0.51001 72.81L73.25 73.25L75.25 74.69L3.14001 74.03L0.51001 72.81Z" fill="#CECECE"/>
<path d="M6.44001 16.66L68.81 17.14V15.32L3.92001 14.73L6.44001 16.66Z" fill="#CECECE"/>
<path d="M4.95 5.1L4.81 10.58L47.77 10.44L47.32 4.51L4.95 5.1Z" fill="white"/>
<path d="M45.92 30.29H28.67C24.48 30.29 21.07 33.73 21.07 37.96V55.37C21.07 59.6 24.48 63.04 28.67 63.04H45.92C50.11 63.04 53.52 59.6 53.52 55.37V37.96C53.52 33.73 50.11 30.29 45.92 30.29Z" fill="white"/>
<path d="M46.73 28.73H27.57C22.91 28.73 19.12 32.52 19.12 37.18V56.34C19.12 61 22.91 64.79 27.57 64.79H46.73C51.39 64.79 55.18 61 55.18 56.34V37.18C55.18 32.52 51.39 28.73 46.73 28.73ZM50.73 56.34C50.73 58.55 48.94 60.34 46.73 60.34H27.57C25.36 60.34 23.57 58.55 23.57 56.34V37.18C23.57 34.97 25.36 33.18 27.57 33.18H46.73C48.94 33.18 50.73 34.97 50.73 37.18V56.34Z" fill="#CBE4FF"/>
<path d="M20.79 41.38L33.67 57.89L39.33 57.93L53.78 22.63L48.14 20.75L35.66 50.49L24.89 37.67L20.79 41.38Z" fill="#00C48C"/>
<path d="M71.81 0.25L74 2.77L75 74.44L2.89 73.77L0.26 72.55V1.58L71.81 0.25ZM71.81 0L0.25 1.33C0.11 1.33 0 1.44 0 1.58V72.55C0 72.65 0.06 72.74 0.14 72.78L2.77 74C2.77 74 2.84 74.02 2.87 74.02L74.98 74.69C75.05 74.69 75.11 74.66 75.16 74.62C75.21 74.57 75.23 74.51 75.23 74.44L74.23 2.77C74.23 2.71 74.21 2.65 74.17 2.61L71.99 0.09C71.94 0.04 71.87 0 71.8 0H71.81Z" fill="#007AFF"/>
</g>
<defs>
<clipPath id="clip0_1649_40622">
<rect width="78.51" height="77.42" fill="white"/>
</clipPath>
</defs>
</svg>
