<svg width="140" height="81" viewBox="0 0 140 81" fill="none" xmlns="http://www.w3.org/2000/svg">
<g opacity="0.49">
<path opacity="0.49" d="M136.87 1.54205H4.44755C2.78562 1.54205 1.43835 2.89049 1.43835 4.55388V77.9129C1.43835 79.5763 2.78562 80.9247 4.44755 80.9247H136.87C138.532 80.9247 139.88 79.5763 139.88 77.9129V4.55388C139.88 2.89049 138.532 1.54205 136.87 1.54205Z" fill="#C9C9C9"/>
<path opacity="0.49" d="M135.507 0.0752945H3.0844C1.42246 0.0752945 0.0751953 1.42373 0.0751953 3.08712V76.4461C0.0751953 78.1095 1.42246 79.4579 3.0844 79.4579H135.507C137.169 79.4579 138.516 78.1095 138.516 76.4461V3.08712C138.516 1.42373 137.169 0.0752945 135.507 0.0752945Z" fill="#D7DBDB"/>
</g>
<path d="M132.179 20.0648H6.52688C5.03114 20.0648 3.8186 21.2784 3.8186 22.7754V71.9675C3.8186 73.4646 5.03114 74.6782 6.52688 74.6782H132.179C133.675 74.6782 134.887 73.4646 134.887 71.9675V22.7754C134.887 21.2784 133.675 20.0648 132.179 20.0648Z" fill="#F7F7F7"/>
<path d="M125.935 28.9888H11.3416C9.84584 28.9888 8.6333 30.2024 8.6333 31.6994V40.0211C8.6333 41.5182 9.84584 42.7318 11.3416 42.7318H125.935C127.431 42.7318 128.643 41.5182 128.643 40.0211V31.6994C128.643 30.2024 127.431 28.9888 125.935 28.9888Z" fill="#E1E5E5"/>
<path d="M64.2373 52.1919H11.3416C9.84584 52.1919 8.6333 53.4055 8.6333 54.9025V63.2242C8.6333 64.7213 9.84584 65.9349 11.3416 65.9349H64.2373C65.733 65.9349 66.9456 64.7213 66.9456 63.2242V54.9025C66.9456 53.4055 65.733 52.1919 64.2373 52.1919Z" fill="#E1E5E5"/>
<path d="M125.757 52.1919H73.933C72.4373 52.1919 71.2247 53.4055 71.2247 54.9025V63.2242C71.2247 64.7213 72.4373 65.9349 73.933 65.9349H125.757C127.253 65.9349 128.466 64.7213 128.466 63.2242V54.9025C128.466 53.4055 127.253 52.1919 125.757 52.1919Z" fill="#E1E5E5"/>
<path d="M138.453 7.39403H0.252686V17.7457H138.453V7.39403Z" fill="#606060"/>
<path d="M139.925 7.34885H138.321V17.7908H139.925V7.34885Z" fill="#414242"/>
<path d="M124.512 30.305H12.5905C11.0947 30.305 9.8822 31.5186 9.8822 33.0156V38.6387C9.8822 40.1357 11.0947 41.3493 12.5905 41.3493H124.512C126.007 41.3493 127.22 40.1357 127.22 38.6387V33.0156C127.22 31.5186 126.007 30.305 124.512 30.305Z" fill="white"/>
<path d="M62.456 53.7068H12.9035C11.4077 53.7068 10.1952 54.9204 10.1952 56.4175V62.1068C10.1952 63.6039 11.4077 64.8175 12.9035 64.8175H62.456C63.9517 64.8175 65.1642 63.6039 65.1642 62.1068V56.4175C65.1642 54.9204 63.9517 53.7068 62.456 53.7068Z" fill="white"/>
<path d="M124.292 53.752H75.1818C73.686 53.752 72.4735 54.9656 72.4735 56.4627V61.4834C72.4735 62.9804 73.686 64.194 75.1818 64.194H124.292C125.788 64.194 127 62.9804 127 61.4834V56.4627C127 54.9656 125.788 53.752 124.292 53.752Z" fill="white"/>
<path d="M7.41768 14.7369H5.44666V10.2312H7.19801C7.50194 10.2312 7.76675 10.2673 7.98642 10.3396C8.20609 10.4119 8.37461 10.5113 8.48595 10.6378C8.68756 10.8697 8.78988 11.1317 8.78988 11.4238C8.78988 11.7762 8.67553 12.0383 8.44984 12.2099C8.3716 12.2702 8.31743 12.3063 8.28734 12.3214C8.25725 12.3364 8.20308 12.3605 8.12785 12.3967C8.40771 12.4569 8.63039 12.5834 8.79289 12.7731C8.95839 12.9629 9.03964 13.2008 9.03964 13.4839C9.03964 13.7972 8.93131 14.0742 8.71766 14.3152C8.46789 14.5953 8.03457 14.7338 7.41768 14.7338V14.7369ZM6.45173 12.0563H6.92718C7.20704 12.0563 7.41467 12.0262 7.54708 11.966C7.68249 11.9057 7.7517 11.7762 7.7517 11.5744C7.7517 11.3726 7.68851 11.2431 7.56513 11.1799C7.44176 11.1166 7.23111 11.0835 6.9332 11.0835H6.45173V12.0563ZM6.45173 13.8875H7.14084C7.42671 13.8875 7.64337 13.8514 7.78781 13.7821C7.93226 13.7128 8.00448 13.5713 8.00448 13.3635C8.00448 13.1556 7.92925 13.0171 7.77578 12.9508C7.62231 12.8846 7.37856 12.8514 7.04454 12.8514H6.45173V13.8875Z" fill="#B1D6FF"/>
<path d="M13.0389 14.7369L12.6206 13.764H10.7339L10.3156 14.7369H9.24731L11.1913 10.2312H12.1632L14.1072 14.7369H13.0389ZM11.6818 11.5744L11.116 12.8816H12.2415L11.6818 11.5744Z" fill="#B1D6FF"/>
<path d="M17.7784 10.2342H18.7834V14.7399H17.7784L15.6358 11.9178V14.7399H14.6307V10.2342H15.5696L17.7784 13.1346V10.2342Z" fill="#B1D6FF"/>
<path d="M19.8909 10.2342H20.8959V12.0834L22.5961 10.2342H23.8389L22.0485 12.225C22.2019 12.4388 22.4878 12.8394 22.9061 13.4267C23.3214 14.014 23.6343 14.4507 23.8389 14.7369H22.6684L21.3473 12.9599L20.8959 13.4629V14.7399H19.8909V10.2342Z" fill="#B1D6FF"/>
<path d="M28.1841 15.3784C29.6982 15.3784 30.9255 14.1499 30.9255 12.6346C30.9255 11.1193 29.6982 9.89083 28.1841 9.89083C26.6701 9.89083 25.4427 11.1193 25.4427 12.6346C25.4427 14.1499 26.6701 15.3784 28.1841 15.3784Z" fill="#CBE4FF"/>
<path d="M13.081 40.3675H125.183V39.4308H12.7981C12.7981 39.4308 13.081 40.0994 13.081 40.3675Z" fill="#F7F7F7"/>
<path d="M12.3317 64.0163H63.5001V63.0796H12.2023C12.2023 63.0796 12.3317 63.7483 12.3317 64.0163Z" fill="#F7F7F7"/>
<path d="M73.575 63.6127H125.171L126.597 62.5435H74.8719C74.8719 62.5435 73.575 63.4411 73.575 63.6127Z" fill="#F7F7F7"/>
<path d="M135.507 0.0752956C136.744 0.0752956 137.803 0.822228 138.267 1.88841C139.224 2.39139 139.88 3.39734 139.88 4.55388V7.34885H139.925V17.7878H139.88V77.9129C139.88 79.5754 138.532 80.9247 136.87 80.9247H4.4476C3.21082 80.9247 2.15158 80.1778 1.68816 79.1116C0.731236 78.6086 0.07523 77.6027 0.07523 76.4461V3.08712C0.07523 1.42459 1.42335 0.0752956 3.08443 0.0752956H135.507ZM135.507 0H3.08443C1.38423 0 0 1.38544 0 3.08712V76.4461C0 77.5876 0.622904 78.6267 1.62798 79.1658C2.12449 80.2802 3.22586 81 4.44459 81H136.87C138.571 81 139.955 79.6146 139.955 77.9129V17.8571C139.982 17.8451 140 17.818 140 17.7878V7.34885C140 7.31873 139.982 7.29163 139.955 7.27958V4.55388C139.955 3.4124 139.332 2.37332 138.327 1.8342C137.83 0.719826 136.729 0 135.51 0H135.507Z" fill="#007AFF"/>
</svg>
