<svg width="79" height="78" viewBox="0 0 79 78" fill="none" xmlns="http://www.w3.org/2000/svg">
<g clip-path="url(#clip0_1649_40633)">
<path d="M7.40001 12.23L7.10001 77.42H78.21L78.51 10.45L7.40001 12.23Z" fill="#E0EFFC"/>
<path d="M4.83999 15.34L4.39999 71.05L70.18 71.49L70.03 15.94L4.83999 15.34Z" fill="white"/>
<path d="M72.06 0.51L0.509995 1.84V72.81L73.25 73.25L72.06 0.51ZM2.43999 70.29L3.91999 14.73L68.81 15.32L69.55 70.13L2.43999 70.28V70.29Z" fill="#F6F6F6"/>
<path d="M64.21 10.73C65.9276 10.73 67.32 9.33761 67.32 7.62C67.32 5.90239 65.9276 4.51 64.21 4.51C62.4924 4.51 61.1 5.90239 61.1 7.62C61.1 9.33761 62.4924 10.73 64.21 10.73Z" fill="#B1D6FF"/>
<path d="M54.51 10.95C56.2276 10.95 57.62 9.55761 57.62 7.84C57.62 6.12239 56.2276 4.73 54.51 4.73C52.7924 4.73 51.4 6.12239 51.4 7.84C51.4 9.55761 52.7924 10.95 54.51 10.95Z" fill="#CBE4FF"/>
<path d="M2.44 70.29L3.92 14.73L6.44 16.66L5.55 70.29H2.44Z" fill="#D7DBDB"/>
<path d="M72.06 0.51L74.25 3.03L75.25 74.69L73.25 73.25L72.06 0.51Z" fill="#D7DBDB"/>
<path d="M0.509995 72.81L73.25 73.25L75.25 74.69L3.13999 74.03L0.509995 72.81Z" fill="#CECECE"/>
<path d="M6.44 16.66L68.81 17.14V15.32L3.92 14.73L6.44 16.66Z" fill="#CECECE"/>
<path d="M4.95 5.1L4.81 10.58L47.77 10.44L47.32 4.51L4.95 5.1Z" fill="white"/>
<path d="M71.81 0.25L74 2.77L75 74.44L2.89 73.77L0.26 72.55V1.58L71.81 0.25ZM71.81 0L0.25 1.33C0.11 1.33 0 1.44 0 1.58V72.55C0 72.65 0.06 72.74 0.14 72.78L2.77 74C2.77 74 2.84 74.02 2.87 74.02L74.98 74.69C75.05 74.69 75.11 74.66 75.16 74.62C75.21 74.57 75.23 74.51 75.23 74.44L74.23 2.77C74.23 2.71 74.21 2.65 74.17 2.61L71.99 0.09C71.94 0.04 71.87 0 71.8 0H71.81Z" fill="#007AFF"/>
<path d="M29.7643 48.1619L29.4829 47.7366C29.236 47.3635 28.7335 47.2611 28.3604 47.508L18.8863 53.7763C18.5133 54.0232 18.4109 54.5257 18.6578 54.8988L18.9392 55.3241C19.186 55.6972 19.6886 55.7996 20.0617 55.5527L29.5357 49.2844C29.9088 49.0375 30.0111 48.535 29.7643 48.1619Z" fill="#009B6B"/>
<path d="M23.65 44.08L30.3 54.47C30.3 54.47 37.41 51.77 44.75 47.24C51.71 42.95 61.03 31.35 58.71 28C56.54 24.87 45.08 27.23 35.59 33.73C29.78 37.71 23.65 44.08 23.65 44.08Z" fill="#00C48C"/>
<path d="M23.65 44.08C23.65 44.08 19.98 42.4 18.97 42.73C17.96 43.06 15.02 46.01 14.56 45.98C14.1 45.95 13.15 44.35 13.21 43.43C13.27 42.51 17.22 36.89 20.18 36.48C23.14 36.08 30.05 39.63 30.05 39.63L23.66 44.08H23.65Z" fill="#00C48C"/>
<path d="M30.31 54.14C30.31 54.14 30.42 58.18 29.73 58.97C29.04 59.76 25.17 61.32 25.01 61.76C24.85 62.2 25.95 63.69 26.83 64C27.71 64.31 34.42 62.87 35.95 60.3C37.48 57.73 36.91 49.99 36.91 49.99L30.31 54.13V54.14Z" fill="#00C48C"/>
<path d="M29.3605 47.6624L29.0791 47.2371C28.8323 46.864 28.3297 46.7617 27.9566 47.0085L18.4826 53.2768C18.1095 53.5237 18.0072 54.0262 18.254 54.3993L18.5354 54.8247C18.7823 55.1977 19.2848 55.3001 19.6579 55.0532L29.132 48.7849C29.505 48.538 29.6074 48.0355 29.3605 47.6624Z" fill="#00C48C"/>
<path d="M42.72 43.21C45.2163 43.21 47.24 41.1863 47.24 38.69C47.24 36.1937 45.2163 34.17 42.72 34.17C40.2237 34.17 38.2 36.1937 38.2 38.69C38.2 41.1863 40.2237 43.21 42.72 43.21Z" fill="#009B6B"/>
<path d="M42.61 41.59C44.1951 41.59 45.48 40.3051 45.48 38.72C45.48 37.1349 44.1951 35.85 42.61 35.85C41.025 35.85 39.74 37.1349 39.74 38.72C39.74 40.3051 41.025 41.59 42.61 41.59Z" fill="#11968F"/>
<path opacity="0.38" d="M28.89 39.06C28.89 39.06 31.54 47.09 37 51.49C37 51.49 30.27 48.38 28.89 39.06Z" fill="#38E8B1"/>
<path opacity="0.38" d="M47.65 27.92C47.65 27.92 49.69 35.04 54.66 38.68C54.66 38.68 48.4 36.28 47.65 27.92Z" fill="#38E8B1"/>
<path d="M58.07 27.52L62.61 25.17L58.76 28.45C58.76 28.45 58.18 27.99 58.07 27.52Z" fill="#009B6B"/>
<path opacity="0.38" d="M23.85 43.7L28.34 39.66C28.34 39.66 25.34 40.42 23.85 43.7Z" fill="#38E8B1"/>
<path opacity="0.38" d="M30.91 54.22L36.28 51.82C36.28 51.82 34.31 54.28 30.91 54.22Z" fill="#38E8B1"/>
<path opacity="0.38" d="M25.8 46.21L29.06 44.16C29.06 44.16 26.8 44.14 25.8 46.21Z" fill="#38E8B1"/>
<path opacity="0.38" d="M29.02 51.18L31.91 49.14C31.91 49.14 30.83 51.28 29.02 51.18Z" fill="#38E8B1"/>
<path d="M42.44 42.65C44.9363 42.65 46.96 40.6263 46.96 38.13C46.96 35.6337 44.9363 33.61 42.44 33.61C39.9437 33.61 37.92 35.6337 37.92 38.13C37.92 40.6263 39.9437 42.65 42.44 42.65Z" fill="#38E8B1"/>
<path d="M42.33 41.04C43.9151 41.04 45.2 39.7551 45.2 38.17C45.2 36.5849 43.9151 35.3 42.33 35.3C40.7449 35.3 39.46 36.5849 39.46 38.17C39.46 39.7551 40.7449 41.04 42.33 41.04Z" fill="white"/>
<path d="M45.2 66.3L62.36 54.74C62.36 54.74 52.91 64.19 45.2 66.3Z" fill="#CBE4FF"/>
<path d="M30.29 22.71L10.4 35.17C10.4 35.17 19.51 25.93 30.29 22.71Z" fill="#CBE4FF"/>
<path d="M48.84 52.6L64.06 43.04C64.06 43.04 57.17 50.26 48.84 52.6Z" fill="#CBE4FF"/>
<path d="M33.73 27.82L44.95 20.93C44.95 20.93 37.28 23.37 33.73 27.82Z" fill="#CBE4FF"/>
<path d="M19.24 59.43L7.89 66.11C7.89 66.11 15.6 63.81 19.24 59.43Z" fill="#CBE4FF"/>
<path d="M8.95 26.55L20.17 19.66C20.17 19.66 12.5 22.1 8.95 26.55Z" fill="#CBE4FF"/>
</g>
<defs>
<clipPath id="clip0_1649_40633">
<rect width="78.51" height="77.42" fill="white"/>
</clipPath>
</defs>
</svg>
