<svg width="79" height="78" viewBox="0 0 79 78" fill="none" xmlns="http://www.w3.org/2000/svg">
<g clip-path="url(#clip0_1649_40620)">
<path d="M7.32 12.08L7.03 77.27H78.14L78.44 10.31L7.32 12.08Z" fill="#E0EFFC"/>
<path d="M1.86001 12.9L1.32001 71.79H71.32L69.95 13.22L1.86001 12.9Z" fill="white"/>
<path d="M71.99 0.360001L0.440002 1.69V72.66L73.18 73.1L71.99 0.360001ZM2.36 70.14L3.84 14.58L68.73 15.17L69.47 69.98L2.36 70.13V70.14Z" fill="#F6F6F6"/>
<path d="M64.14 10.58C65.8576 10.58 67.25 9.18761 67.25 7.47C67.25 5.75239 65.8576 4.36 64.14 4.36C62.4224 4.36 61.03 5.75239 61.03 7.47C61.03 9.18761 62.4224 10.58 64.14 10.58Z" fill="#B1D6FF"/>
<path d="M54.44 10.8C56.1576 10.8 57.55 9.40761 57.55 7.69C57.55 5.9724 56.1576 4.58 54.44 4.58C52.7224 4.58 51.33 5.9724 51.33 7.69C51.33 9.40761 52.7224 10.8 54.44 10.8Z" fill="#CBE4FF"/>
<path d="M2.36 70.14L3.84 14.58L6.36 16.51L5.47 70.14H2.36Z" fill="#D7DBDB"/>
<path d="M71.99 0.360001L74.18 2.88L75.18 74.55L73.18 73.1L71.99 0.360001Z" fill="#D7DBDB"/>
<path d="M0.440002 72.66L73.18 73.1L75.18 74.55L3.06 73.88L0.440002 72.66Z" fill="#CECECE"/>
<path d="M6.36 16.51L68.73 16.99V15.18L3.84 14.58L6.36 16.51Z" fill="#CECECE"/>
<path d="M4.88 4.95L4.73 10.44L47.69 10.29L47.25 4.36L4.88 4.95Z" fill="white"/>
<path d="M29.58 29.65H21.71V56.23H29.58V29.65Z" fill="#00A06E"/>
<path d="M39.58 46.69V39.19H11.71V46.69H39.58Z" fill="#00A06E"/>
<path d="M29.57 29.65L27.87 27.94L25.93 29.34L23.63 40.76L10 44.98L11.7 46.69C11.7 46.69 22.44 45.27 22.71 45.18C22.98 45.09 20.01 54.52 20.01 54.52L21.71 56.23L25.11 53.19L34.41 40.3L39.58 39.19L37.88 37.48L27.32 40.02L29.57 29.65Z" fill="#00A06E"/>
<path d="M27.88 27.94H20.01V54.52H27.88V27.94Z" fill="#00C48C"/>
<path d="M37.88 44.99V37.49H10.01V44.99H37.88Z" fill="#00C48C"/>
<path d="M71.81 0.25L74 2.77L75 74.44L2.89 73.77L0.26 72.55V1.58L71.81 0.25ZM71.81 0L0.25 1.33C0.11 1.33 0 1.44 0 1.58V72.55C0 72.65 0.06 72.74 0.14 72.78L2.77 74C2.77 74 2.84 74.02 2.87 74.02L74.98 74.69C75.05 74.69 75.11 74.66 75.16 74.62C75.21 74.57 75.23 74.51 75.23 74.44L74.23 2.77C74.23 2.71 74.21 2.65 74.17 2.61L71.99 0.09C71.94 0.04 71.87 0 71.8 0H71.81Z" fill="#B1D6FF"/>
<path d="M43.9 28.45H64.66V33.27L43.47 33.11L43.9 28.45Z" fill="#CBE4FF"/>
<path d="M44.32 38.75V44.08L64.09 43.66V39.18L44.32 38.75Z" fill="#CBE4FF"/>
<path d="M43.75 50.75L63.81 50.45L63.95 55.49L43.61 54.9L43.75 50.75Z" fill="#CBE4FF"/>
<path d="M71.95 0.25L74.14 2.77L75.14 74.44L3.03 73.77L0.399999 72.55V1.58L71.95 0.25ZM71.95 0L0.389999 1.33C0.249999 1.33 0.139999 1.44 0.139999 1.58V72.55C0.139999 72.65 0.199999 72.74 0.279999 72.78L2.91 74C2.91 74 2.98 74.02 3.01 74.02L75.12 74.69C75.19 74.69 75.25 74.66 75.3 74.62C75.35 74.57 75.37 74.51 75.37 74.44L74.37 2.77C74.37 2.71 74.35 2.65 74.31 2.61L72.14 0.09C72.09 0.04 72.02 0 71.95 0Z" fill="#007AFF"/>
</g>
<defs>
<clipPath id="clip0_1649_40620">
<rect width="78.44" height="77.27" fill="white"/>
</clipPath>
</defs>
</svg>
