<svg width="182" height="182" viewBox="0 0 182 182" fill="none" xmlns="http://www.w3.org/2000/svg">
<circle cx="90.9084" cy="90.9084" r="90.9084" fill="#007AFF"/>
<g clip-path="url(#clip0_1741_60417)">
<path d="M58.9983 130.95C45.8333 130.95 35.125 120.241 35.125 107.076C35.125 93.9115 45.8333 83.2031 58.9983 83.2031C72.1633 83.2031 82.8716 93.9115 82.8716 107.076C82.8716 120.241 72.1633 130.95 58.9983 130.95ZM58.9983 85.9904C47.3766 85.9904 37.9281 95.439 37.9281 107.061C37.9281 118.682 47.3766 128.131 58.9983 128.131C70.62 128.131 80.0686 118.682 80.0686 107.061C80.0686 95.439 70.62 85.9904 58.9983 85.9904Z" fill="#97C9FF"/>
<path d="M121.971 130.95C108.806 130.95 98.0977 120.241 98.0977 107.076C98.0977 93.9115 108.806 83.2031 121.971 83.2031C135.136 83.2031 145.844 93.9115 145.844 107.076C145.844 120.241 135.136 130.95 121.971 130.95ZM121.971 85.9904C110.349 85.9904 100.901 95.439 100.901 107.061C100.901 118.682 110.349 128.131 121.971 128.131C133.593 128.131 143.041 118.682 143.041 107.061C143.041 95.439 133.593 85.9904 121.971 85.9904Z" fill="#97C9FF"/>
<path d="M58.5252 107.675L55.7852 107.14L67.6746 47.5195L77.9735 48.2912L77.7688 51.0785L69.9422 50.4958L58.5252 107.675Z" fill="white"/>
<path d="M120.424 65.511L119.93 107.759L122.733 107.792L123.227 65.5437L120.424 65.511Z" fill="white"/>
<path d="M64.8445 67.965L64.6562 70.7617L121.518 74.5883L121.706 71.7916L64.8445 67.965Z" fill="white"/>
<path d="M65.6345 69.0584L64.0898 71.3975L120.398 108.582L121.943 106.243L65.6345 69.0584Z" fill="white"/>
<path d="M55.6289 63.5344L56.2588 71.3766C56.2588 71.3766 62.6366 71.7861 63.6917 69.6602C66.2428 64.5107 61.9909 61.4084 55.6289 63.5344Z" fill="white"/>
<path d="M121.973 112.006C124.478 112.006 126.508 109.976 126.508 107.471C126.508 104.966 124.478 102.936 121.973 102.936C119.468 102.936 117.438 104.966 117.438 107.471C117.438 109.976 119.468 112.006 121.973 112.006Z" fill="white"/>
<path d="M57.0626 112.4C59.5674 112.4 61.5979 110.369 61.5979 107.864C61.5979 105.36 59.5674 103.329 57.0626 103.329C54.5579 103.329 52.5273 105.36 52.5273 107.864C52.5273 110.369 54.5579 112.4 57.0626 112.4Z" fill="white"/>
<path d="M109.454 60.1803C109.454 60.1803 108.95 63.5346 109.958 64.7314C110.966 65.9282 131.359 67.377 132.871 66.1644C134.383 64.9518 133.123 60.6527 129.595 58.7315C126.068 56.8103 109.706 59.204 109.454 60.1646V60.1803Z" fill="#97C9FF"/>
<path d="M80.1619 89.4872C65.5797 72.7633 46.3676 82.1646 45.5645 82.574L44.3047 80.0702C44.5252 79.96 66.2411 69.2516 82.2878 87.629L80.1776 89.4715L80.1619 89.4872Z" fill="white"/>
<path opacity="0.5" d="M39.9922 130.509L145.816 130.934C145.816 130.934 81.1406 137.233 39.9922 130.509Z" fill="white"/>
</g>
<defs>
<clipPath id="clip0_1741_60417">
<rect width="110.737" height="86.0919" fill="white" transform="translate(35.125 47.5195)"/>
</clipPath>
</defs>
</svg>
