<svg width="56" height="56" viewBox="0 0 56 56" fill="none" xmlns="http://www.w3.org/2000/svg">
<g clip-path="url(#clip0_1649_40645)">
<path d="M27.5 5.8204e-08C12.19 0.0200001 0.0799856 12.23 -1.44473e-05 27.54C-0.0700144 42.66 12.51 55.19 27.62 55.04C42.92 54.89 54.9 42.74 55.07 27.49C54.87 12.15 42.77 -0.0199999 27.5 5.8204e-08ZM27.78 50.41C15.19 50.53 4.69999 40.09 4.76999 27.49C4.82999 14.74 14.93 4.56 27.68 4.55C40.41 4.54 50.49 14.67 50.65 27.45C50.51 40.16 40.53 50.29 27.78 50.41Z" fill="#007AFF"/>
<path d="M11.88 29.56L13.52 24.25H15.67L17.3 29.56L19.14 24.25H21.37L18.15 33.48H16.62L14.6 27.06L12.59 33.48H11.06L7.84003 24.25H10.07L11.89 29.56H11.88Z" fill="#007AFF"/>
<path d="M25.34 29.56L26.98 24.25H29.13L30.76 29.56L32.6 24.25H34.8301L31.6101 33.48H30.08L28.06 27.06L26.05 33.48H24.5201L21.3 24.25H23.5301L25.35 29.56H25.34Z" fill="#007AFF"/>
<path d="M38.8 29.56L40.44 24.25H42.59L44.22 29.56L46.06 24.25H48.29L45.07 33.48H43.54L41.52 27.06L39.51 33.48H37.98L34.76 24.25H36.99L38.81 29.56H38.8Z" fill="#007AFF"/>
</g>
<defs>
<clipPath id="clip0_1649_40645">
<rect width="55.07" height="55.04" fill="white"/>
</clipPath>
</defs>
</svg>
