<svg width="79" height="78" viewBox="0 0 79 78" fill="none" xmlns="http://www.w3.org/2000/svg">
<g clip-path="url(#clip0_1649_40637)">
<path d="M7.14 12.23L6.84 77.42H77.95L78.25 10.45L7.14 12.23Z" fill="#E0EFFC"/>
<path d="M4.83999 15.34L4.39999 71.05L70.18 71.49L70.03 15.94L4.83999 15.34Z" fill="#E0EFFC"/>
<path d="M72.06 0.51001L0.51001 1.84001V72.81L73.25 73.25L72.06 0.51001ZM2.44001 70.29L3.92001 14.73L68.81 15.32L69.55 70.13L2.44001 70.28V70.29Z" fill="#F6F6F6"/>
<path d="M64.21 10.73C65.9276 10.73 67.32 9.33762 67.32 7.62001C67.32 5.9024 65.9276 4.51001 64.21 4.51001C62.4924 4.51001 61.1 5.9024 61.1 7.62001C61.1 9.33762 62.4924 10.73 64.21 10.73Z" fill="#B1D6FF"/>
<path d="M54.51 10.95C56.2276 10.95 57.62 9.55762 57.62 7.84001C57.62 6.12241 56.2276 4.73001 54.51 4.73001C52.7924 4.73001 51.4 6.12241 51.4 7.84001C51.4 9.55762 52.7924 10.95 54.51 10.95Z" fill="#CBE4FF"/>
<path d="M2.44 70.29L3.92 14.73L6.44 16.66L5.55 70.29H2.44Z" fill="#D7DBDB"/>
<path d="M72.06 0.51001L74.25 3.03001L75.25 74.69L73.25 73.25L72.06 0.51001Z" fill="#D7DBDB"/>
<path d="M0.51001 72.81L73.25 73.25L75.25 74.69L3.14001 74.03L0.51001 72.81Z" fill="#CECECE"/>
<path d="M6.44001 16.66L68.81 17.14V15.32L3.92001 14.73L6.44001 16.66Z" fill="#CECECE"/>
<path d="M4.95 5.10001L4.81 10.58L47.77 10.44L47.32 4.51001L4.95 5.10001Z" fill="white"/>
<path d="M71.81 0.25L74 2.77L75 74.44L2.89 73.77L0.26 72.55V1.58L71.81 0.25ZM71.81 0L0.25 1.33C0.11 1.33 0 1.44 0 1.58V72.55C0 72.65 0.06 72.74 0.14 72.78L2.77 74C2.77 74 2.84 74.02 2.87 74.02L74.98 74.69C75.05 74.69 75.11 74.66 75.16 74.62C75.21 74.57 75.23 74.51 75.23 74.44L74.23 2.77C74.23 2.71 74.21 2.65 74.17 2.61L71.99 0.09C71.94 0.04 71.87 0 71.8 0H71.81Z" fill="#007AFF"/>
<path d="M64.31 65.14L48.63 55.42L41.43 67.03C41.43 67.03 34.29 56.12 34.23 56.37C34.17 56.62 16.79 64.82 16.79 64.82L20.9 51.89L5.92001 49.61L18.47 43.14L10.56 32.47H23.36L18.49 18.87L34.47 28.92L44.52 20.74L46.71 31.48L60.39 24.75L56.11 36.79L66.41 39.07L57.34 45.03L68.36 52.2L58.44 55.03L64.31 65.15V65.14Z" fill="white"/>
<path d="M45.85 33.53V30.42H31.73V33.53H21.81V55.82H55.77V33.53H45.85ZM32.53 31.22H45.06V33.53H32.53V31.22Z" fill="#00C48C"/>
</g>
<defs>
<clipPath id="clip0_1649_40637">
<rect width="78.25" height="77.42" fill="white"/>
</clipPath>
</defs>
</svg>
