<svg width="79" height="78" viewBox="0 0 79 78" fill="none" xmlns="http://www.w3.org/2000/svg">
<g clip-path="url(#clip0_1649_40635)">
<path d="M7.14 12.23L6.84 77.42H77.95L78.25 10.45L7.14 12.23Z" fill="#E0EFFC"/>
<path d="M4.83999 15.34L4.39999 71.05L70.18 71.49L70.03 15.94L4.83999 15.34Z" fill="#E0EFFC"/>
<path d="M72.06 0.51L0.51001 1.84V72.81L73.25 73.25L72.06 0.51ZM2.44001 70.29L3.92001 14.73L68.81 15.32L69.55 70.13L2.44001 70.28V70.29Z" fill="#F6F6F6"/>
<path d="M64.21 10.73C65.9276 10.73 67.32 9.33761 67.32 7.62C67.32 5.90239 65.9276 4.51 64.21 4.51C62.4924 4.51 61.1 5.90239 61.1 7.62C61.1 9.33761 62.4924 10.73 64.21 10.73Z" fill="#B1D6FF"/>
<path d="M54.51 10.95C56.2276 10.95 57.62 9.55761 57.62 7.84C57.62 6.12239 56.2276 4.73 54.51 4.73C52.7924 4.73 51.4 6.12239 51.4 7.84C51.4 9.55761 52.7924 10.95 54.51 10.95Z" fill="#CBE4FF"/>
<path d="M2.44 70.29L3.92 14.73L6.44 16.66L5.55 70.29H2.44Z" fill="#D7DBDB"/>
<path d="M72.06 0.51L74.25 3.03L75.25 74.69L73.25 73.25L72.06 0.51Z" fill="#D7DBDB"/>
<path d="M0.51001 72.81L73.25 73.25L75.25 74.69L3.14001 74.03L0.51001 72.81Z" fill="#CECECE"/>
<path d="M6.44001 16.66L68.81 17.14V15.32L3.92001 14.73L6.44001 16.66Z" fill="#CECECE"/>
<path d="M4.95 5.1L4.81 10.58L47.77 10.44L47.32 4.51L4.95 5.1Z" fill="white"/>
<path d="M71.81 0.25L74 2.77L75 74.44L2.89 73.77L0.26 72.55V1.58L71.81 0.25ZM71.81 0L0.25 1.33C0.11 1.33 0 1.44 0 1.58V72.55C0 72.65 0.06 72.74 0.14 72.78L2.77 74C2.77 74 2.84 74.02 2.87 74.02L74.98 74.69C75.05 74.69 75.11 74.66 75.16 74.62C75.21 74.57 75.23 74.51 75.23 74.44L74.23 2.77C74.23 2.71 74.21 2.65 74.17 2.61L71.99 0.09C71.94 0.04 71.87 0 71.8 0H71.81Z" fill="#007AFF"/>
<path d="M39.36 20.9L30.76 46.37L34.9 46.69L43.34 21.38L39.36 20.9Z" fill="#00C48C"/>
<path d="M26.78 23.45L12.21 30.61V34.07L26.18 42.19V38.01L16.39 32.52L26.78 27.51V23.45Z" fill="#00C48C"/>
<path d="M47.42 24.44L61.99 31.61V35.07L48.02 43.19V39.01L57.81 33.52L47.42 28.5V24.44Z" fill="#00C48C"/>
<path d="M9.25 49.69L28.21 49.42L28.51 53.9L9.25 53.63V49.69Z" fill="white"/>
<path d="M32.36 49.82L32.51 53.36L54.14 54.04V49.82H32.36Z" fill="white"/>
<path d="M58.29 50.23H67.03V53.9L58.73 53.49L58.29 50.23Z" fill="white"/>
<path d="M41.25 56.75L66.88 56.62L66.73 60.83L40.95 59.47L41.25 56.75Z" fill="white"/>
<path d="M9.54999 56.62L36.36 56.48V59.61L9.39999 59.33L9.54999 56.62Z" fill="white"/>
<path d="M9.47 62.25L28.44 61.98L28.73 66.47L9.47 66.19V62.25Z" fill="white"/>
<path d="M32.58 62.39L32.73 65.92L54.36 66.6V62.39H32.58Z" fill="white"/>
<path d="M58.51 62.8H67.25V66.47L58.95 66.06L58.51 62.8Z" fill="white"/>
</g>
<defs>
<clipPath id="clip0_1649_40635">
<rect width="78.25" height="77.42" fill="white"/>
</clipPath>
</defs>
</svg>
