<svg width="79" height="78" viewBox="0 0 79 78" fill="none" xmlns="http://www.w3.org/2000/svg">
<g clip-path="url(#clip0_1649_40639)">
<path d="M7.14 12.23L6.84 77.42H77.95L78.25 10.45L7.14 12.23Z" fill="#E0EFFC"/>
<path d="M4.83999 15.34L4.39999 71.05L70.18 71.49L70.03 15.94L4.83999 15.34Z" fill="#E0EFFC"/>
<path d="M72.06 0.509995L0.509995 1.83999V72.81L73.25 73.25L72.06 0.509995ZM2.43999 70.29L3.91999 14.73L68.81 15.32L69.55 70.13L2.43999 70.28V70.29Z" fill="#F6F6F6"/>
<path d="M64.21 10.73C65.9276 10.73 67.32 9.3376 67.32 7.61999C67.32 5.90239 65.9276 4.50999 64.21 4.50999C62.4924 4.50999 61.1 5.90239 61.1 7.61999C61.1 9.3376 62.4924 10.73 64.21 10.73Z" fill="#B1D6FF"/>
<path d="M54.51 10.95C56.2276 10.95 57.62 9.5576 57.62 7.84C57.62 6.12239 56.2276 4.73 54.51 4.73C52.7924 4.73 51.4 6.12239 51.4 7.84C51.4 9.5576 52.7924 10.95 54.51 10.95Z" fill="#CBE4FF"/>
<path d="M2.44 70.29L3.92 14.73L6.44 16.66L5.55 70.29H2.44Z" fill="#D7DBDB"/>
<path d="M72.06 0.509995L74.25 3.02999L75.25 74.69L73.25 73.25L72.06 0.509995Z" fill="#D7DBDB"/>
<path d="M0.509995 72.81L73.25 73.25L75.25 74.69L3.13999 74.03L0.509995 72.81Z" fill="#CECECE"/>
<path d="M6.44 16.66L68.81 17.14V15.32L3.92 14.73L6.44 16.66Z" fill="#CECECE"/>
<path d="M4.95 5.09999L4.81 10.58L47.77 10.44L47.32 4.50999L4.95 5.09999Z" fill="white"/>
<path d="M71.81 0.25L74 2.77L75 74.44L2.89 73.77L0.26 72.55V1.58L71.81 0.25ZM71.81 0L0.25 1.33C0.11 1.33 0 1.44 0 1.58V72.55C0 72.65 0.06 72.74 0.14 72.78L2.77 74C2.77 74 2.84 74.02 2.87 74.02L74.98 74.69C75.05 74.69 75.11 74.66 75.16 74.62C75.21 74.57 75.23 74.51 75.23 74.44L74.23 2.77C74.23 2.71 74.21 2.65 74.17 2.61L71.99 0.09C71.94 0.04 71.87 0 71.8 0H71.81Z" fill="#007AFF"/>
<path d="M63.57 61.82L48.63 53.73L42.82 65.14C42.82 65.14 36.39 55.6 35.56 55.6C34.73 55.6 20.21 64.73 20.21 64.73L23.11 52.28L9.3 51.14L20 41.07L12.41 34.69L23.3 32.25L18.75 21.36L33.07 28.83L42.61 21.36L45.31 31.32L57.34 24.06L54.23 35.68L63.77 37.13L55.89 43.35L66.41 49.36L57.55 52.69L63.57 61.82Z" fill="white"/>
<path d="M47.77 45.15L9.82 45.87L9.64 32.8L15.09 32.98L15.45 40.79H19.08L19.26 32.98H24.35L25.07 40.79L47.95 40.24L47.77 45.15Z" fill="#00C48C"/>
<path d="M57.61 29.61C46.5 26.55 45.7 37.5 45.7 37.5C45.7 37.5 44.9 45.71 46.67 48.77C48.44 51.83 51.66 53.76 58.74 51.83C65.67 49.94 66.35 32.02 57.61 29.62V29.61ZM56.82 47.19C53.19 48.31 51.54 47.19 50.63 45.41C49.72 43.63 50.14 38.85 50.14 38.85C50.14 38.85 50.55 32.48 56.24 34.26C60.72 35.66 60.37 46.1 56.82 47.2V47.19Z" fill="#00C48C"/>
</g>
<defs>
<clipPath id="clip0_1649_40639">
<rect width="78.25" height="77.42" fill="white"/>
</clipPath>
</defs>
</svg>
