<svg width="79" height="78" viewBox="0 0 79 78" fill="none" xmlns="http://www.w3.org/2000/svg">
<g clip-path="url(#clip0_1649_40649)">
<path d="M7.32003 12.08L7.03003 77.27H78.14L78.44 10.31L7.32003 12.08Z" fill="#E0EFFC"/>
<path d="M1.85995 12.9L1.31995 71.79H71.3199L69.9499 13.22L1.85995 12.9Z" fill="white"/>
<path d="M71.9899 0.360001L0.439941 1.69V72.66L73.1799 73.1L71.9899 0.360001ZM2.35994 70.14L3.83994 14.58L68.7299 15.17L69.4699 69.98L2.35994 70.13V70.14Z" fill="#F6F6F6"/>
<path d="M64.14 10.58C65.8576 10.58 67.25 9.18761 67.25 7.47C67.25 5.75239 65.8576 4.36 64.14 4.36C62.4224 4.36 61.03 5.75239 61.03 7.47C61.03 9.18761 62.4224 10.58 64.14 10.58Z" fill="#B1D6FF"/>
<path d="M54.44 10.8C56.1576 10.8 57.55 9.40761 57.55 7.69C57.55 5.9724 56.1576 4.58 54.44 4.58C52.7223 4.58 51.33 5.9724 51.33 7.69C51.33 9.40761 52.7223 10.8 54.44 10.8Z" fill="#CBE4FF"/>
<path d="M2.35999 70.14L3.83999 14.58L6.35999 16.51L5.46999 70.14H2.35999Z" fill="#D7DBDB"/>
<path d="M71.99 0.360001L74.18 2.88L75.18 74.55L73.18 73.1L71.99 0.360001Z" fill="#D7DBDB"/>
<path d="M0.439941 72.66L73.1799 73.1L75.1799 74.55L3.05994 73.88L0.439941 72.66Z" fill="#CECECE"/>
<path d="M6.35997 16.51L68.73 16.99V15.18L3.83997 14.58L6.35997 16.51Z" fill="#CECECE"/>
<path d="M4.87998 4.95L4.72998 10.44L47.69 10.29L47.25 4.36L4.87998 4.95Z" fill="white"/>
<path d="M71.81 0.25L74 2.77L75 74.44L2.89 73.77L0.26 72.55V1.58L71.81 0.25ZM71.81 0L0.25 1.33C0.11 1.33 0 1.44 0 1.58V72.55C0 72.65 0.06 72.74 0.14 72.78L2.77 74C2.77 74 2.84 74.02 2.87 74.02L74.98 74.69C75.05 74.69 75.11 74.66 75.16 74.62C75.21 74.57 75.23 74.51 75.23 74.44L74.23 2.77C74.23 2.71 74.21 2.65 74.17 2.61L71.99 0.09C71.94 0.04 71.87 0 71.8 0H71.81Z" fill="#B1D6FF"/>
<path d="M71.95 0.25L74.14 2.77L75.14 74.44L3.03001 73.77L0.400015 72.55V1.58L71.95 0.25ZM71.95 0L0.390015 1.33C0.250015 1.33 0.140015 1.44 0.140015 1.58V72.55C0.140015 72.65 0.200015 72.74 0.280015 72.78L2.91001 74C2.91001 74 2.98001 74.02 3.01001 74.02L75.12 74.69C75.19 74.69 75.25 74.66 75.3 74.62C75.35 74.57 75.37 74.51 75.37 74.44L74.37 2.77C74.37 2.71 74.35 2.65 74.31 2.61L72.14 0.09C72.09 0.04 72.02 0 71.95 0Z" fill="#007AFF"/>
<path d="M6.35997 16.51L68.73 16.99L69.47 69.99L5.46997 70.14L6.35997 16.51Z" fill="white"/>
<path d="M12.45 27.54V55.83L62.38 56.28L62.5299 27.54H12.45Z" fill="#CBE4FF"/>
<path d="M13.34 29.02L61.49 29.17L61.34 32.57L13.49 31.83L13.34 29.02Z" fill="#E0EFFC"/>
<path d="M13.7899 33.91L60.8999 34.35V54.8L13.6399 54.5L13.7899 33.91Z" fill="#E0EFFC"/>
<path d="M15.08 38.69V42.54L38.19 42.39L38.05 38.39L15.08 38.69Z" fill="white"/>
<path d="M40.34 38.63L40.45 42.61H47.12V38.5L40.34 38.63Z" fill="white"/>
<path d="M49.6799 38.63L49.7899 42.48L56.5599 42.61L56.4499 38.5L49.6799 38.63Z" fill="white"/>
<path d="M12.45 55.83L15.56 57.28L63.9 57.39L62.38 56.28L12.45 55.83Z" fill="#B1D6FF"/>
<path d="M62.38 56.28L62.53 27.54L63.79 28.72L63.9 57.39L62.38 56.28Z" fill="#B1D6FF"/>
<path d="M17.5199 50.89C16.9399 50.89 16.5099 50.69 16.2199 50.3C15.9299 49.91 15.7899 49.38 15.7899 48.72C15.7899 48.06 15.9299 47.54 16.2199 47.14C16.5099 46.75 16.9399 46.55 17.5199 46.55C18.0999 46.55 18.5299 46.75 18.8199 47.14C19.1099 47.53 19.2499 48.06 19.2499 48.72C19.2499 49.38 19.1099 49.9 18.8199 50.3C18.5299 50.7 18.0999 50.89 17.5199 50.89ZM16.8999 47.71C16.7699 47.97 16.6999 48.3 16.6999 48.72C16.6999 49.14 16.7699 49.48 16.8999 49.73C17.0299 49.99 17.2399 50.11 17.5199 50.11C17.7999 50.11 18.0099 49.98 18.1399 49.73C18.2699 49.47 18.3399 49.14 18.3399 48.72C18.3399 48.3 18.2699 47.96 18.1399 47.71C18.0099 47.45 17.7999 47.33 17.5199 47.33C17.2399 47.33 17.0299 47.46 16.8999 47.71Z" fill="white"/>
<path d="M19.7799 46.65H21.4799V50.84H20.5799V47.44H19.7799V46.64V46.65Z" fill="white"/>
<path d="M25.6999 48.28C25.8099 48.13 25.8599 47.99 25.8599 47.84C25.8599 47.69 25.8099 47.58 25.7199 47.49C25.6299 47.4 25.5099 47.35 25.3699 47.35C25.1099 47.35 24.8599 47.54 24.6199 47.91L23.8699 47.47C24.0699 47.17 24.2799 46.94 24.5099 46.78C24.7399 46.62 25.0399 46.55 25.3999 46.55C25.7599 46.55 26.0799 46.67 26.3499 46.89C26.6199 47.12 26.7599 47.43 26.7599 47.83C26.7599 48.05 26.7099 48.25 26.5899 48.45C26.4799 48.65 26.2799 48.9 25.9799 49.21L25.2199 50H26.8799V50.84H23.9199V50.14L25.1499 48.88C25.3999 48.63 25.5699 48.43 25.6799 48.28H25.6999Z" fill="white"/>
<path d="M27.6699 47.44V46.64H30.2399V47.29L29.3799 48.27C29.7199 48.33 29.9799 48.47 30.1599 48.69C30.3399 48.92 30.4399 49.18 30.4399 49.47C30.4399 49.91 30.2899 50.26 29.9899 50.51C29.6899 50.76 29.3099 50.89 28.8499 50.89C28.3899 50.89 27.9199 50.73 27.4399 50.4L27.8199 49.66C28.2199 49.94 28.5699 50.08 28.8799 50.08C29.0699 50.08 29.2199 50.03 29.3399 49.94C29.4599 49.85 29.5199 49.72 29.5199 49.54C29.5199 49.36 29.4499 49.23 29.3099 49.13C29.1699 49.03 28.9799 48.98 28.7299 48.98C28.5999 48.98 28.4099 49.02 28.1699 49.09V48.4L28.9699 47.45H27.6599L27.6699 47.44Z" fill="white"/>
<path d="M34.2599 49.03V48.3H35.1599V49.03H35.6299V49.84H35.1599V50.84H34.2599V49.84H32.5699V49.13L34.0599 46.65H35.0799L33.6599 49.03H34.2499H34.2599Z" fill="white"/>
<path d="M38.9199 46.65V47.46H37.2599V48.16C37.3799 48.12 37.5299 48.11 37.6899 48.11C38.0899 48.11 38.4399 48.23 38.7299 48.48C39.0199 48.73 39.1699 49.05 39.1699 49.47C39.1699 49.89 39.0199 50.23 38.7199 50.5C38.4199 50.77 38.0499 50.91 37.5999 50.91C37.0299 50.91 36.5599 50.7 36.1799 50.28L36.6699 49.6C36.6699 49.6 36.7499 49.68 36.8099 49.73C36.8699 49.78 36.9799 49.85 37.1399 49.94C37.2999 50.03 37.4599 50.07 37.6199 50.07C37.7799 50.07 37.9199 50.02 38.0499 49.93C38.1699 49.83 38.2399 49.69 38.2399 49.5C38.2399 49.31 38.1699 49.17 38.0399 49.07C37.9099 48.97 37.7299 48.92 37.5199 48.92C37.3099 48.92 37.0599 49 36.7799 49.15L36.3899 48.73V46.68H38.9199V46.65Z" fill="white"/>
<path d="M41.5799 47.35C41.3199 47.35 41.1199 47.44 40.9799 47.61C40.8399 47.78 40.7499 48.02 40.7199 48.32C40.9799 48.15 41.2599 48.07 41.5499 48.07C41.9399 48.07 42.2699 48.2 42.5299 48.45C42.7899 48.71 42.9199 49.05 42.9199 49.47C42.9199 49.89 42.7799 50.24 42.4999 50.49C42.2199 50.74 41.8599 50.87 41.4299 50.87C41.1299 50.87 40.8799 50.81 40.6599 50.7C40.4399 50.59 40.2699 50.43 40.1499 50.22C39.9099 49.82 39.7899 49.33 39.7899 48.73C39.7899 48.35 39.8399 48.01 39.9299 47.72C40.0199 47.43 40.1499 47.2 40.3199 47.03C40.6399 46.69 41.0399 46.53 41.5099 46.53C41.7099 46.53 41.8899 46.56 42.0699 46.62C42.2499 46.68 42.3799 46.74 42.4799 46.8C42.5799 46.86 42.6799 46.94 42.7999 47.03L42.3599 47.69C42.3599 47.69 42.2999 47.63 42.2499 47.59C42.1999 47.55 42.1099 47.5 41.9799 47.43C41.8399 47.37 41.7099 47.33 41.5799 47.33V47.35ZM41.4599 48.86C41.2699 48.86 41.1199 48.91 40.9899 49.03C40.8599 49.14 40.7999 49.28 40.7999 49.46C40.7999 49.64 40.8599 49.79 40.9799 49.91C41.0999 50.04 41.2499 50.1 41.4299 50.1C41.6099 50.1 41.7599 50.04 41.8799 49.93C41.9999 49.82 42.0599 49.67 42.0599 49.5C42.0599 49.33 42.0099 49.17 41.8999 49.05C41.7899 48.93 41.6399 48.87 41.4599 48.87V48.86Z" fill="white"/>
<path opacity="0.3" d="M38.6 66.46C51.4461 66.46 61.86 65.6317 61.86 64.61C61.86 63.5883 51.4461 62.76 38.6 62.76C25.7538 62.76 15.34 63.5883 15.34 64.61C15.34 65.6317 25.7538 66.46 38.6 66.46Z" fill="#CBE4FF"/>
</g>
<defs>
<clipPath id="clip0_1649_40649">
<rect width="78.44" height="77.27" fill="white"/>
</clipPath>
</defs>
</svg>
