<svg width="79" height="78" viewBox="0 0 79 78" fill="none" xmlns="http://www.w3.org/2000/svg">
<g clip-path="url(#clip0_1649_40636)">
<path d="M7.14 12.23L6.84 77.42H77.95L78.25 10.45L7.14 12.23Z" fill="#E0EFFC"/>
<path d="M4.83999 15.34L4.39999 71.05L70.18 71.49L70.03 15.94L4.83999 15.34Z" fill="#E0EFFC"/>
<path d="M72.06 0.509995L0.51001 1.83999V72.81L73.25 73.25L72.06 0.509995ZM2.44001 70.29L3.92001 14.73L68.81 15.32L69.55 70.13L2.44001 70.28V70.29Z" fill="#F6F6F6"/>
<path d="M64.21 10.73C65.9276 10.73 67.32 9.3376 67.32 7.61999C67.32 5.90239 65.9276 4.50999 64.21 4.50999C62.4924 4.50999 61.1 5.90239 61.1 7.61999C61.1 9.3376 62.4924 10.73 64.21 10.73Z" fill="#B1D6FF"/>
<path d="M54.51 10.95C56.2276 10.95 57.62 9.5576 57.62 7.84C57.62 6.12239 56.2276 4.73 54.51 4.73C52.7924 4.73 51.4 6.12239 51.4 7.84C51.4 9.5576 52.7924 10.95 54.51 10.95Z" fill="#CBE4FF"/>
<path d="M2.44 70.29L3.92 14.73L6.44 16.66L5.55 70.29H2.44Z" fill="#D7DBDB"/>
<path d="M72.06 0.509995L74.25 3.02999L75.25 74.69L73.25 73.25L72.06 0.509995Z" fill="#D7DBDB"/>
<path d="M0.51001 72.81L73.25 73.25L75.25 74.69L3.14001 74.03L0.51001 72.81Z" fill="#CECECE"/>
<path d="M6.44001 16.66L68.81 17.14V15.32L3.92001 14.73L6.44001 16.66Z" fill="#CECECE"/>
<path d="M4.95 5.09999L4.81 10.58L47.77 10.44L47.32 4.50999L4.95 5.09999Z" fill="white"/>
<path d="M71.81 0.25L74 2.77L75 74.44L2.89 73.77L0.26 72.55V1.58L71.81 0.25ZM71.81 0L0.25 1.33C0.11 1.33 0 1.44 0 1.58V72.55C0 72.65 0.06 72.74 0.14 72.78L2.77 74C2.77 74 2.84 74.02 2.87 74.02L74.98 74.69C75.05 74.69 75.11 74.66 75.16 74.62C75.21 74.57 75.23 74.51 75.23 74.44L74.23 2.77C74.23 2.71 74.21 2.65 74.17 2.61L71.99 0.09C71.94 0.04 71.87 0 71.8 0H71.81Z" fill="#007AFF"/>
<path d="M36.92 64.7C48.9598 64.7 58.72 54.9398 58.72 42.9C58.72 30.8602 48.9598 21.1 36.92 21.1C24.8802 21.1 15.12 30.8602 15.12 42.9C15.12 54.9398 24.8802 64.7 36.92 64.7Z" fill="white"/>
<path d="M58.53 42.87C58.4 54.85 48.99 64.39 36.98 64.5C25.12 64.62 15.24 54.78 15.3 42.91C15.36 30.89 24.87 21.3 36.89 21.29C48.88 21.28 58.38 30.83 58.54 42.87H58.53ZM36.9 63.58C48.31 63.58 57.63 54.28 57.61 42.89C57.59 31.41 48.32 22.36 37.24 22.18C25.83 22 16.23 31.2 16.2 42.87C16.17 54.25 25.5 63.57 36.9 63.57V63.58Z" fill="#00C48C"/>
<path d="M39.54 34.25C40.21 34.19 40.83 34.14 41.44 34.06C42.06 33.98 42.35 33.66 42.31 33.16C42.27 32.65 41.92 32.4 41.29 32.45C38.13 32.71 34.96 32.71 31.8 32.45C31.2 32.4 30.83 32.67 30.78 33.18C30.73 33.64 31.04 33.98 31.61 34.06C32.08 34.13 32.55 34.18 33.02 34.2C33.31 34.22 33.47 34.32 33.57 34.61C34.43 36.99 35.3 39.37 36.15 41.75C36.23 41.97 36.24 42.26 36.16 42.48C34.92 46.23 33.67 49.98 32.42 53.72C32.39 53.82 32.34 53.91 32.26 54.1L25.59 34.25C26.28 34.18 26.89 34.13 27.5 34.05C28.11 33.97 28.41 33.63 28.36 33.14C28.31 32.65 27.94 32.41 27.32 32.44C25.61 32.52 23.9 32.59 22.19 32.67C22 32.67 21.8 32.67 21.57 32.67C23.17 29.69 27.68 25.8 33.23 24.72C39.45 23.51 45.48 25.56 49.17 29.09C48.89 29.14 48.65 29.18 48.42 29.24C46.72 29.7 45.62 31.54 46.16 33.33C46.49 34.43 47.05 35.48 47.65 36.47C48.81 38.39 49.59 40.41 49.33 42.68C49.18 43.92 48.9 45.15 48.55 46.36C47.88 48.67 47.12 50.95 46.4 53.24C46.34 53.44 46.27 53.65 46.16 53.98L39.54 34.26V34.25Z" fill="#00C48C"/>
<path d="M42.97 60.35C40.32 61.6 34.35 61.75 31.75 60.62L37.18 44.83H37.3L42.97 60.35Z" fill="#00C48C"/>
<path d="M19.97 35.52C22.9 43.54 25.78 51.45 28.73 59.51C24.72 57.44 21.87 54.48 20.03 50.51C17.6 45.27 18.17 39.25 19.97 35.52Z" fill="#00C48C"/>
<path d="M46.39 58.69C47.09 56.66 47.79 54.63 48.49 52.61C49.82 48.76 51.17 44.91 52.49 41.05C53.22 38.94 53.52 36.78 53.32 34.52C54.94 36.29 55.87 42.33 55.09 46.35C54.04 51.74 51.1 55.84 46.39 58.69Z" fill="#00C48C"/>
</g>
<defs>
<clipPath id="clip0_1649_40636">
<rect width="78.25" height="77.42" fill="white"/>
</clipPath>
</defs>
</svg>
