<svg width="56" height="56" viewBox="0 0 56 56" fill="none" xmlns="http://www.w3.org/2000/svg">
<g clip-path="url(#clip0_1649_40644)">
<path d="M55.07 27.48C54.91 42.73 42.92 54.88 27.62 55.03C12.51 55.18 -0.0700144 42.65 -1.44473e-05 27.54C0.0799856 12.23 12.19 0.0200017 27.5 1.72714e-06C42.77 -0.0199983 54.87 12.15 55.07 27.48ZM27.52 53.86C42.05 53.86 53.93 42.01 53.9 27.51C53.87 12.88 42.07 1.37 27.96 1.14C13.41 0.910002 1.18999 12.64 1.14999 27.5C1.10999 41.99 13 53.86 27.51 53.86H27.52Z" fill="#007AFF"/>
<path d="M30.88 16.51C31.74 16.43 32.52 16.37 33.3 16.27C34.09 16.17 34.46 15.76 34.41 15.12C34.35 14.47 33.91 14.15 33.11 14.21C29.08 14.54 25.05 14.54 21.02 14.21C20.25 14.15 19.79 14.49 19.72 15.14C19.66 15.73 20.05 16.16 20.78 16.26C21.38 16.34 21.98 16.41 22.58 16.44C22.95 16.46 23.15 16.59 23.29 16.96C24.38 19.99 25.5 23.02 26.58 26.05C26.68 26.33 26.69 26.7 26.6 26.98C25.03 31.76 23.43 36.53 21.84 41.3C21.8 41.42 21.74 41.54 21.64 41.79C18.79 33.3 15.98 24.95 13.15 16.51C14.03 16.42 14.81 16.36 15.58 16.26C16.36 16.16 16.74 15.73 16.68 15.1C16.62 14.47 16.14 14.17 15.36 14.21C13.18 14.31 11 14.41 8.83003 14.5C8.58003 14.51 8.33003 14.5 8.03003 14.5C10.07 10.7 15.81 5.75 22.88 4.38C30.81 2.84 38.48 5.45 43.18 9.94C42.83 10.01 42.52 10.05 42.22 10.13C40.05 10.72 38.65 13.06 39.34 15.34C39.76 16.74 40.47 18.08 41.23 19.34C42.7 21.79 43.71 24.36 43.37 27.25C43.18 28.83 42.82 30.4 42.37 31.93C41.52 34.87 40.55 37.77 39.63 40.69C39.55 40.95 39.47 41.21 39.33 41.63L30.89 16.52L30.88 16.51Z" fill="#007AFF"/>
<path d="M35.24 49.75C31.86 51.34 24.26 51.53 20.95 50.09L27.86 29.98H28.01C30.41 36.55 32.82 43.13 35.23 49.75H35.24Z" fill="#007AFF"/>
<path d="M5.95002 18.12C9.68002 28.33 13.36 38.41 17.1 48.68C12 46.05 8.36002 42.27 6.02002 37.22C2.93002 30.54 3.65002 22.88 5.95002 18.12Z" fill="#007AFF"/>
<path d="M39.6 47.63C40.49 45.05 41.38 42.46 42.27 39.88C43.97 34.97 45.68 30.07 47.37 25.16C48.29 22.48 48.69 19.72 48.42 16.84C50.48 19.1 51.67 26.79 50.68 31.91C49.35 38.78 45.6 43.99 39.59 47.63H39.6Z" fill="#007AFF"/>
</g>
<defs>
<clipPath id="clip0_1649_40644">
<rect width="55.07" height="55.04" fill="white"/>
</clipPath>
</defs>
</svg>
