<svg width="4013" height="1242" viewBox="0 0 4013 1242" fill="none" xmlns="http://www.w3.org/2000/svg">
<g clip-path="url(#clip0_1704_45042)">
<path d="M620.55 0C277.83 0 0 277.83 0 620.55C0 963.27 277.83 1241.1 620.55 1241.1C963.27 1241.1 1241.1 963.27 1241.1 620.55C1241.1 277.83 963.27 0 620.55 0ZM810.25 987.74H803.18L626.98 614.12L450.78 987.74H436.63L183.27 394.84H331.17L458.5 740.81L627.62 367.19H634.69L796.74 740.81L930.5 402.56H1071.33L810.25 987.74Z" fill="#007AFF"/>
<path d="M1356.29 415.01H1480.4L1554.26 660.2L1635.99 413.8H1737.09L1818.82 660.2L1892.68 415.01H2014.37L1872.7 841.83H1770.39L1685.02 597.85L1600.26 841.83H1497.94L1356.27 415.01H1356.29Z" fill="#ffffff"/>
<path d="M1999.81 676.55V675.34C1999.81 582.11 2076.09 504.01 2181.44 504.01C2286.79 504.01 2361.85 580.9 2361.85 674.13V675.34C2361.85 768.58 2285.57 846.67 2180.22 846.67C2074.87 846.67 1999.81 769.78 1999.81 676.55ZM2249.85 676.55V675.34C2249.85 635.38 2220.79 601.48 2180.22 601.48C2139.65 601.48 2111.81 634.78 2111.81 674.13V675.34C2111.81 715.3 2140.87 749.2 2181.43 749.2C2221.99 749.2 2249.84 715.9 2249.84 676.55H2249.85Z" fill="#ffffff"/>
<path d="M2410.26 511.27H2525.29V577.26C2544.05 532.46 2574.33 503.4 2628.81 505.82V626.91H2619.13C2559.19 626.91 2525.29 661.42 2525.29 737.1V838.81H2410.26V511.27Z" fill="#ffffff"/>
<path d="M2651.21 676.55V675.34C2651.21 568.79 2717.8 504.01 2795.3 504.01C2844.95 504.01 2874.01 526.41 2895.8 551.23V396.85H3010.83V838.81H2895.8V795.22C2873.4 822.46 2844.95 846.07 2795.91 846.07C2718.42 846.07 2651.22 781.29 2651.22 676.55H2651.21ZM2897.61 675.34V674.13C2897.61 631.14 2867.94 600.27 2831.01 600.27C2794.08 600.27 2763.81 630.54 2763.81 674.13V675.34C2763.81 718.93 2794.08 749.81 2831.01 749.81C2867.94 749.81 2897.61 718.93 2897.61 675.34Z" fill="#ffffff"/>
<path d="M3101.61 415.01H3149.44V794.61H3387.98V838.81H3101.62V415.01H3101.61Z" fill="#ffffff"/>
<path d="M3469.67 405.93H3522.94V457.39H3469.67V405.93ZM3472.7 525.8H3519.32V838.8H3472.7V525.8Z" fill="#ffffff"/>
<path d="M3645.23 566.97H3602.24V526.41H3645.23V499.16C3645.23 463.44 3654.91 436.2 3672.47 418.64C3688.21 402.9 3711.22 394.42 3739.67 394.42C3761.47 394.42 3775.99 396.84 3791.13 402.29V442.85C3774.17 438.01 3761.46 434.98 3745.72 434.98C3709.4 434.98 3691.24 456.77 3691.24 501.58V527.01H3790.52V566.97H3691.84V838.8H3645.22V566.97H3645.23Z" fill="#ffffff"/>
<path d="M3866.19 755.86V566.97H3822.6V525.8H3866.19V431.35H3912.81V525.8H4012.1V566.97H3912.81V749.81C3912.81 787.95 3934 801.88 3965.49 801.88C3981.23 801.88 3994.55 798.85 4010.89 790.98V830.93C3994.54 839.41 3976.98 844.25 3954.58 844.25C3904.33 844.25 3866.19 819.43 3866.19 755.86Z" fill="#ffffff"/>
</g>
<defs>
<clipPath id="clip0_1704_45042">
<rect width="4012.09" height="1241.1" fill="white"/>
</clipPath>
</defs>
</svg>
