<svg width="150" height="150" viewBox="0 0 150 150" fill="none" xmlns="http://www.w3.org/2000/svg">
<circle cx="75" cy="75" r="75" fill="#007AFF" fill-opacity="0.08"/>
<g clip-path="url(#clip0_1802_66931)">
<path d="M114.459 119.226H28.3721V31.1782L114.653 28.4355L114.459 119.226Z" fill="white"/>
<path d="M114.652 28.4355L120.58 31.9558L120.953 122.732L114.459 119.226L114.652 28.4355Z" fill="#E1E5E5"/>
<path d="M28.3721 119.227H114.459L120.954 122.733L39.2473 123.326L28.3721 119.227Z" fill="#D7DBDB"/>
<path d="M28.4623 47.818L114.653 45.8246V28.4355L28.3721 31.1782L28.4623 47.818Z" fill="#CBE4FF"/>
<path d="M114.652 45.8246L120.528 49.3872L120.58 31.9558L114.652 28.4355V45.8246Z" fill="#B1D6FF"/>
<path d="M33.7715 52.3137L33.9003 69.9855L51.2312 69.5473L51.1023 51.2676L33.7715 52.3137Z" fill="#EFEFEF"/>
<path d="M61.3975 51.7051L80.3003 51.1113L80.1715 69.3345L61.8742 69.1931L61.3975 51.7051Z" fill="#EFEFEF"/>
<path d="M90.0283 50.6447L90.4664 69.801L107.643 69.4899L107.501 50.1641L90.0283 50.6447Z" fill="#EFEFEF"/>
<path d="M107.579 91.0215L107.115 73.1094L90.3896 73.5335L90.5185 91.1629L107.579 91.0215Z" fill="#EFEFEF"/>
<path d="M79.9776 90.2864L62.7627 90.8518L62.8658 73.1094L79.5523 73.2508L79.9776 90.2864Z" fill="#CBE4FF"/>
<path d="M51.8875 91.3611L51.4623 73.5762L34.5566 73.8731L34.6984 91.7993L51.8875 91.3611Z" fill="#EFEFEF"/>
<path d="M33.6934 95.8859L33.8351 114.576L52.1581 114.109L52.0164 94.7832L33.6934 95.8859Z" fill="#EFEFEF"/>
<path d="M61.1787 95.8842L80.0816 95.248L79.9656 114.729L61.6555 114.574L61.1787 95.8842Z" fill="#EFEFEF"/>
<path d="M89.668 95.885L90.1061 115.041L107.282 114.73L107.141 95.4043L89.668 95.885Z" fill="#EFEFEF"/>
<path d="M58.5371 75.2591L69.3222 90.4286L74.064 90.471L86.1634 58.0256L81.4473 56.3008L70.9844 83.6284L61.9646 71.852L58.5371 75.2591Z" fill="#B1D6FF"/>
<path d="M116.083 49.0762L116.366 120.074C116.366 120.074 117.513 61.1637 116.083 49.0762Z" fill="#D7DBDB"/>
<path d="M118.093 50.6445L118.518 120.54C118.518 120.54 119.381 60.2156 118.093 50.6445Z" fill="#D7DBDB"/>
<path d="M35.7686 120.385H114.086C114.086 120.385 44.2214 121.799 35.7686 120.385Z" fill="#E1E5E5"/>
<path d="M40.6387 121.799L115.799 121.488C115.799 121.488 51.0887 123.213 40.6387 121.799Z" fill="#E1E5E5"/>
<path d="M46.9268 37.8237C46.9268 37.8237 51.0114 38.7285 49.0013 34.1621L46.9268 37.8237Z" fill="#B1D6FF"/>
<path d="M46.9269 37.8233C46.9269 37.8233 40.3425 33.9638 41.4249 25.1562C42.868 13.408 63.7037 10.8067 63.4331 29.9064L59.6448 30.1043C59.6448 30.1043 60.2762 24.0676 55.6761 21.2967C52.1455 19.1619 47.2877 20.505 45.7544 25.1562C44.7235 28.2806 47.1975 32.9742 49.0015 34.1617C49.0015 34.1617 49.6329 38.0213 46.9269 37.8233Z" fill="#D7DBDB"/>
<path d="M78.1348 37.0737C78.1348 37.0737 82.2194 37.9785 80.2093 33.4121L78.1348 37.0737Z" fill="#B1D6FF"/>
<path d="M78.1349 37.0733C78.1349 37.0733 71.5505 33.2138 72.6329 24.4062C74.076 12.658 94.8988 10.0567 94.6282 29.1564L90.8399 29.3543C90.8399 29.3543 91.4713 23.3176 86.8712 20.5467C83.3406 18.4119 78.4828 19.755 76.9495 24.4062C75.9187 27.5306 78.3927 32.2242 80.1966 33.4117C80.1966 33.4117 80.828 37.2713 78.1221 37.0733H78.1349Z" fill="#D7DBDB"/>
<path d="M33.9003 69.9855L33.7715 52.3137L51.1023 51.2676L51.0894 52.5258L34.8667 53.3599L34.9569 70.0138L33.9003 69.9855Z" fill="#E1E5E5"/>
<path d="M61.8742 69.1931L61.3975 51.7051L80.3003 51.1113V52.002L62.6345 52.6382L63.1112 69.2779L61.8742 69.1931Z" fill="#E1E5E5"/>
<path d="M90.4664 69.801L90.0283 50.6447L107.501 50.1641V51.2668L90.7886 51.5778L91.5617 69.9141L90.4664 69.801Z" fill="#E1E5E5"/>
<path d="M90.5185 91.1629L90.3896 73.5335L107.115 73.1094L107.025 74L91.2659 74.5231L91.4591 91.0639L90.5185 91.1629Z" fill="#E1E5E5"/>
<path d="M34.6984 91.7993L34.5566 73.8731L51.4623 73.5762L51.4751 74.6223L35.3426 74.9334L35.5359 91.7993H34.6984Z" fill="#E1E5E5"/>
<path d="M90.1061 115.041L89.668 95.885L107.141 95.4043L107.115 96.507L90.5055 97.0301L90.8921 114.942L90.1061 115.041Z" fill="#E1E5E5"/>
<path d="M61.6555 114.574L61.1787 95.8842L80.0816 95.248L80.1073 96.2942L62.4415 96.9304L62.6348 114.63L61.6555 114.574Z" fill="#E1E5E5"/>
<path d="M33.8351 114.576L33.6934 95.8859L52.0164 94.7832L52.0421 95.9849L34.6726 96.9321L34.5696 114.731L33.8351 114.576Z" fill="#E1E5E5"/>
<path d="M83.7147 15.203C89.2554 15.203 94.7445 19.2464 94.6415 29.0719L114.665 28.4357L120.58 31.9559L120.966 122.732L39.2601 123.312L28.3719 119.226V31.1783L41.8114 30.7542C41.3604 29.1708 41.1671 27.3188 41.4377 25.1558C42.1206 19.4867 47.3263 15.9523 52.5063 15.9523C58.0599 15.9523 63.5748 20.0239 63.4331 29.906C63.4331 29.906 63.4331 29.9767 63.4331 30.0756L72.9682 29.7787C72.5688 28.2519 72.3884 26.4706 72.6461 24.4207C73.329 18.7374 78.5347 15.203 83.7147 15.203ZM77.5168 29.6232L90.8532 29.1991C90.9176 28.266 91.0593 23.0635 86.8716 20.547C85.7763 19.8825 84.5651 19.5574 83.3539 19.5574C80.6608 19.5574 78.0193 21.1832 76.9498 24.4065C76.4344 25.9616 76.7952 27.9126 77.5039 29.6232H77.5168ZM46.3986 30.6129L59.6061 30.1887V30.1039H59.619C59.619 30.1039 60.2504 24.0672 55.6503 21.2963C54.555 20.6318 53.3438 20.3067 52.1326 20.3067C49.4395 20.3067 46.798 21.9325 45.7285 25.1558C45.1874 26.7816 45.6126 28.8457 46.3857 30.6129H46.3986ZM83.7147 14.8496C78.7538 14.8496 73.0842 18.186 72.324 24.3641C72.1049 26.1171 72.1822 27.8136 72.5559 29.4253L63.7681 29.7081C63.7939 25.1982 62.6342 21.5225 60.405 19.0343C58.4207 16.8147 55.6116 15.5989 52.5191 15.5989C47.5583 15.5989 41.8758 18.9353 41.1156 25.1134C40.8836 26.9654 40.9867 28.7467 41.3862 30.4149L28.3591 30.8249C28.1787 30.8249 28.0498 30.9804 28.0498 31.1783V119.226C28.0498 119.382 28.14 119.509 28.2689 119.566L39.1441 123.665C39.1441 123.665 39.2085 123.68 39.2472 123.68L120.953 123.1C121.134 123.1 121.276 122.944 121.276 122.747L120.889 31.97C120.889 31.8428 120.825 31.7156 120.721 31.659L114.807 28.1388C114.807 28.1388 114.704 28.0964 114.652 28.0964L94.9636 28.7184C94.9507 24.3217 93.7781 20.7166 91.5876 18.285C89.5904 16.0654 86.7943 14.8496 83.7147 14.8496ZM77.723 29.2557C77.272 28.1247 76.7179 26.1737 77.2591 24.5196C78.1997 21.678 80.532 19.9108 83.3539 19.9108C84.5264 19.9108 85.699 20.236 86.7169 20.858C90.3764 23.0635 90.5826 27.4037 90.5439 28.8457L77.7101 29.2557H77.723ZM46.6176 30.2453C45.8316 28.3791 45.6255 26.5695 46.0507 25.2689C46.9913 22.4273 49.3236 20.6601 52.1455 20.6601C53.318 20.6601 54.4906 20.9853 55.5086 21.6073C59.3871 23.94 59.3742 28.7608 59.3226 29.8494L46.6048 30.2453H46.6176Z" fill="#007AFF"/>
</g>
<defs>
<clipPath id="clip0_1802_66931">
<rect width="93.2257" height="108.83" fill="white" transform="translate(28.0498 14.8496)"/>
</clipPath>
</defs>
</svg>
