<svg width="150" height="150" viewBox="0 0 150 150" fill="none" xmlns="http://www.w3.org/2000/svg">
<circle cx="75" cy="75" r="75" fill="#007AFF" fill-opacity="0.08"/>
<g clip-path="url(#clip0_1802_67031)">
<path d="M36.2835 39.1387L45.3838 45.469L43.7371 49.1368L33.832 44.8306L36.2835 39.1387Z" fill="white"/>
<path d="M28.0498 76.2383L40.4807 76.4964L40.9636 79.5665L29.7337 82.066L28.0498 76.2383Z" fill="white"/>
<path d="M68.9823 35.62L65.9365 24.5351L71.7805 23.9238L72.8206 35.9868L68.9823 35.62Z" fill="white"/>
<path d="M102.091 39.6961L109.817 33.1484L112.293 35.7974L104.307 41.53L102.091 39.6961Z" fill="white"/>
<path d="M111.216 73.7114L120.539 72.5703L120.192 76.7271L111.562 75.98L111.216 73.7114Z" fill="white"/>
<path d="M108.232 109.9L117.889 114.071L115.363 118.717L107.935 112.916L108.232 109.9Z" fill="white"/>
<path d="M35.9736 115.252L43.5139 109.873L46.5349 111.53L40.8767 118.567L35.9736 115.252Z" fill="white"/>
<path d="M78.1816 119.857L78.4664 129.543L84.7314 129.231L82.1684 119.232L78.1816 119.857Z" fill="white"/>
<path d="M68.4617 97.0219C68.4617 97.0219 73.0304 101.002 79.8773 99.8475C86.7242 98.6928 89.1262 92.5391 89.1262 92.5391C89.1262 92.5391 88.5938 103.081 81.8831 105.105C75.1724 107.129 65.5645 99.4671 65.5645 99.4671L68.4617 97.0083V97.0219Z" fill="#B1D6FF"/>
<path d="M98.6107 83.5857C98.6107 83.5857 99.1431 96.3007 95.9735 101.354C92.8163 106.408 86.1056 111.026 81.2273 111.461C76.349 111.896 74.5166 109.301 74.5166 109.301C74.5166 109.301 85.8332 104.968 88.4704 100.064C91.1076 95.146 91.3676 81.7246 91.3676 81.7246L98.6107 83.5993V83.5857Z" fill="#B1D6FF"/>
<path d="M72.8447 76.9976L77.5373 75.218L97.8179 74.498L98.6104 83.586L96.0969 85.4743L84.2603 79.5515L72.8447 76.9976Z" fill="#479FFF"/>
<path d="M63.4597 64.0918C63.4597 64.0918 60.9587 74.3481 62.0111 80.7056C63.0635 87.0631 66.097 95.01 68.4618 97.0205L65.3046 100.199C65.3046 100.199 56.6128 92.8365 54.9042 86.479C53.1956 80.1214 58.7177 64.3771 58.7177 64.3771L63.4597 64.0918Z" fill="#FDD542"/>
<path d="M84.3842 59.0389L90.4387 58.1695L96.2084 54.067C96.2084 54.067 94.8093 42.9006 75.7668 43.1043L70.0342 47.7638C70.0342 47.7638 78.3297 49.7879 81.2269 51.5131C84.1242 53.2383 84.3842 59.0253 84.3842 59.0253V59.0389Z" fill="#FF6360"/>
<path d="M60.0303 66.1165L63.4475 64.0924C63.4475 64.0924 65.5895 56.227 71.8421 53.5645C76.5594 51.554 77.5375 50.1819 77.5375 50.1819C77.5375 50.1819 73.4517 48.9322 69.6382 49.5027C65.8248 50.0733 60.0303 62.7883 60.0303 66.1165Z" fill="#FF6360"/>
<path d="M72.8447 76.998L95.3169 77.2426L96.0969 85.4747L73.7238 85.0808L72.8447 76.998Z" fill="#62ADFF"/>
<path d="M86.8857 85.2695C86.8857 85.2695 90.4021 98.8132 80.5712 102.073C72.2757 104.818 65.565 99.4789 65.565 99.4789L63.2002 108.146C63.2002 108.146 74.0091 113.321 83.6047 110.89C97.2985 107.426 95.7632 91.0565 96.1099 85.4733L86.8981 85.2831L86.8857 85.2695Z" fill="#CBE4FF"/>
<path d="M65.5649 99.4804C65.5649 99.4804 61.0581 94.3455 58.9656 84.2794C57.0713 75.1778 60.0304 66.1034 60.0304 66.1034L50.373 60.9277C50.373 60.9277 48.4167 66.8641 48.6891 77.8268C48.8748 85.1624 50.7444 101.695 63.1753 108.134L65.5401 99.4668L65.5649 99.4804Z" fill="#FEE17C"/>
<path d="M60.0305 66.1164C60.0305 66.1164 62.5315 55.4254 71.4833 53.5508C78.3302 52.1108 82.2798 55.765 84.3847 59.0389L91.8011 53.7002C91.8011 53.7002 87.7152 43.1179 74.7396 43.0228C63.1878 42.9277 54.9542 47.9404 50.373 60.9407L60.0305 66.1164Z" fill="#FF7977"/>
<path d="M84.3848 59.0398L91.8012 53.6875L96.209 54.0679L90.4393 58.1704L84.3848 59.0398Z" fill="#FF4C48"/>
<path d="M95.3174 77.2421L97.8184 74.498L98.6108 83.586L96.0974 85.4743L95.3174 77.2421Z" fill="#2B92FF"/>
<path d="M74.4299 43.0232C74.529 43.0232 74.6404 43.0232 74.7395 43.0232C75.3833 43.0232 75.99 43.0775 76.5967 43.1319C94.8468 43.2541 96.2087 54.0809 96.2087 54.0809L90.439 58.1834L84.3845 59.0529C82.6016 56.2816 79.4939 53.2523 74.4423 53.2523C73.7118 53.2523 72.9318 53.3202 72.127 53.4561C72.0279 53.4968 71.9536 53.5376 71.8546 53.5783C65.602 56.2409 63.46 64.1063 63.46 64.1063C63.46 64.1063 60.959 74.3625 62.0114 80.72C63.0638 87.0776 66.0973 95.0245 68.4621 97.035C68.4621 97.035 71.9536 100.078 77.3891 100.078C78.1815 100.078 79.011 100.01 79.8777 99.8741C82.9235 99.3579 85.0903 97.85 86.5637 96.3422C88.3837 91.5604 87.0218 85.8006 86.898 85.3387L73.7242 85.1078L72.8451 77.0251L77.5376 75.2455L97.8059 74.5255L98.5983 83.6271C98.5983 83.6271 99.1307 96.3422 95.9611 101.396C94.4877 103.759 92.2219 106.028 89.7457 107.807C88.4952 108.894 86.9846 109.777 85.1646 110.429C83.7902 111.013 82.4407 111.394 81.2149 111.502C80.8558 111.53 80.5092 111.543 80.1749 111.543C79.9149 111.543 79.6672 111.543 79.432 111.516C78.9739 111.543 78.5158 111.557 78.07 111.557C70.2822 111.557 63.1876 108.174 63.1876 108.174C50.7444 101.722 48.8872 85.2029 48.7014 77.8673C48.4167 66.9047 50.3853 60.9683 50.3853 60.9683C54.9169 48.0766 63.0514 43.0504 74.4423 43.0504L74.4299 43.0232ZM74.4423 42.7108C62.1848 42.7108 54.4464 48.4706 50.1005 60.846C50.0758 60.9139 48.1195 66.9726 48.4043 77.8809C48.5776 84.8905 50.3729 101.898 63.0762 108.487C63.1505 108.527 70.3193 111.896 78.0948 111.896C78.5529 111.896 79.011 111.896 79.4815 111.856C79.692 111.869 79.952 111.883 80.212 111.883C80.5587 111.883 80.9178 111.869 81.2768 111.828C82.5026 111.72 83.8645 111.353 85.3131 110.742C87.0713 110.117 88.6437 109.207 89.9685 108.066C92.5686 106.191 94.8096 103.882 96.2459 101.572C99.4279 96.478 98.9574 84.1161 98.9326 83.5999L98.1402 74.4848C98.1279 74.3082 97.9917 74.1723 97.8307 74.1723L77.5624 74.8923C77.5624 74.8923 77.5005 74.8923 77.4757 74.9059L72.7832 76.6855C72.647 76.7398 72.5603 76.8892 72.5727 77.0522L73.4518 85.135C73.4642 85.298 73.6004 85.4338 73.7489 85.4338L86.6875 85.6512C86.9475 86.833 87.9008 91.9 86.3284 96.1248C84.5331 97.9587 82.354 99.0998 79.8653 99.5209C79.0482 99.6568 78.231 99.7247 77.4262 99.7247C72.1518 99.7247 68.7221 96.7904 68.685 96.7633C66.4439 94.8479 63.4229 87.1726 62.3457 80.6521C61.3181 74.444 63.7696 64.2964 63.7943 64.1878C63.8191 64.1198 65.9611 56.4582 72.0032 53.8908L72.1641 53.8228L72.2384 53.7821C73.0061 53.6598 73.7613 53.5919 74.4794 53.5919C79.4815 53.5919 82.515 56.662 84.1741 59.243C84.236 59.3381 84.3226 59.3925 84.4217 59.3925C84.4341 59.3925 84.4464 59.3925 84.4588 59.3925L90.5133 58.5231C90.5133 58.5231 90.6 58.4959 90.6371 58.4687L96.4068 54.3662C96.5059 54.2983 96.5678 54.1624 96.543 54.0402C96.5307 53.9315 94.9211 42.9281 76.6214 42.7923C76.0643 42.7379 75.4328 42.6836 74.7642 42.6836H74.4547L74.4423 42.7108Z" fill="#007AFF"/>
</g>
<defs>
<clipPath id="clip0_1802_67031">
<rect width="92.4888" height="105.619" fill="white" transform="translate(28.0498 23.9238)"/>
</clipPath>
</defs>
</svg>
