<svg width="150" height="150" viewBox="0 0 150 150" fill="none" xmlns="http://www.w3.org/2000/svg">
<circle cx="75" cy="75" r="75" fill="#007AFF" fill-opacity="0.08"/>
<g clip-path="url(#clip0_1812_60827)">
<path d="M38.4003 44.0568L38.0557 121.535H122.57L122.926 41.9531L38.4003 44.0568Z" fill="#E0EFFC"/>
<path d="M31.9103 45.0312L31.2686 115.022H114.463L112.835 45.4116L31.9103 45.0312Z" fill="white"/>
<path d="M115.26 30.127L30.2227 31.7077V116.055L116.674 116.578L115.26 30.127ZM32.5046 113.06L34.2635 47.0274L111.385 47.7286L112.265 112.87L32.5046 113.048V113.06Z" fill="#F6F6F6"/>
<path d="M105.931 42.2733C107.972 42.2733 109.627 40.6185 109.627 38.5771C109.627 36.5357 107.972 34.8809 105.931 34.8809C103.889 34.8809 102.234 36.5357 102.234 38.5771C102.234 40.6185 103.889 42.2733 105.931 42.2733Z" fill="#B1D6FF"/>
<path d="M94.4023 42.535C96.4437 42.535 98.0985 40.8802 98.0985 38.8388C98.0985 36.7974 96.4437 35.1426 94.4023 35.1426C92.3609 35.1426 90.7061 36.7974 90.7061 38.8388C90.7061 40.8802 92.3609 42.535 94.4023 42.535Z" fill="#CBE4FF"/>
<path d="M32.5049 113.06L34.2639 47.0273L37.2589 49.3211L36.2011 113.06H32.5049Z" fill="#D7DBDB"/>
<path d="M115.26 30.127L117.863 33.122L119.051 118.302L116.674 116.578L115.26 30.127Z" fill="#D7DBDB"/>
<path d="M30.2227 116.055L116.674 116.578L119.051 118.301L33.3365 117.505L30.2227 116.055Z" fill="#CECECE"/>
<path d="M37.2587 49.3211L111.385 49.8916V47.7404L34.2637 47.0273L37.2587 49.3211Z" fill="#CECECE"/>
<path d="M35.5005 35.5821L35.3223 42.1069L86.3801 41.9286L85.8572 34.8809L35.5005 35.5821Z" fill="white"/>
<path d="M115.046 29.9963L117.649 32.9914L118.837 118.171L33.135 117.375L30.0092 115.925V31.577L115.046 29.9963ZM115.046 29.6992L29.9973 31.2799C29.8309 31.2799 29.7002 31.4107 29.7002 31.577V115.925C29.7002 116.044 29.7715 116.151 29.8666 116.198L32.9923 117.648C32.9923 117.648 33.0755 117.672 33.1112 117.672L118.814 118.468C118.897 118.468 118.968 118.432 119.028 118.385C119.087 118.325 119.111 118.254 119.111 118.171L117.922 32.9914C117.922 32.92 117.899 32.8487 117.851 32.8012L115.26 29.8062C115.201 29.7468 115.118 29.6992 115.034 29.6992H115.046Z" fill="#B1D6FF"/>
<path d="M115.212 29.9963L117.815 32.9914L119.004 118.171L33.301 117.375L30.1752 115.925V31.577L115.212 29.9963ZM115.212 29.6992L30.1633 31.2799C29.9969 31.2799 29.8662 31.4107 29.8662 31.577V115.925C29.8662 116.044 29.9375 116.151 30.0326 116.198L33.1583 117.648C33.1583 117.648 33.2415 117.672 33.2772 117.672L118.98 118.468C119.063 118.468 119.134 118.432 119.194 118.385C119.253 118.325 119.277 118.254 119.277 118.171L118.088 32.9914C118.088 32.92 118.065 32.8487 118.017 32.8012L115.438 29.8062C115.379 29.7468 115.295 29.6992 115.212 29.6992Z" fill="#007AFF"/>
<path d="M36.8428 65.6387C36.8428 65.6387 48.288 79.9006 53.2203 86.4136C58.1525 92.9266 69.2412 112.822 69.2412 112.822L66.9474 112.465C66.9474 112.465 56.0251 93.9725 52.1625 87.9943C48.2999 82.0162 37.021 68.4554 37.021 68.4554L36.8428 65.6387Z" fill="#CBE4FF"/>
<path d="M65.8902 107.725C65.8902 107.725 86.1422 98.0388 94.7707 94.8774C103.399 91.716 112.028 88.8873 112.028 88.8873L111.849 87.3066C111.849 87.3066 90.8962 94.3544 84.7397 96.8146C78.5833 99.2748 64.666 106.144 64.666 106.144L65.9021 107.725H65.8902Z" fill="#CBE4FF"/>
<path d="M94.7705 94.8644C94.7705 94.8644 101.64 106.31 102.698 106.666C103.756 107.023 109.032 104.907 109.032 103.671C109.032 102.435 102.698 104.729 102.698 104.729L96.0065 93.8066L94.7705 94.8644Z" fill="#CBE4FF"/>
<path d="M93.0119 49.6176C93.0119 49.6176 100.404 58.9473 100.583 61.0628C100.761 63.1783 93.7131 64.5807 93.5348 65.2938C93.3566 66.0069 93.8914 66.8745 95.4721 66.3516C97.0528 65.8287 102.342 64.4144 102.686 61.5976C103.031 58.7809 94.759 49.4512 94.759 49.4512L93 49.6294L93.0119 49.6176Z" fill="#CBE4FF"/>
<path opacity="0.35" d="M73.3652 94.5322C73.3652 94.5322 83.5031 105.252 93.3676 108.081C103.232 110.91 112.205 107.558 112.205 107.558L111.504 88.1856C111.504 88.1856 97.2421 84.4894 79.1057 88.7086L73.3652 94.5322Z" fill="#CBE4FF"/>
<path d="M73.2705 61.8359L78.4167 62.0499C78.4167 62.0499 88.7447 63.4166 86.546 75.5987C84.6682 85.9505 76.4676 93.2836 76.4676 93.2836L73.3775 94.5315C73.3775 94.5315 79.5101 80.5429 81.1978 73.923C82.8736 67.303 73.2824 61.8359 73.2824 61.8359H73.2705Z" fill="#7DB9EF"/>
<path d="M73.3656 94.5319C73.3656 94.5319 59.3294 83.7641 62.2769 69.8943C64.6301 58.8056 80.3658 59.6138 83.1469 69.0505C86.7124 81.1375 73.3656 94.5319 73.3656 94.5319Z" fill="#97C9FF"/>
<path d="M72.7594 79.7473C76.0216 79.7473 78.6662 77.1027 78.6662 73.8404C78.6662 70.5782 76.0216 67.9336 72.7594 67.9336C69.4971 67.9336 66.8525 70.5782 66.8525 73.8404C66.8525 77.1027 69.4971 79.7473 72.7594 79.7473Z" fill="white"/>
<path opacity="0.28" d="M37.1992 54.3734L44.7699 62.4671L54.8009 57.5467L78.5708 49.6194L37.2586 49.3223L37.1992 54.3734Z" fill="#CBE4FF"/>
<path opacity="0.28" d="M43.8911 88.0078L53.0425 101.735L47.0525 104.373L41.9539 95.5785L36.665 97.8605V90.2897L43.8911 88.0078Z" fill="#CBE4FF"/>
</g>
<defs>
<clipPath id="clip0_1812_60827">
<rect width="93.2257" height="91.8352" fill="white" transform="translate(29.7002 29.6992)"/>
</clipPath>
</defs>
</svg>
