<svg width="150" height="150" viewBox="0 0 150 150" fill="none" xmlns="http://www.w3.org/2000/svg">
<circle cx="75" cy="75" r="75" fill="#007AFF" fill-opacity="0.08"/>
<g clip-path="url(#clip0_1802_66978)">
<path d="M74.9028 112.828L120.509 115.175L121.977 50.6353L82.1791 48.0039L69.3487 91.102L74.9028 112.828Z" fill="#B1D6FF"/>
<path d="M32.2923 81.6226L31.152 116.157L74.9027 112.828L72.9493 85.033L32.2923 81.6226Z" fill="#B1D6FF"/>
<path d="M30.677 35.6763C30.677 35.6763 50.5058 11.392 73.0042 33.4483L72.676 100.209C72.676 100.209 49.7438 92.4324 29.46 100.7L30.677 35.6763Z" fill="#F6F6F6"/>
<path d="M73.0041 33.4484C73.0041 33.4484 95.0652 11.6243 115.503 33.5012L115.061 98.7196C115.061 98.7196 101.43 85.9985 72.6759 100.209L73.0041 33.4484Z" fill="#EAEAE8"/>
<path d="M29.4599 100.699L34.9093 111.202C34.9093 111.202 56.3515 104.108 75.2537 112.316L72.6757 100.221C72.6757 100.221 44.6191 90.7608 29.4599 100.699Z" fill="white"/>
<path d="M75.2545 112.303C75.2545 112.303 87.2668 104.845 99.8244 106.417C112.382 107.989 118.598 111.931 118.598 111.931L115.061 98.7187C115.061 98.7187 100.905 85.0176 72.6766 100.208L75.2545 112.303Z" fill="#F6F6F6"/>
<path d="M115.503 33.5L118.77 53.8385L118.598 111.931L115.061 98.7184L115.503 33.5Z" fill="#E0E0E0"/>
<g opacity="0.4">
<path opacity="0.4" d="M32.2525 103.48C32.2525 103.48 53.0093 95.8038 72.7531 105.749C72.7531 105.749 53.5846 93.3294 32.2525 103.48Z" fill="#E1E5E5"/>
</g>
<g opacity="0.4">
<path opacity="0.4" d="M34.1315 107.267C34.1315 107.267 54.6363 101.139 72.6065 108.697C72.6065 108.697 53.887 98.8609 34.1315 107.267Z" fill="#E1E5E5"/>
</g>
<g opacity="0.4">
<path opacity="0.4" d="M74.8802 104.247C74.8802 104.247 93.6072 92.6906 114.227 102.457C114.227 102.457 94.535 89.6401 74.8802 104.247Z" fill="#E1E5E5"/>
</g>
<g opacity="0.4">
<path opacity="0.4" d="M75.4899 109.047C75.4899 109.047 94.9277 97.3216 116.205 109.21C116.205 109.21 93.5831 94.0361 75.4899 109.047Z" fill="#E1E5E5"/>
</g>
<g opacity="0.6">
<path opacity="0.6" d="M117.094 49.9776L117.052 100.786C117.052 100.786 115.767 55.5187 117.094 49.9776Z" fill="#D7DBDB"/>
</g>
<path d="M31.1516 116.157L31.453 118.414L75.3379 114.843L74.9023 112.829L31.1516 116.157Z" fill="#9EC9EF"/>
<path d="M121.977 50.6364L122.709 58.5181L121.83 117.167L120.51 115.176L121.977 50.6364Z" fill="#9EC9EF"/>
<path d="M74.9023 112.828L120.509 115.176L121.83 117.167L75.3379 114.842L74.9023 112.828Z" fill="#90BEE0"/>
<path d="M76.5584 35.2077L76.1706 56.7617C76.1706 56.7617 88.6199 51.8995 96.8027 53.3927L96.1981 28.6501C96.1981 28.6501 86.8918 28.6251 76.5468 35.1945L76.5584 35.2077Z" fill="white"/>
<path d="M32.5888 65.1393L32.0971 95.0906C32.0971 95.0906 43.0492 90.8357 59.1143 94.1401L59.0333 61.9267C59.0333 61.9267 45.3361 56.1671 32.5888 65.1393Z" fill="#CBE4FF"/>
<path d="M32.8977 38.1107C32.8977 38.1107 53.6688 20.4565 70.6693 36.6807L70.753 41.8589C70.753 41.8589 52.1103 29.0606 33.1376 44.4435L32.8977 38.1107Z" fill="white"/>
<path d="M33.3401 47.6564C33.3401 47.6564 52.2784 34.1883 70.5963 46.023L70.6903 50.632C70.6903 50.632 52.5079 41.1033 33.2553 53.0257L33.3519 47.6566L33.3401 47.6564Z" fill="white"/>
<path d="M33.2777 56.3267C33.2777 56.3267 50.7522 46.8571 70.35 55.0783L70.2707 59.49C70.2707 59.49 51.0263 51.2881 33.5521 60.7448L33.2777 56.3267Z" fill="white"/>
<path d="M75.2362 94.2761C75.2362 94.2761 96.0516 83.3395 112.316 92.6395L111.747 85.5372C111.747 85.5372 92.4962 77.7105 75.5304 87.7587L75.2362 94.2761Z" fill="#F6F6F6"/>
<path d="M76.3534 80.6941C76.3534 80.6941 93.2696 72.7545 111.317 79.9771L111.604 73.8479C111.604 73.8479 94.9705 66.0683 76.1218 74.5555L76.3652 80.6943L76.3534 80.6941Z" fill="#F6F6F6"/>
<path d="M76.8421 67.9814L76.8498 61.653C76.8498 61.653 93.819 53.3909 110.401 60.0695L110.56 66.9703C110.56 66.9703 90.6565 60.6719 76.8421 67.9814Z" fill="#F6F6F6"/>
<path d="M99.1084 29.5176C99.1084 29.5176 106.238 31.1859 112.116 34.9283L112.196 40.3006C112.196 40.3006 105.439 36.9177 99.5182 36.2417L99.1202 29.5178L99.1084 29.5176Z" fill="#F6F6F6"/>
<path d="M99.9268 42.3828L99.8302 47.7519C99.8302 47.7519 106.967 49.0321 111.137 50.6343L111.425 44.505C111.425 44.505 105.866 42.6838 99.9268 42.3828Z" fill="#F6F6F6"/>
<path d="M80.9001 36.4754L81.3511 50.7453C81.3511 50.7453 91.8186 50.4807 92.4925 47.115C93.1664 43.7493 90.7464 41.2339 88.7064 41.1972C88.7064 41.1972 92.7953 36.1847 89.8715 33.479C86.7507 30.5757 80.9001 36.4754 80.9001 36.4754Z" fill="#B1D6FF"/>
<path d="M35.5213 87.0511L41.1534 65.0997L47.9828 64.459L54.5582 87.7689L49.4945 87.3025L44.2157 69.9432L40.7638 86.7572L35.5213 87.0511Z" fill="white"/>
<path d="M40.5457 77.266L49.4408 77.8531L49.7901 80.7325L40.3643 80.1358L40.5457 77.266Z" fill="white"/>
<path d="M62.4258 62.8418L70.1249 64.9992L70.0266 70.4589L62.4532 67.8766L62.4258 62.8418Z" fill="white"/>
<path d="M61.602 94.1855L70.0847 96.0593L70.2244 88.2968L62.1206 86.9992L61.602 94.1855Z" fill="white"/>
<path d="M62.1128 80.2439L61.835 74.0527L69.3953 76.0524L69.5655 81.6721L62.1128 80.2439Z" fill="white"/>
<path d="M84.3852 36.836L84.6083 38.8589C84.6083 38.8589 86.3604 38.5022 86.3811 37.3507C86.4019 36.1993 84.3852 36.836 84.3852 36.836Z" fill="white"/>
<path d="M84.849 45.127L85.0721 47.1499C85.0721 47.1499 86.8243 46.7932 86.845 45.6417C86.8657 44.4903 84.849 45.127 84.849 45.127Z" fill="white"/>
<path d="M95.8142 23.7648C102.005 23.8762 108.837 26.3674 115.503 33.5018L118.218 50.4008L121.977 50.6496L122.708 58.5184L121.83 117.167L75.3499 114.843L31.465 118.415L31.1518 116.157L31.5351 104.685L29.46 100.7L30.677 35.677C30.677 35.677 40.2536 23.9559 53.6372 24.1966C59.5213 24.3025 66.1424 26.7123 73.0042 33.449C73.0042 33.449 83.0201 23.5346 95.8024 23.7646L95.8142 23.7648ZM95.8082 23.4411C84.04 23.2294 74.4877 31.6379 73.0003 33.0089C66.8793 27.0621 60.3643 23.9941 53.643 23.8732C40.2712 23.6326 30.5533 35.3383 30.4569 35.4531C30.4086 35.5169 30.3838 35.5812 30.3824 35.6588L29.1652 100.695C29.1652 100.695 29.1749 100.812 29.2093 100.864L31.2387 104.77L30.857 116.152L31.1691 118.474C31.1899 118.63 31.3175 118.749 31.459 118.751L31.4826 118.752L75.3674 115.18L121.812 117.504C121.894 117.505 121.966 117.468 122.014 117.417C122.074 117.353 122.111 117.276 122.113 117.185L122.991 58.5364L122.26 50.6288C122.251 50.4733 122.124 50.3545 121.982 50.3391L118.46 50.1074L115.786 33.468C115.776 33.4031 115.742 33.3378 115.707 33.2984C109.736 26.8754 103.048 23.5714 95.82 23.4414L95.8082 23.4411Z" fill="#007AFF"/>
</g>
<defs>
<clipPath id="clip0_1802_66978">
<rect width="93.2407" height="96.4391" fill="white" transform="translate(30.5762 22.2676) rotate(1.03068)"/>
</clipPath>
</defs>
</svg>
