<svg width="166" height="150" viewBox="0 0 166 150" fill="none" xmlns="http://www.w3.org/2000/svg">
<ellipse cx="82.9224" cy="75" rx="82.2876" ry="75" fill="#007AFF" fill-opacity="0.08"/>
<g clip-path="url(#clip0_2310_63188)">
<path d="M42.7654 43.4594L42.3872 117.712H135.113L135.505 41.4434L42.7654 43.4594Z" fill="#E0EFFC"/>
<path d="M35.6456 44.3926L34.9414 111.469H126.22L124.434 44.7571L35.6456 44.3926Z" fill="white"/>
<path d="M127.094 30.1094L33.7939 31.6243V112.46L128.646 112.961L127.094 30.1094ZM36.2976 109.59L38.2275 46.3061L122.843 46.9781L123.808 109.407L36.2976 109.578V109.59Z" fill="#F6F6F6"/>
<path d="M116.858 41.7507C119.097 41.7507 120.913 40.1647 120.913 38.2083C120.913 36.252 119.097 34.666 116.858 34.666C114.618 34.666 112.802 36.252 112.802 38.2083C112.802 40.1647 114.618 41.7507 116.858 41.7507Z" fill="#B1D6FF"/>
<path d="M104.209 42.0007C106.449 42.0007 108.265 40.4147 108.265 38.4583C108.265 36.502 106.449 34.916 104.209 34.916C101.969 34.916 100.154 36.502 100.154 38.4583C100.154 40.4147 101.969 42.0007 104.209 42.0007Z" fill="#CBE4FF"/>
<path d="M36.2979 109.59L38.2277 46.3066L41.5138 48.5049L40.3532 109.59H36.2979Z" fill="#D7DBDB"/>
<path d="M127.094 30.1094L129.949 32.9797L131.253 114.613L128.645 112.961L127.094 30.1094Z" fill="#D7DBDB"/>
<path d="M33.7939 112.459L128.646 112.96L131.254 114.612L37.2104 113.849L33.7939 112.459Z" fill="#CECECE"/>
<path d="M41.5136 48.5049L122.843 49.0517V46.99L38.2275 46.3066L41.5136 48.5049Z" fill="#CECECE"/>
<path d="M39.5838 35.338L39.3882 41.5912L95.4072 41.4204L94.8335 34.666L39.5838 35.338Z" fill="white"/>
<path d="M126.859 29.984L129.715 32.8543L131.019 114.487L36.9887 113.724L33.5593 112.335V31.4989L126.859 29.984ZM126.859 29.6992L33.5462 31.2141C33.3637 31.2141 33.2202 31.3394 33.2202 31.4989V112.335C33.2202 112.448 33.2985 112.551 33.4028 112.597L36.8322 113.986C36.8322 113.986 36.9235 114.009 36.9626 114.009L130.993 114.772C131.084 114.772 131.162 114.738 131.228 114.692C131.293 114.635 131.319 114.567 131.319 114.487L130.015 32.8543C130.015 32.7859 129.989 32.7176 129.937 32.672L127.094 29.8017C127.029 29.7448 126.937 29.6992 126.846 29.6992H126.859Z" fill="#B1D6FF"/>
<path d="M127.042 29.984L129.897 32.8543L131.201 114.487L37.1713 113.724L33.7419 112.335V31.4989L127.042 29.984ZM127.042 29.6992L33.7288 31.2141C33.5463 31.2141 33.4028 31.3394 33.4028 31.4989V112.335C33.4028 112.448 33.4811 112.551 33.5854 112.597L37.0149 113.986C37.0149 113.986 37.1061 114.009 37.1453 114.009L131.175 114.772C131.267 114.772 131.345 114.738 131.41 114.692C131.475 114.635 131.501 114.567 131.501 114.487L130.197 32.8543C130.197 32.7859 130.171 32.7176 130.119 32.672L127.29 29.8017C127.224 29.7448 127.133 29.6992 127.042 29.6992Z" fill="#007AFF"/>
<path d="M41.5136 48.5039L122.843 49.0506L123.808 109.418L40.353 109.589L41.5136 48.5039Z" fill="white"/>
<path fill-rule="evenodd" clip-rule="evenodd" d="M98.0788 89.2624C98.0788 90.2998 97.111 91.1452 95.9233 91.1452H91.6125V72.3179H95.9233C97.111 72.3179 98.0788 73.1632 98.0788 74.2006V89.2624ZM63.5921 89.2624V74.2006C63.5921 73.1632 64.5599 72.3179 65.7475 72.3179H70.0583V91.1452H65.7475C64.5599 91.1452 63.5921 90.2998 63.5921 89.2624ZM76.5246 65.7283C76.5246 65.2087 77.0074 64.7869 77.6023 64.7869H84.0685C84.6634 64.7869 85.1463 65.2087 85.1463 65.7283V68.5524H76.5246V65.7283ZM74.3692 91.1452H87.3017V72.3179H74.3692V91.1452ZM95.9233 68.5524H89.4571V65.7283C89.4571 63.1339 87.0387 61.0215 84.0685 61.0215H77.6023C74.6321 61.0215 72.2138 63.1339 72.2138 65.7283V68.5524H65.7475C62.1824 68.5524 59.2812 71.0866 59.2812 74.2006V89.2624C59.2812 92.3765 62.1824 94.9106 65.7475 94.9106H95.9233C99.4884 94.9106 102.39 92.3765 102.39 89.2624V74.2006C102.39 71.0866 99.4884 68.5524 95.9233 68.5524Z" fill="#007AFF" fill-opacity="0.16"/>
</g>
<defs>
<clipPath id="clip0_2310_63188">
<rect width="102.284" height="88.0114" fill="white" transform="translate(33.2202 29.6992)"/>
</clipPath>
</defs>
</svg>
