<svg width="52" height="52" viewBox="0 0 52 52" fill="none" xmlns="http://www.w3.org/2000/svg">
<rect width="52" height="52" rx="26" fill="#007AFF" fill-opacity="0.08"/>
<path fill-rule="evenodd" clip-rule="evenodd" d="M29.0984 36.884C30.5407 34.8243 32.0409 31.7951 32.3406 27.875H36.4038C35.8771 32.0715 32.9814 35.5338 29.0984 36.884ZM14.5949 27.875H18.7089C18.9921 31.8102 20.473 34.827 21.9346 36.8964C18.0338 35.553 15.1243 32.0839 14.5949 27.875ZM21.9772 16.0899C20.5307 18.1496 19.0169 21.1884 18.7144 25.125H14.5949C15.1256 20.901 18.0557 17.4209 21.9772 16.0899ZM21.4836 25.125C21.9044 20.626 24.2061 17.4938 25.5357 16.0459C26.9107 17.5185 29.1768 20.6219 29.5686 25.125H21.4836ZM21.485 27.875H29.5728C29.152 32.3809 26.8448 35.5131 25.5165 36.961C24.0769 35.4347 21.8686 32.374 21.485 27.875ZM36.4038 25.125H32.3447C32.0629 21.2076 30.5985 18.2005 29.1437 16.1339C33.0048 17.4951 35.8799 20.945 36.4038 25.125ZM39.25 26.5C39.25 18.932 33.1024 12.7748 25.5385 12.7528C25.533 12.7528 25.5275 12.7514 25.5206 12.7514C25.5151 12.7514 25.5069 12.75 25.5 12.75C17.9183 12.75 11.75 18.9196 11.75 26.5C11.75 34.0817 17.9183 40.25 25.5 40.25C25.5083 40.25 25.5151 40.2486 25.5206 40.2486C25.5234 40.2486 25.5248 40.25 25.5275 40.25C25.5316 40.25 25.5357 40.2472 25.5385 40.2472C33.1024 40.2266 39.25 34.068 39.25 26.5Z" fill="#007AFF"/>
</svg>
