<svg width="52" height="52" viewBox="0 0 52 52" fill="none" xmlns="http://www.w3.org/2000/svg">
<rect width="52" height="52" rx="26" fill="#007AFF" fill-opacity="0.08"/>
<g clip-path="url(#clip0_1802_64930)">
<path d="M40.0001 26.473C39.9217 33.9499 34.0432 39.9069 26.5418 39.9804C19.1336 40.0539 12.9658 33.9107 13.0001 26.5025C13.0394 18.9962 18.9767 13.0098 26.483 13C33.9696 12.9902 39.9021 18.957 40.0001 26.473ZM26.4928 39.4068C33.6166 39.4068 39.4412 33.5969 39.4265 26.4878C39.4118 19.3149 33.6264 13.6717 26.7085 13.5589C19.5749 13.4462 13.5836 19.1972 13.564 26.4829C13.5444 33.5871 19.3738 39.4068 26.4879 39.4068H26.4928Z" fill="#007AFF"/>
<path d="M28.1395 21.0947C28.5612 21.0555 28.9436 21.0261 29.326 20.977C29.7134 20.928 29.8948 20.727 29.8702 20.4132C29.8408 20.0945 29.6251 19.9376 29.2329 19.967C27.257 20.1288 25.2812 20.1288 23.3053 19.967C22.9278 19.9376 22.7023 20.1043 22.668 20.423C22.6385 20.7123 22.8298 20.9231 23.1877 20.9721C23.4818 21.0113 23.776 21.0457 24.0702 21.0604C24.2516 21.0702 24.3496 21.1339 24.4183 21.3153C24.9527 22.8009 25.5018 24.2864 26.0313 25.772C26.0803 25.9093 26.0852 26.0907 26.0411 26.228C25.2714 28.5715 24.4869 30.9102 23.7074 33.2489C23.6878 33.3077 23.6583 33.3665 23.6093 33.4891C22.212 29.3266 20.8343 25.2327 19.4468 21.0947C19.8782 21.0506 20.2607 21.0212 20.6382 20.9721C21.0206 20.9231 21.2069 20.7123 21.1775 20.4034C21.1481 20.0945 20.9127 19.9474 20.5303 19.967C19.4615 20.0161 18.3927 20.0651 17.3288 20.1092C17.2062 20.1141 17.0836 20.1092 16.9365 20.1092C17.9367 18.2461 20.7509 15.8192 24.2173 15.1475C28.1052 14.3925 31.8657 15.6721 34.17 17.8735C33.9984 17.9078 33.8465 17.9275 33.6994 17.9667C32.6355 18.2559 31.9491 19.4032 32.2874 20.5211C32.4933 21.2075 32.8414 21.8644 33.214 22.4822C33.9347 23.6834 34.4299 24.9434 34.2632 26.3604C34.17 27.135 33.9935 27.9048 33.7729 28.6549C33.3562 30.0963 32.8806 31.5182 32.4295 32.9498C32.3903 33.0773 32.3511 33.2047 32.2825 33.4107L28.1444 21.0996L28.1395 21.0947Z" fill="#007AFF"/>
<path d="M30.2777 37.3922C28.6205 38.1717 24.8943 38.2649 23.2715 37.5589L26.6594 27.6992H26.7329C27.9096 30.9204 29.0912 34.1465 30.2728 37.3922H30.2777Z" fill="#007AFF"/>
<path d="M15.9169 21.8848C17.7456 26.8906 19.5499 31.8327 21.3835 36.8679C18.8831 35.5784 17.0984 33.7252 15.9512 31.2492C14.4362 27.9741 14.7892 24.2185 15.9169 21.8848Z" fill="#007AFF"/>
<path d="M32.4151 36.3517C32.8514 35.0868 33.2878 33.817 33.7241 32.552C34.5576 30.1447 35.396 27.7423 36.2246 25.335C36.6756 24.0211 36.8718 22.6679 36.7394 21.2559C37.7494 22.3639 38.3328 26.1342 37.8474 28.6445C37.1953 32.0127 35.3568 34.5671 32.4102 36.3517H32.4151Z" fill="#007AFF"/>
</g>
<defs>
<clipPath id="clip0_1802_64930">
<rect width="27" height="26.9853" fill="white" transform="translate(13 13)"/>
</clipPath>
</defs>
</svg>
