<svg width="150" height="150" viewBox="0 0 150 150" fill="none" xmlns="http://www.w3.org/2000/svg">
<circle cx="75" cy="75" r="75" fill="#007AFF" fill-opacity="0.08"/>
<g clip-path="url(#clip0_1802_67068)">
<path d="M31.5967 99.8091L53.6685 96.5837L52.8007 74.5941L81.9914 71.1766L81.8154 47.8559L111.006 45.7695L109.435 116.679L32.1244 118.765L31.5967 99.8091Z" fill="white"/>
<path d="M32.125 118.764L42.1992 122.565L114.126 121.234L109.435 116.678L32.125 118.764Z" fill="#D7DBDB"/>
<path d="M109.435 116.679L111.006 45.7695L115.861 51.8365L114.126 121.236L109.435 116.679Z" fill="#E1E5E5"/>
<path d="M34.5521 90.9003L38.0704 92.6027C38.0704 92.6027 36.3816 76.8208 43.8054 67.8612C50.3026 60.0279 59.7084 62.319 65.7013 63.8805C65.7013 63.8805 58.6646 60.463 53.1877 60.6038C47.7107 60.7446 41.4598 64.7253 37.4254 69.7043C33.391 74.6833 34.5638 90.9003 34.5638 90.9003H34.5521Z" fill="#B1D6FF"/>
<path d="M68.4337 66.2351L71.5651 67.4254C71.5651 67.4254 70.6503 55.4835 73.3946 46.5238C76.1389 37.5641 84.9935 32.7259 92.945 34.0059L92.4289 29.4492C92.4289 29.4492 82.5306 30.3068 79.0123 32.1499C75.4939 33.9931 69.501 40.5464 68.1992 45.807C66.8974 51.0676 68.4572 66.2351 68.4572 66.2351H68.4337Z" fill="#B1D6FF"/>
<path d="M92.9336 40.0736L96.323 41.9679L109.869 32.0227L108.227 28.5156L100.357 30.3076L92.9336 40.0736Z" fill="#B1D6FF"/>
<path d="M108.227 28.5152L90.506 20.1699L91.3504 27.1201C83.0939 26.9281 62.406 29.4752 64.7046 60.3861C64.7046 60.3861 48.356 51.0296 38.3756 61.5124C29.3451 70.9969 34.5523 90.9001 34.5523 90.9001C34.5523 90.9001 32.969 48.6745 68.4341 66.2482C68.4341 66.2482 64.9627 31.0367 91.925 31.8303L92.9336 40.086L108.227 28.5152Z" fill="#CBE4FF"/>
<path d="M53.6685 96.584V99.8607L31.7257 102.459L31.5967 98.4399L53.6685 96.584Z" fill="#CBE4FF"/>
<path d="M81.9915 71.1758L82.0267 75.822L52.883 77.5756L52.6719 72.5965L81.9915 71.1758Z" fill="#CBE4FF"/>
<path d="M81.7217 45.5779L111.006 43.6836L110.877 48.6626L81.7217 50.3138V45.5779Z" fill="#CBE4FF"/>
<path d="M110.877 48.6626L115.826 54.2048L115.955 50.3649L111.006 43.6836L110.877 48.6626Z" fill="#B1D6FF"/>
<path d="M88.7471 60.6681L90.0723 61.4104C90.0723 61.4104 93.6728 59.6569 96.1591 59.5417C97.801 59.4649 97.7893 59.3241 97.7893 59.3241C97.7893 59.3241 97.2029 58.6841 95.2443 58.2617C93.2858 57.8394 88.7471 60.6681 88.7471 60.6681Z" fill="#B1D6FF"/>
<path d="M87.9727 78.8041L89.2393 80.8008C89.2393 80.8008 93.1446 83.4375 96.2056 83.0024C99.2666 82.5672 101.999 81.2232 102.527 78.7401C103.055 76.257 102.269 73.8379 102.269 73.8379C102.269 73.8379 97.9062 76.897 95.8186 77.7545C93.731 78.6121 87.9727 78.8169 87.9727 78.8169V78.8041Z" fill="#B1D6FF"/>
<path d="M102.75 58.2363C102.75 58.2363 103.043 59.6187 102.797 61.321C102.445 63.6377 100.627 66.7736 98.9737 68.2456C98.9737 68.2456 101.014 70.7159 101.366 72.0342C101.718 73.3526 99.5015 71.791 99.5015 71.791L96.3701 68.1944L102.75 58.2363Z" fill="#B1D6FF"/>
<path d="M91.0449 69.0382L91.7134 70.7917C91.7134 70.7917 94.4929 72.1229 95.4077 73.1084C95.4077 73.1084 93.1911 69.3582 91.0449 69.0254V69.0382Z" fill="#B1D6FF"/>
<path d="M87.7148 57.8779C87.7148 57.8779 97.9415 50.0702 101.777 55.3692C105.612 60.6682 97.9415 68.2071 97.9415 68.2071C97.9415 68.2071 103.817 72.111 102.293 77.6916C100.768 83.2722 91.3036 82.4402 87.9729 78.8051L89.5092 74.3381C89.5092 74.3381 94.8806 78.242 95.3849 75.1701C95.8892 72.0982 91.0338 69.0263 91.0338 69.0263V66.5176C91.0338 66.5176 94.8688 65.404 96.4052 61.769C97.9415 58.1339 94.1065 58.6971 88.7352 60.6554L87.7148 57.8651V57.8779Z" fill="#CBE4FF"/>
<path d="M61.0459 86.6894L61.8082 88.6221L63.0045 89.7613C63.0045 89.7613 64.5408 86.3182 66.6987 85.8318C68.8567 85.3454 68.5283 86.715 68.5283 86.715C68.5283 86.715 68.4579 84.1551 66.8395 83.8735C65.221 83.5919 61.0576 86.7022 61.0576 86.7022L61.0459 86.6894Z" fill="#B1D6FF"/>
<path d="M72.1757 84.8457C72.1757 84.8457 72.5275 86.1897 72.8324 87.5464C73.4423 90.2727 69.9825 95.2261 69.1851 96.3653C68.5283 97.2869 67.7894 98.0036 67.7894 98.0036L66.0537 96.4421L72.1757 84.8457Z" fill="#B1D6FF"/>
<path d="M62.3125 100.872L63.0514 101.422L76.339 100.923L76.21 97.2242L75.7292 96.0723L62.3125 100.872Z" fill="#B1D6FF"/>
<path d="M61.0459 86.6895C61.0459 86.6895 63.9779 77.9858 70.2757 82.3377C76.5736 86.6895 67.3438 97.2107 67.3438 97.2107L75.7292 96.0716V100.193L62.3008 100.884L61.6675 96.302C61.6675 96.302 69.2202 87.8287 67.5431 85.7679C65.8661 83.7072 62.9341 88.7374 62.9341 88.7374L61.0459 86.6767V86.6895Z" fill="#CBE4FF"/>
<path d="M37.1562 109.088L37.2501 109.907L38.9858 111.52L42.4221 108.525L42.0233 107.398L37.1562 109.088Z" fill="#B1D6FF"/>
<path d="M42.0459 115.08L42.7144 115.694L45.9747 116.206L45.8926 105.493L45.4939 103.982L42.0459 115.08Z" fill="#B1D6FF"/>
<path d="M37.1562 109.089L41.8357 104.2L45.4948 103.982V115.528L42.0468 115.08L41.8357 108.424L38.7864 110.869L37.1562 109.089Z" fill="#CBE4FF"/>
<path d="M111.041 43.7213L115.991 50.4026L115.862 54.2425H115.85L114.173 121.274L42.2457 122.605L32.1715 118.816L31.6554 99.86H31.7024L31.6554 98.4904L53.7156 96.6473L52.965 77.64H52.9298L52.707 72.661L82.0267 71.2402L81.8742 50.377H81.7687V45.6412L111.041 43.7468V43.7213ZM111.041 43.4269H111.03L81.7569 45.3212C81.6045 45.3212 81.4755 45.4748 81.4755 45.6412V50.377C81.4755 50.4666 81.5106 50.5434 81.5693 50.6074H81.581L81.7335 70.9331L52.6952 72.341C52.6132 72.341 52.5428 72.3794 52.4959 72.4434C52.449 72.5074 52.4138 72.5842 52.4138 72.6738L52.6366 77.6528C52.6366 77.6528 52.6483 77.7552 52.6718 77.7936L53.3989 96.3529L31.6203 98.1577C31.4678 98.1705 31.3388 98.3112 31.3505 98.4904L31.3857 99.7192C31.3857 99.7192 31.3388 99.8216 31.3505 99.8728L31.8665 118.829C31.8665 118.957 31.9486 119.072 32.0659 119.123L42.1402 122.912C42.1402 122.912 42.1988 122.925 42.234 122.925L114.161 121.594C114.313 121.594 114.443 121.453 114.454 121.286L116.131 54.3577C116.131 54.3577 116.143 54.2937 116.155 54.2681L116.284 50.4282C116.284 50.3514 116.26 50.2746 116.213 50.2106L111.264 43.5293C111.206 43.4525 111.124 43.4141 111.041 43.4141V43.4269Z" fill="#007AFF"/>
<path d="M90.4594 20.119L108.18 28.4643L109.834 31.9714L96.2764 41.9294L92.8871 40.0351L92.1365 33.8785C91.5384 33.8145 90.9285 33.7761 90.3187 33.7761C83.1178 33.7761 75.7878 38.4736 73.3367 46.4733C70.6041 55.4329 71.5072 67.3749 71.5072 67.3749L68.3758 66.1845C64.189 64.111 60.5299 62.8823 57.3164 62.3063C56.8825 62.2807 56.4368 62.2679 55.9912 62.2679C51.734 62.2679 47.3008 63.5094 43.7473 67.7973C36.3235 76.7569 38.0124 92.5388 38.0124 92.5388L34.494 90.8364C34.494 90.8364 29.2868 70.9204 38.3173 61.4487C41.8943 57.6856 46.304 56.4825 50.4791 56.4825C57.938 56.4825 64.6581 60.3223 64.6581 60.3223C62.4181 30.3714 81.7808 27.0436 90.4946 27.0436C90.7761 27.0436 91.0458 27.0436 91.2921 27.0436L90.4477 20.0934L90.4594 20.119ZM90.4477 19.7734C90.389 19.7734 90.3187 19.799 90.2718 19.8374C90.1897 19.9014 90.1427 20.0166 90.1545 20.1318L90.9637 26.7108C90.8112 26.7108 90.6588 26.7108 90.4946 26.7108C85.6158 26.7108 76.515 27.7859 70.4282 34.9793C65.6549 40.6239 63.6026 48.9692 64.318 59.772C62.6526 58.9144 56.8004 56.1369 50.4791 56.1369C45.4713 56.1369 41.3079 57.8392 38.1179 61.1927C29.064 70.7028 34.1656 90.6956 34.2125 90.9004C34.236 90.99 34.2946 91.0668 34.3767 91.1052L37.8951 92.8075C37.8951 92.8075 37.9772 92.8332 38.0124 92.8332C38.071 92.8332 38.1296 92.8075 38.1883 92.7691C38.2704 92.7052 38.3173 92.59 38.3056 92.4748C38.2938 92.3212 36.7106 76.7313 43.9701 67.9765C46.9959 64.3286 50.9365 62.5495 55.9912 62.5495C56.4251 62.5495 56.8708 62.5623 57.3047 62.5879C60.6002 63.1766 64.2945 64.4822 68.2585 66.4405L71.4133 67.6437C71.4133 67.6437 71.472 67.6565 71.5072 67.6565C71.5658 67.6565 71.6362 67.6309 71.6831 67.5925C71.7652 67.5285 71.8004 67.4261 71.8004 67.3109C71.8004 67.1957 70.9208 55.3305 73.6064 46.5373C75.8465 39.1903 82.719 34.0577 90.3069 34.0577C90.823 34.0577 91.3507 34.0833 91.8667 34.1345L92.5821 40.0351C92.5939 40.1375 92.6525 40.2271 92.7346 40.2783L96.124 42.1726C96.124 42.1726 96.2178 42.211 96.253 42.211C96.3116 42.211 96.3702 42.1982 96.4172 42.1598L109.975 32.2018C110.104 32.1122 110.139 31.933 110.068 31.7922L108.415 28.2851C108.38 28.2211 108.333 28.1699 108.274 28.1315L90.5767 19.8246C90.5767 19.8246 90.4946 19.799 90.4594 19.799L90.4477 19.7734Z" fill="#007AFF"/>
</g>
<defs>
<clipPath id="clip0_1802_67068">
<rect width="84.945" height="103.126" fill="white" transform="translate(31.3506 19.7988)"/>
</clipPath>
</defs>
</svg>
