<svg width="150" height="150" viewBox="0 0 150 150" fill="none" xmlns="http://www.w3.org/2000/svg">
<circle cx="75" cy="75" r="75" fill="#007AFF" fill-opacity="0.08"/>
<g clip-path="url(#clip0_1802_67107)">
<path d="M115.773 27.627L31.0469 29.3458V121.051L117.182 121.62L115.773 27.627ZM33.3204 117.794L35.073 46.0042L111.912 46.7667L112.789 117.6L33.3204 117.794Z" fill="#F6F6F6"/>
<path d="M106.477 40.8353C108.511 40.8353 110.159 39.0358 110.159 36.8161C110.159 34.5963 108.511 32.7969 106.477 32.7969C104.443 32.7969 102.794 34.5963 102.794 36.8161C102.794 39.0358 104.443 40.8353 106.477 40.8353Z" fill="#B1D6FF"/>
<path d="M94.9913 41.1185C97.0252 41.1185 98.674 39.319 98.674 37.0993C98.674 34.8795 97.0252 33.0801 94.9913 33.0801C92.9574 33.0801 91.3086 34.8795 91.3086 37.0993C91.3086 39.319 92.9574 41.1185 94.9913 41.1185Z" fill="#CBE4FF"/>
<path d="M33.3203 117.794L35.0729 46.0039L38.0569 48.4852L37.003 117.794H33.3203Z" fill="#D7DBDB"/>
<path d="M115.772 27.627L118.366 30.8708L119.55 123.494L117.182 121.633L115.772 27.627Z" fill="#D7DBDB"/>
<path d="M31.0469 121.051L117.182 121.632L119.55 123.493L34.1493 122.627L31.0469 121.051Z" fill="#CECECE"/>
<path d="M38.0573 48.4852L111.913 49.1185V46.7664L35.0732 46.0039L38.0573 48.4852Z" fill="#CECECE"/>
<path d="M36.3046 33.5594L36.127 40.6415L86.998 40.4476L86.4769 32.7969L36.3046 33.5594Z" fill="white"/>
<path d="M41.0413 51.9355L40.165 114.925L109.805 115.881L108.585 52.1294L41.0413 51.9355Z" fill="#CBE4FF"/>
<path d="M88.2059 83.3009L68.5964 69.9638C68.0043 69.5632 67.2583 69.5374 66.6544 69.9121C66.0504 70.274 65.6715 70.9719 65.6597 71.7344L65.5176 96.5475C65.5176 97.2842 65.861 97.9691 66.4412 98.3568C66.7491 98.5636 67.0925 98.654 67.4359 98.654C67.7438 98.654 68.0517 98.5765 68.3359 98.4085L88.0874 86.9324C88.6914 86.5835 89.0821 85.8985 89.1058 85.149C89.1295 84.3994 88.7861 83.7015 88.2059 83.3009Z" fill="white"/>
<path d="M43.3262 54.5215L43.492 59.6909L48.939 59.9752L48.6667 54.8058L43.3262 54.5215Z" fill="white"/>
<path d="M52.7051 54.8047L52.7998 60.1679L57.7022 60.0775L57.5364 54.8047H52.7051Z" fill="white"/>
<path d="M76.8613 60.1553L76.364 55.0117L70.9287 55.1151L71.4971 60.2457L76.8613 60.1553Z" fill="white"/>
<path d="M66.9619 60.2585L66.8672 54.9082L61.9648 54.9987L62.1306 60.2585H66.9619Z" fill="white"/>
<path d="M81.2314 54.998L81.4091 60.1675L86.8443 60.4518L86.5838 55.2824L81.2314 54.998Z" fill="white"/>
<path d="M90.6211 55.2832L90.704 60.6465L95.6182 60.556L95.4406 55.2832H90.6211Z" fill="white"/>
<path d="M104.878 60.75L104.783 55.3867L99.8691 55.4772L100.047 60.75H104.878Z" fill="white"/>
<path d="M43.7295 106.977L43.9071 112.146L49.3424 112.443L49.0818 107.274L43.7295 106.977Z" fill="white"/>
<path d="M53.1074 107.275L53.2022 112.626L58.1164 112.535L57.9387 107.275H53.1074Z" fill="white"/>
<path d="M77.2646 112.612L76.7791 107.469L71.332 107.572L71.9004 112.716L77.2646 112.612Z" fill="white"/>
<path d="M67.3643 112.729L67.2814 107.365L62.3672 107.456L62.5448 112.729H67.3643Z" fill="white"/>
<path d="M81.6455 107.455L81.8113 112.624L87.2584 112.922L86.9979 107.752L81.6455 107.455Z" fill="white"/>
<path d="M91.0244 107.752L91.1191 113.102L96.0215 113.012L95.8557 107.752H91.0244Z" fill="white"/>
<path d="M105.281 113.207L105.198 107.844L100.284 107.934L100.462 113.207H105.281Z" fill="white"/>
<path d="M115.559 27.5497L118.152 30.8064L119.336 123.429L33.9476 122.563L30.8333 120.987V29.2685L115.559 27.5497ZM115.559 27.2266L30.8214 28.9454C30.6556 28.9454 30.5254 29.0875 30.5254 29.2685V120.987C30.5254 121.116 30.5964 121.232 30.6912 121.284L33.8055 122.861C33.8055 122.861 33.8884 122.886 33.9239 122.886L119.313 123.752C119.396 123.752 119.467 123.714 119.526 123.662C119.585 123.597 119.609 123.52 119.609 123.429L118.425 30.8064C118.425 30.7288 118.401 30.6513 118.354 30.5996L115.772 27.3429C115.713 27.2783 115.63 27.2266 115.547 27.2266H115.559Z" fill="#007AFF"/>
</g>
<defs>
<clipPath id="clip0_1802_67107">
<rect width="89.0953" height="96.5258" fill="white" transform="translate(30.5254 27.2266)"/>
</clipPath>
</defs>
</svg>
