<svg width="92" height="92" viewBox="0 0 92 92" fill="none" xmlns="http://www.w3.org/2000/svg">
<g clip-path="url(#clip0_2700_64386)">
<path d="M8.39471 14.5332L8.04199 92H91.6474L92.0001 12.418L8.39471 14.5332Z" fill="#E0EFFC"/>
<path d="M5.69066 18.2285L5.17334 84.43L82.5121 84.9529L82.3358 18.9415L5.69066 18.2285Z" fill="#F6F6F6"/>
<path d="M84.7223 0.605469L0.599609 2.18594V86.5213L86.1214 87.0441L84.7223 0.605469ZM2.86875 83.5267L4.60881 17.5034L80.9012 18.2045L81.7712 83.3365L2.86875 83.5148V83.5267Z" fill="#F6F6F6"/>
<path d="M75.4929 12.7507C77.5123 12.7507 79.1494 11.0961 79.1494 9.05506C79.1494 7.01399 77.5123 5.35938 75.4929 5.35938C73.4735 5.35938 71.8364 7.01399 71.8364 9.05506C71.8364 11.0961 73.4735 12.7507 75.4929 12.7507Z" fill="#B1D6FF"/>
<path d="M64.0886 13.0125C66.108 13.0125 67.7451 11.3579 67.7451 9.31678C67.7451 7.27571 66.108 5.62109 64.0886 5.62109C62.0692 5.62109 60.4321 7.27571 60.4321 9.31678C60.4321 11.3579 62.0692 13.0125 64.0886 13.0125Z" fill="#CBE4FF"/>
<path d="M2.86865 83.5272L4.60872 17.5039L7.57153 19.7974L6.52514 83.5272H2.86865Z" fill="#D7DBDB"/>
<path d="M84.7222 0.605469L87.297 3.60004L88.4727 88.7553L86.1213 87.0441L84.7222 0.605469Z" fill="#D7DBDB"/>
<path d="M0.599609 86.5215L86.1214 87.0443L88.4728 88.7555L3.69175 87.9712L0.599609 86.5215Z" fill="#CECECE"/>
<path d="M7.5717 19.7974L80.9013 20.3678V18.205L4.60889 17.5039L7.5717 19.7974Z" fill="#CECECE"/>
<path d="M5.81987 6.06049L5.65527 12.5725L56.1642 12.4061L55.6351 5.35938L5.81987 6.06049Z" fill="white"/>
<path d="M84.4284 0.297081L87.0032 3.29166L88.1789 88.4588L3.39783 87.6626L0.305687 86.2129V1.87755L84.4284 0.297081ZM84.4284 0L0.29393 1.58047C0.129329 1.58047 0 1.71119 0 1.87755V86.2129C0 86.3317 0.0705431 86.4387 0.164601 86.4862L3.25674 87.9359C3.25674 87.9359 3.33904 87.9597 3.37431 87.9597L88.1554 88.7559C88.2377 88.7559 88.3083 88.7202 88.367 88.6727C88.4258 88.6133 88.4493 88.542 88.4493 88.4588L87.2736 3.29166C87.2736 3.22036 87.2501 3.14906 87.2031 3.10152L84.64 0.106949C84.5812 0.0475329 84.4989 0 84.4166 0H84.4284Z" fill="#007AFF"/>
<path d="M61.7564 64.7899L30.9878 33.6914L26.6065 38.1196L57.3751 69.2181L61.7564 64.7899Z" fill="#FF2222"/>
<path d="M30.9887 69.2274L61.7573 38.1289L57.3761 33.7007L26.6075 64.7991L30.9887 69.2274Z" fill="#FF2222"/>
</g>
<defs>
<clipPath id="clip0_2700_64386">
<rect width="92" height="92" fill="white"/>
</clipPath>
</defs>
</svg>
