<svg width="52" height="52" viewBox="0 0 52 52" fill="none" xmlns="http://www.w3.org/2000/svg">
<rect width="52" height="52" rx="26" fill="#007AFF" fill-opacity="0.08"/>
<path fill-rule="evenodd" clip-rule="evenodd" d="M26.4999 29.084H22.6249C21.9119 29.084 21.3333 28.5053 21.3333 27.7923C21.3333 27.0793 21.9119 26.5007 22.6249 26.5007H26.4999C27.2129 26.5007 27.7916 27.0793 27.7916 27.7923C27.7916 28.5053 27.2129 29.084 26.4999 29.084ZM21.3333 32.959C21.3333 32.246 21.9119 31.6673 22.6249 31.6673H30.3749C31.0892 31.6673 31.6666 32.246 31.6666 32.959C31.6666 33.672 31.0892 34.2507 30.3749 34.2507H22.6249C21.9119 34.2507 21.3333 33.672 21.3333 32.959ZM33.5322 36.834H19.4672C19.072 36.834 18.7503 36.5446 18.7503 36.1881V16.8132C18.7503 16.4567 19.072 16.1673 19.4672 16.1673H26.5003V20.2361C26.5003 22.2666 28.0723 23.9173 30.0059 23.9173H34.2503V36.1881C34.2503 36.5446 33.9287 36.834 33.5322 36.834ZM29.0837 17.4306L32.6254 21.334H30.0059C29.497 21.334 29.0837 20.8419 29.0837 20.2361V17.4306ZM36.4978 21.7577L29.466 14.0077C29.2206 13.7377 28.8744 13.584 28.5089 13.584H19.4672C17.6472 13.584 16.167 15.0332 16.167 16.8132V36.1882C16.167 37.9681 17.6472 39.4173 19.4672 39.4173H33.5322C35.3521 39.4173 36.8337 37.9681 36.8337 36.1882V22.6257C36.8337 22.304 36.7135 21.9953 36.4978 21.7577Z" fill="#0484FF"/>
</svg>
