<svg width="127" height="42" viewBox="0 0 127 42" fill="none" xmlns="http://www.w3.org/2000/svg">
<g clip-path="url(#clip0_2310_58090)">
<ellipse cx="19.5" cy="20.5" rx="16.5" ry="17.5" fill="white"/>
<path d="M19.6431 0C8.79452 0 0 9.40203 0 21C0 32.598 8.79452 42 19.6431 42C30.4917 42 39.2862 32.598 39.2862 21C39.2862 9.40203 30.4917 0 19.6431 0ZM25.6479 33.4261H25.4241L19.8466 20.7824L14.2691 33.4261H13.8212L5.80129 13.3618H10.483L14.5135 25.0697L19.8669 12.4261H20.0907L25.2203 25.0697L29.4543 13.623H33.9122L25.6479 33.4261Z" fill="#007AFF"/>
<path d="M42.9323 14.0449H46.8609L49.1989 22.3423L51.786 14.0039H54.9862L57.5733 22.3423L59.9113 14.0449H63.7634L59.2789 28.4888H56.0403L53.338 20.2323L50.655 28.4888H47.4161L42.9316 14.0449H42.9323Z" fill="white"/>
<path d="M63.3027 22.8956V22.8546C63.3027 19.6996 65.7173 17.0566 69.0521 17.0566C72.3869 17.0566 74.7629 19.6587 74.7629 22.8137V22.8546C74.7629 26.0099 72.3483 28.6526 69.0135 28.6526C65.6787 28.6526 63.3027 26.0505 63.3027 22.8956ZM71.2176 22.8956V22.8546C71.2176 21.5023 70.2977 20.3551 69.0135 20.3551C67.7293 20.3551 66.848 21.482 66.848 22.8137V22.8546C66.848 24.2069 67.7679 25.3541 69.0518 25.3541C70.3357 25.3541 71.2173 24.2272 71.2173 22.8956H71.2176Z" fill="white"/>
<path d="M76.2949 17.3025H79.9361V19.5356C80.53 18.0196 81.4884 17.0361 83.213 17.118V21.2158H82.9066C81.0092 21.2158 79.9361 22.3837 79.9361 24.9448V28.3867H76.2949V17.3025Z" fill="white"/>
<path d="M83.9219 22.895V22.8541C83.9219 19.2483 86.0297 17.0561 88.4829 17.0561C90.0546 17.0561 90.9745 17.8141 91.6642 18.6541V13.4297H95.3054V28.386H91.6642V26.9109C90.9552 27.8327 90.0546 28.6317 88.5023 28.6317C86.0494 28.6317 83.9222 26.4395 83.9222 22.895H83.9219ZM91.7215 22.8541V22.8131C91.7215 21.3583 90.7823 20.3136 89.6133 20.3136C88.4443 20.3136 87.4862 21.338 87.4862 22.8131V22.8541C87.4862 24.3292 88.4443 25.3742 89.6133 25.3742C90.7823 25.3742 91.7215 24.3292 91.7215 22.8541Z" fill="white"/>
<path d="M98.1797 14.0449H99.6937V26.8909H107.245V28.3867H98.18V14.0449H98.1797Z" fill="white"/>
<path d="M109.83 13.7363H111.516V15.4778H109.83V13.7363ZM109.926 17.7928H111.402V28.3851H109.926V17.7928Z" fill="white"/>
<path d="M115.387 19.1869H114.026V17.8143H115.387V16.8922C115.387 15.6834 115.694 14.7615 116.249 14.1673C116.748 13.6346 117.476 13.3477 118.377 13.3477C119.067 13.3477 119.526 13.4296 120.006 13.614V14.9866C119.469 14.8228 119.066 14.7202 118.568 14.7202C117.418 14.7202 116.844 15.4576 116.844 16.9741V17.8346H119.986V19.1869H116.863V28.3859H115.387V19.1869H115.387Z" fill="white"/>
<path d="M122.382 25.5794V19.1872H121.002V17.7939H122.382V14.5977H123.857V17.7939H127V19.1872H123.857V25.3746C123.857 26.6653 124.528 27.1367 125.525 27.1367C126.023 27.1367 126.445 27.0342 126.962 26.7679V28.1198C126.445 28.4068 125.889 28.5706 125.18 28.5706C123.589 28.5706 122.382 27.7306 122.382 25.5794Z" fill="white"/>
</g>
<defs>
<clipPath id="clip0_2310_58090">
<rect width="127" height="42" fill="white"/>
</clipPath>
</defs>
</svg>
