<svg width="104" height="81" viewBox="0 0 104 81" fill="none" xmlns="http://www.w3.org/2000/svg">
<g clip-path="url(#clip0_1649_40641)">
<path d="M22.3016 76.8133C9.99991 76.8133 0 66.8134 0 54.5117C0 42.21 9.99991 32.2101 22.3016 32.2101C34.6033 32.2101 44.6033 42.21 44.6033 54.5117C44.6033 66.8134 34.6033 76.8133 22.3016 76.8133ZM22.3016 39.8777C14.2377 39.8777 7.66761 46.4477 7.66761 54.5117C7.66761 62.5756 14.2377 69.1457 22.3016 69.1457C30.3656 69.1457 36.9356 62.5756 36.9356 54.5117C36.9356 46.4477 30.3656 39.8777 22.3016 39.8777Z" fill="#97C9FF"/>
<path d="M80.5023 76.8133C68.2006 76.8133 58.2007 66.8134 58.2007 54.5117C58.2007 42.21 68.2006 32.2101 80.5023 32.2101C92.804 32.2101 102.804 42.21 102.804 54.5117C102.804 66.8134 92.804 76.8133 80.5023 76.8133ZM80.5023 39.8777C72.4384 39.8777 65.8683 46.4477 65.8683 54.5117C65.8683 62.5756 72.4384 69.1457 80.5023 69.1457C88.5663 69.1457 95.1363 62.5756 95.1363 54.5117C95.1363 46.4477 88.5663 39.8777 80.5023 39.8777Z" fill="#97C9FF"/>
<path d="M9.74078 32.2558C9.74078 32.2558 22.1644 26.6004 33.4296 31.3107C46.0972 36.6003 49.4355 55.8379 49.6185 55.8379C68.8256 55.2434 81.9962 54.4507 81.9962 54.4507C81.9962 54.4507 72.4994 31.5851 73.4445 29.3138C76.6152 21.6309 95.6089 16.6767 96.493 14.3749C97.3772 12.0731 94.4504 9.51211 88.7645 9.67979C83.0785 9.84747 62.2708 17.3322 62.2708 17.3322C62.2708 17.3322 55.6093 11.0212 45.5636 10.4572C38.3076 10.0456 32.6826 15.198 32.6826 15.198C32.6826 15.198 24.2376 1.26523 22.4998 0C22.4846 0 -2.75911 8.94809 9.74078 32.2558Z" fill="#CBE4FF"/>
<path d="M63.4751 19.7712L62.4385 17.1492C62.4385 17.1492 66.2494 11.9054 81.3865 10.8688C83.5968 10.7164 85.2889 14.3444 85.2889 14.3444L63.5208 21.4632L63.4751 19.7559V19.7712Z" fill="#97C9FF"/>
<path d="M49.6185 55.8379C49.6185 55.8379 85.6395 59.5421 85.5328 56.1275C85.4261 52.7129 76.2341 40.0301 76.2341 40.0301L49.6185 55.8379Z" fill="#CBE4FF"/>
<path d="M34.5919 30.4876L21.5184 53.9856L23.7563 55.2307L36.8298 31.7327L34.5919 30.4876Z" fill="#CBE4FF"/>
<path d="M22.3017 58.6428C24.5832 58.6428 26.4327 56.7932 26.4327 54.5117C26.4327 52.2302 24.5832 50.3806 22.3017 50.3806C20.0201 50.3806 18.1706 52.2302 18.1706 54.5117C18.1706 56.7932 20.0201 58.6428 22.3017 58.6428Z" fill="#CBE4FF"/>
<g opacity="0.45">
<path opacity="0.45" d="M8.61273 13.6889L32.6674 15.7773C32.6674 15.7773 17.8962 16.3413 8.61273 13.6889Z" fill="#97C9FF"/>
</g>
<path d="M54.0697 25.2589L49.5575 31.6613L50.9599 33.704L54.405 31.6765L54.6794 39.5576L58.5818 39.4813L56.6306 25.1827L54.0697 25.2589Z" fill="#97C9FF"/>
<path opacity="0.5" d="M1.35669 77.3469L103.795 77.7584C103.795 77.7584 41.1886 83.856 1.35669 77.3469Z" fill="#CBE4FF"/>
</g>
<defs>
<clipPath id="clip0_1649_40641">
<rect width="103.795" height="80.3499" fill="white"/>
</clipPath>
</defs>
</svg>
