<svg width="108" height="88" viewBox="0 0 108 88" fill="none" xmlns="http://www.w3.org/2000/svg">
<g clip-path="url(#clip0_1649_40642)">
<path d="M23.3534 83.8407C10.4725 83.8407 0 73.3682 0 60.4873C0 47.6063 10.4725 37.1338 23.3534 37.1338C36.2344 37.1338 46.7069 47.6063 46.7069 60.4873C46.7069 73.3682 36.2344 83.8407 23.3534 83.8407ZM23.3534 41.1277C12.6828 41.1277 3.99387 49.8166 3.99387 60.4873C3.99387 71.1579 12.6828 79.8468 23.3534 79.8468C34.0241 79.8468 42.713 71.1579 42.713 60.4873C42.713 49.8166 34.0241 41.1277 23.3534 41.1277Z" fill="#97C9FF"/>
<path d="M83.1852 83.8407C70.3043 83.8407 59.8318 73.3682 59.8318 60.4873C59.8318 47.6063 70.3043 37.1338 83.1852 37.1338C96.0662 37.1338 106.539 47.6063 106.539 60.4873C106.539 73.3682 96.0662 83.8407 83.1852 83.8407ZM83.1852 41.1277C72.5146 41.1277 63.8257 49.8166 63.8257 60.4873C63.8257 71.1579 72.5146 79.8468 83.1852 79.8468C93.8559 79.8468 102.545 71.1579 102.545 60.4873C102.545 49.8166 93.8559 41.1277 83.1852 41.1277Z" fill="#97C9FF"/>
<path d="M23.5363 61.2952L19.6644 60.3196L34.9997 0L45.2892 0.762188L44.9843 4.75605L38.0484 4.23777L23.5363 61.2952Z" fill="#CBE4FF"/>
<path d="M18.8108 17.5151L19.6035 27.2558C19.6035 27.2558 27.515 27.7589 28.8259 25.1217C31.9966 18.7346 26.7071 14.8779 18.8108 17.5151Z" fill="#CBE4FF"/>
<path d="M83.1852 65.1823C85.5677 65.1823 87.4992 63.2509 87.4992 60.8684C87.4992 58.4858 85.5677 56.5544 83.1852 56.5544C80.8026 56.5544 78.8712 58.4858 78.8712 60.8684C78.8712 63.2509 80.8026 65.1823 83.1852 65.1823Z" fill="#CBE4FF"/>
<path d="M21.5089 65.5634C23.8915 65.5634 25.8229 63.632 25.8229 61.2494C25.8229 58.8669 23.8915 56.9355 21.5089 56.9355C19.1264 56.9355 17.1949 58.8669 17.1949 61.2494C17.1949 63.632 19.1264 65.5634 21.5089 65.5634Z" fill="#CBE4FF"/>
<path d="M57.5452 24.2528C57.5452 24.2528 57.0117 26.4022 58.0787 27.1644C59.1458 27.9266 81.0053 28.8412 82.6212 28.079C84.237 27.3168 82.8956 24.5577 79.1151 23.3382C75.3347 22.1187 57.8196 23.6431 57.5452 24.2528Z" fill="#97C9FF"/>
<path d="M31.9819 24.8764L30.4948 27.0912L82.4455 61.9743L83.9326 59.7596L31.9819 24.8764Z" fill="#CBE4FF"/>
<path d="M35.96 37.2862C26.204 30.7314 9.92367 34.0546 9.75599 34.0851L9.20721 31.4784C9.92367 31.3259 26.7375 27.8961 37.4387 35.0759L35.96 37.2862Z" fill="#CBE4FF"/>
<path d="M32.8656 22.2864C32.8656 22.2864 37.0119 20.8077 38.7802 22.4388C40.5484 24.0699 40.8533 26.1431 40.8533 26.1431C40.8533 26.1431 74.2829 25.9906 77.6822 26.1431C81.0816 26.2955 98.9778 24.954 99.5723 26.4327C100.167 27.9113 72.8042 33.3838 72.8042 33.3838C72.8042 33.3838 63.3379 42.5606 59.7861 44.6185L30.7924 25.5333L32.8656 22.2864Z" fill="#CBE4FF"/>
<g opacity="0.32">
<path opacity="0.32" d="M43.7648 30.2741L64.8622 31.8442L56.3714 37.7588L43.7648 30.2741Z" fill="#97C9FF"/>
</g>
<path opacity="0.5" d="M5.12189 84.1151L107.56 84.5267C107.56 84.5267 44.9538 90.6242 5.12189 84.1151Z" fill="#CBE4FF"/>
</g>
<defs>
<clipPath id="clip0_1649_40642">
<rect width="107.56" height="87.1181" fill="white"/>
</clipPath>
</defs>
</svg>
