<svg width="108" height="84" viewBox="0 0 108 84" fill="none" xmlns="http://www.w3.org/2000/svg">
<g clip-path="url(#clip0_1649_40643)">
<path d="M23.1095 80.7615C10.3658 80.7615 0 70.3957 0 57.6519C0 44.9081 10.3658 34.5424 23.1095 34.5424C35.8533 34.5424 46.2191 44.9081 46.2191 57.6519C46.2191 70.3957 35.8533 80.7615 23.1095 80.7615ZM23.1095 37.2405C11.8596 37.2405 2.71339 46.3868 2.71339 57.6367C2.71339 68.8866 11.8596 78.0328 23.1095 78.0328C34.3594 78.0328 43.5057 68.8866 43.5057 57.6367C43.5057 46.3868 34.3594 37.2405 23.1095 37.2405Z" fill="#97C9FF"/>
<path d="M84.0694 80.7615C71.3256 80.7615 60.9598 70.3957 60.9598 57.6519C60.9598 44.9081 71.3256 34.5424 84.0694 34.5424C96.8132 34.5424 107.179 44.9081 107.179 57.6519C107.179 70.3957 96.8132 80.7615 84.0694 80.7615ZM84.0694 37.2405C72.8195 37.2405 63.6732 46.3868 63.6732 57.6367C63.6732 68.8866 72.8195 78.0328 84.0694 78.0328C95.3193 78.0328 104.466 68.8866 104.466 57.6367C104.466 46.3868 95.3193 37.2405 84.0694 37.2405Z" fill="#97C9FF"/>
<path d="M22.6522 58.2312L19.9998 57.7129L31.5089 0L41.4783 0.746944L41.2801 3.44509L33.704 2.88107L22.6522 58.2312Z" fill="#CBE4FF"/>
<path d="M82.5715 17.4158L82.0932 58.312L84.8064 58.3437L85.2847 17.4475L82.5715 17.4158Z" fill="#CBE4FF"/>
<path d="M28.7673 19.7911L28.5851 22.4984L83.6278 26.2026L83.81 23.4953L28.7673 19.7911Z" fill="#CBE4FF"/>
<path d="M29.5317 20.8497L28.0364 23.114L82.5432 59.1092L84.0385 56.845L29.5317 20.8497Z" fill="#CBE4FF"/>
<path d="M19.8474 15.5029L20.4572 23.0943C20.4572 23.0943 26.6309 23.4906 27.6522 21.4327C30.1217 16.448 26.0059 13.445 19.8474 15.5029Z" fill="#CBE4FF"/>
<path d="M84.0693 62.4232C86.494 62.4232 88.4595 60.4577 88.4595 58.033C88.4595 55.6084 86.494 53.6428 84.0693 53.6428C81.6447 53.6428 79.6791 55.6084 79.6791 58.033C79.6791 60.4577 81.6447 62.4232 84.0693 62.4232Z" fill="#CBE4FF"/>
<path d="M21.2346 62.8043C23.6592 62.8043 25.6248 60.8387 25.6248 58.4141C25.6248 55.9895 23.6592 54.0239 21.2346 54.0239C18.8099 54.0239 16.8444 55.9895 16.8444 58.4141C16.8444 60.8387 18.8099 62.8043 21.2346 62.8043Z" fill="#CBE4FF"/>
<path d="M71.9506 12.256C71.9506 12.256 71.4628 15.5029 72.4384 16.6614C73.414 17.82 93.1546 19.2224 94.618 18.0486C96.0814 16.8748 94.8619 12.7133 91.4473 10.8536C88.0327 8.99382 72.1945 11.3109 71.9506 12.2407V12.256Z" fill="#97C9FF"/>
<path d="M43.5971 40.6246C29.4814 24.4358 10.884 33.5363 10.1066 33.9326L8.88708 31.5089C9.1005 31.4022 30.1217 21.0364 45.655 38.8259L43.6124 40.6094L43.5971 40.6246Z" fill="#CBE4FF"/>
<path opacity="0.5" d="M4.71039 80.3346L107.148 80.7462C107.148 80.7462 44.5423 86.8437 4.71039 80.3346Z" fill="#CBE4FF"/>
</g>
<defs>
<clipPath id="clip0_1649_40643">
<rect width="107.194" height="83.3377" fill="white"/>
</clipPath>
</defs>
</svg>
