<?xml version="1.0" encoding="UTF-8"?> <svg xmlns="http://www.w3.org/2000/svg" id="Laag_1" viewBox="0 0 4010.4 1241.85"><defs><style>.cls-3{fill:#010101}</style></defs><circle cx="648.24" cy="610.53" r="517.33" style="fill:#fff"></circle><path d="M585.64 1240.69c-36.02-1.5-71.52-6.88-106.56-15.03-194.27-45.15-356.23-183.17-432.52-368.3-23.1-56.07-37.58-114.33-43.45-174.63-6.32-59.94-1.03-110.89-1.03-110.89 1.85-26.28 5.68-52.27 11.03-78.02 43.6-209.74 195.48-384.18 397.03-456.61C473 14.62 537.93 3.41 604.42.2c0 0 37.74-1.22 67.8 2.35 73.28 6.63 143.46 24.86 210.21 55.99 178.87 83.41 307.27 246.95 346.36 440.61 10.68 52.93 14.31 106.34 10.96 160.07-16.33 262.32-192.05 474.49-424.11 551.21-52.43 17.33-106.19 27.72-161.4 30.32-35.91 2.51-68.62-.06-68.62-.06Zm41.82-623.89c1.36 2.59 2.79 5.08 4.01 7.67 44.44 94.26 88.85 188.53 133.27 282.8 11.35 24.1 22.62 48.24 34.18 72.23 1.68 3.49 1.77 9.05 7.93 8.82 5.53-.21 5.58-5.2 7.06-8.51 84.44-189.1 168.78-378.24 253.08-567.4 1.16-2.6 3.23-5.02 2.66-8.14-2.19-1.87-4.62-1.13-6.84-1.13-41.32-.05-82.64-.04-123.95-.04-1.33 0-2.67.08-4 .02-3.06-.14-5.05 1.23-6.11 4.08-.82 2.18-1.68 4.35-2.54 6.51C884.6 518.98 843 624.24 801.35 729.49c-1.25 3.15-1.83 6.8-4.76 9.28-3.36-3.11-4.13-6.81-5.55-10.08-50.9-117.28-101.73-234.58-152.57-351.89-.93-2.14-1.64-4.43-2.9-6.35-2.27-3.44-6.66-3.41-9.01.01-1.12 1.62-1.77 3.57-2.59 5.39-16.49 36.39-32.97 72.79-49.45 109.18-37.07 81.9-74.12 163.8-111.23 245.68-1.25 2.76-1.68 6.3-5.48 8.14-1.33-3.33-2.49-6.04-3.51-8.79-6.68-18.11-13.33-36.24-20-54.36-33.23-90.28-66.47-180.57-99.71-270.84-3.34-9.06-3.38-9.09-12.38-9.09-42.98-.02-85.97-.02-128.95.03-2.81 0-5.83-.68-8.99 1.33 1.72 4.28 3.24 8.28 4.91 12.2 67.87 158.91 135.76 317.81 203.65 476.71 13.34 31.23 26.64 62.48 40.07 93.66 1.26 2.93 1.6 6.69 5.01 8.27 5.47 2.53 13.03-.28 15.74-5.71 1.19-2.38 2.27-4.82 3.41-7.23 55.11-116.84 110.21-233.68 165.36-350.5 1.24-2.63 1.68-5.83 5.06-7.75Z" style="fill:#017aff"></path><path class="cls-3" d="M1685.34 600.58c-3.62 3.63-3.99 7.79-5.27 11.47-25.72 73.81-51.37 147.65-77.01 221.48-3.86 11.11-2.58 8.84-12.29 8.88-27.99.12-55.97.05-83.96.04q-9.24 0-12.22-8.96c-39.47-119.02-78.93-238.05-118.4-357.07-6.58-19.84-13.17-39.69-19.72-59.44 3.04-1.64 5.74-1.09 8.35-1.09 35.65-.04 71.3-.04 106.95-.02 8.29 0 8.33.04 10.73 8 23.17 76.74 46.33 153.48 69.49 230.22.36 1.19.74 2.38 1.26 4.05 3.61-2.71 3.76-6.61 4.85-9.9 24.77-74.48 49.44-149 74.14-223.5.63-1.9 1.44-3.75 1.87-5.68.79-3.5 2.78-4.76 6.39-4.75 30.32.1 60.64.22 90.95-.08 5.77-.06 6.33 3.48 7.59 7.28 12.88 38.83 25.83 77.65 38.7 116.49 12.24 36.94 24.37 73.91 36.72 110.82.99 2.97.93 6.67 4.74 9.3 5.66-18.65 11.23-36.89 16.74-55.14 17.96-59.55 35.9-119.1 53.85-178.65 2.53-8.4 2.55-8.43 11.4-8.44 34.65-.01 69.3 0 103.95 0h7.02c1.47 3.87-.56 6.73-1.55 9.72-34.43 103.86-68.88 207.71-103.32 311.57-10.57 31.89-21.11 63.8-31.67 95.7q-3.18 9.6-13.84 9.61c-27.32 0-54.64.04-81.96-.01-12.13-.02-9.41 1.17-13.09-9.28-24.29-69.02-48.35-138.13-72.48-207.21-2.85-8.16-5.73-16.31-8.91-25.37ZM2895.24 798.52c-3.89.8-4.94 3.1-6.36 4.79-51.25 61.05-135.91 52.02-183.3 9.55-27.9-25-44.13-56.58-50.88-92.88-8.21-44.16-5.62-87.72 13.13-129.16 19.68-43.5 51.72-73.27 99.4-83.05 45.09-9.25 85.17 1.16 118.47 34.09 2.56 2.53 4.57 5.75 8.2 7.35 2.49-2.94 1.27-6.4 1.28-9.54.09-43.66.06-87.31.06-130.97 0-2.33.1-4.67 0-7-.15-3.06 1.39-4.04 4.22-3.97 4 .1 8 .01 11.99.01 29.65 0 59.31-.03 88.96.02 10.95.02 9.65-1.19 9.65 9.46.03 98.98.02 197.96.02 296.94v123.97c0 2.33-.1 4.67 0 7 .15 3.52-1.64 4.73-4.9 4.49-1.33-.1-2.66 0-4 0-32.32 0-64.64.02-96.96 0-8.93 0-8.95-.06-8.98-9.44-.03-10.26 0-20.53 0-31.64Zm-73.13-48.19c25.72.07 41.13-6.33 53.62-18.94 26.24-26.47 28.63-76.09 5.09-105.67-24.83-31.2-69.63-33.32-97.36-4.59-26.26 27.21-27.45 76.73-2.33 106.35 12.75 15.04 29.18 22.64 40.98 22.85ZM2178.5 847.5c-51.1-.98-96.74-17.17-133.13-55.13-28.28-29.5-43.23-64.99-45.62-105.87-5.28-90.15 59.06-163.36 144.59-178.42 49.08-8.64 96-2.2 138.16 25.01 56.61 36.55 82.6 89.53 78.07 156.94-4.62 68.79-55.2 133.42-134.83 152.15-15.31 3.6-30.86 5.01-47.23 5.32Zm-66.95-171.73c-.27 18.83 5.57 35.81 17.86 50.39 28.86 34.24 82.61 31.12 107.4-6.15 19.23-28.92 16.34-69.67-6.78-95.54-27.57-30.87-76.75-29.56-102.55 2.8-11.24 14.1-16.18 30.35-15.93 48.51ZM2525.64 572.91c2.97-.84 2.98-3.96 4.06-6.07 7.5-14.66 16.52-28.12 29.17-38.89 18.4-15.67 40.1-21.53 63.8-21.71 4.56-.04 5.49 1.95 5.48 5.98-.1 36.65-.11 73.29.01 109.94.01 4.38-1.54 5.76-5.82 5.68-11.67-.24-23.26.37-34.65 3.44-28.87 7.79-46.78 26.65-55.86 54.65-5.72 17.65-7.12 35.88-7.23 54.23-.18 29.98-.04 59.97-.06 89.95 0 9.43-.05 9.49-8.91 9.5-32.31.03-64.62 0-96.92.02-9.71 0-8.9.29-8.9-9.5V613.25c0-31.32-.03-62.63.02-93.95.01-7.09.13-7.23 6.92-7.24 33.64-.05 67.28 0 100.92-.05 6.93-.01 6.93-.08 6.9 7.34-.07 16.66-.04 33.32.02 49.97 0 1.15-.76 2.65 1.05 3.59ZM3101.98 415.87c13.92 0 27.88.08 41.84-.05 3.99-.04 5.34 1.63 5.01 5.4-.2 2.31-.03 4.66-.03 6.99 0 118.26-.01 236.52.02 354.78 0 14.01-1.39 12.39 12.09 12.4 70.94.04 141.88.02 212.82.02h4c11.73-.06 9.58.22 9.67 9.63.09 9.33-.26 18.67.12 27.98.22 5.42-1.91 7.21-6.94 6.62-1.31-.15-2.66-.02-3.99-.02-88.26 0-176.51.02-264.77-.02-11.3 0-10.79 1.89-10.79-10.56 0-134.25 0-268.5.02-402.75 0-3.27-.56-6.62.95-10.41ZM3790.09 442.94c-9.83-2.13-18.19-4.13-26.63-5.73-9.89-1.87-19.95-2.06-29.87-.69-18.82 2.6-31.57 13.05-38.06 31.04-3.91 10.82-4.79 22.08-5.23 33.41-.22 5.66-.02 11.33-.04 17-.03 10.64-.54 9.91 9.57 9.9 25.99-.02 51.98-.07 77.97.02 13.91.05 11.64-1.66 11.82 11.35.11 7.66-.16 15.34.09 22.99.14 4.35-1.47 5.78-5.78 5.72-13.66-.21-27.32-.07-40.98-.07-15.33 0-30.66.11-45.98-.07-4.09-.05-6.35.83-5.8 5.45.27 2.3.04 4.66.04 6.99v246.96c0 2.33-.13 4.67.03 7 .26 3.74-1.15 5.48-5.1 5.44-12.33-.13-24.66-.09-36.98-.02-3.25.02-5.04-1.11-4.89-4.62.11-2.66 0-5.33 0-8V581.04c0-2.33-.23-4.69.05-6.99.57-4.71-1.05-6.47-6.03-6.28-9.98.37-20-.14-29.98.21-5.1.18-7.14-1.26-6.9-6.64.38-8.65.06-17.33.11-25.99.05-8.26.09-8.31 7.98-8.37 9-.07 17.99.03 26.99-.03 7.63-.05 7.73-.11 7.75-7.45.04-13.33-.17-26.65 1.3-39.94 1.29-11.66 3.94-22.99 8.53-33.76 11.99-28.12 33.78-44.08 63.46-48.92 21.9-3.57 43.81-2.19 65.37 3.56 5.17 1.38 7.73 3.46 7.36 9.54-.65 10.58-.18 21.23-.18 32.97ZM4009.54 793.18c0 11.53-.14 23.13.08 34.72.07 3.87-2.19 5.08-5.03 6.37-9.13 4.16-18.58 7.36-28.51 8.82-18.28 2.68-36.49 2.74-54.48-2.23-30.41-8.4-47.73-28.73-54.01-59.17-1.76-8.54-2.17-17.16-2.16-25.85.03-58.66.02-117.33.02-175.99 0-2.33-.21-4.69.04-6.99.46-4.2-1.75-5.05-5.33-5.02-10.33.1-20.66.09-30.99.01-7.25-.06-7.36-.14-7.44-6.88-.1-9.66.15-19.34-.1-29-.11-4.41 1.53-5.78 5.8-5.69 10.66.22 21.33-.15 31.99.17 4.97.15 6.14-1.72 6.11-6.38-.19-25.66-.09-51.33-.09-76.99 0-2.33.08-4.67 0-7-.11-3.04 1.43-4 4.27-3.98 12.33.06 24.66.14 36.99-.04 3.94-.06 5.31 1.41 5.12 5.23-.22 4.32-.05 8.66-.05 13 0 23-.04 46 .02 69 .02 6.91.15 7.04 7.2 7.06 27.66.06 55.32 0 82.97.04 8.19.01 8.25.08 8.31 8 .07 9-.24 18.01.11 26.99.21 5.4-1.9 6.66-6.98 6.61-26.66-.22-53.32-.1-79.97-.1-2.33 0-4.67.1-7-.01-3.32-.17-4.99 1.11-4.68 4.62.14 1.65.02 3.33.02 5 0 56.33 0 112.66.02 168.99 0 5.66.11 11.29 1.12 16.92 4.27 23.88 18.4 36.89 42.56 38.76 16.18 1.26 31.89-.65 46.94-7.08 2.07-.88 4.02-2.41 7.14-1.9ZM3471.87 683.31V537.46c0-2.33.06-4.66 0-6.99-.07-2.95 1.37-4.12 4.24-4.11 12.65.04 25.3.09 37.95-.04 3.69-.04 4.51 1.84 4.42 4.93-.07 2.33 0 4.66 0 6.99v289.7c0 1 .01 2 0 3-.1 8.6-.1 8.63-8.69 8.67-9.65.04-19.31-.03-28.96.02-10.07.05-8.95-.05-8.95-9.47V683.31ZM3468.93 406.45c16.78 0 32.38.1 47.98-.07 3.93-.04 5.21 1.39 5.17 5.2-.14 13.96-.11 27.92-.02 41.89.02 3.3-1.09 4.73-4.59 4.7-14.62-.13-29.25-.12-43.87 0-3.45.03-4.71-1.36-4.69-4.67.06-15.25.03-30.51.03-47.06Z"></path></svg> 