<?xml version="1.0" encoding="utf-8"?>
<!-- Generator: Adobe Illustrator 19.2.1, SVG Export Plug-In . SVG Version: 6.00 Build 0)  -->
<svg version="1.1" id="Layer_1" xmlns="http://www.w3.org/2000/svg" xmlns:xlink="http://www.w3.org/1999/xlink" x="0px" y="0px"
	 viewBox="0 0 40 40" style="enable-background:new 0 0 40 40;" xml:space="preserve">
<style type="text/css">
	.st0{fill:#CBCBCB;stroke:#CBCBCB;stroke-miterlimit:10;}
</style>
<polygon class="st0" points="21.1,28.6 20.6,28.6 20.6,24.8 21.2,24.8 "/>
<path class="st0" d="M7.6,25.2L7,25.1c-3-0.3-5.3-2.9-5.2-5.9c0-3.3,2.7-5.9,5.9-5.9l0,0c1.3-3.6,4.6-5.9,8.4-5.9
	c0.9,0,1.8,0.1,2.6,0.4C20.1,6.1,22.3,5,24.5,5c1.9,0,3.7,0.8,5.1,2.1c1.3,1.3,2,3,2.1,4.8c0.1,0,0.2,0,0.3,0c3.6,0,6.6,3,6.6,6.7
	c0,3.5-2.8,6.4-6.3,6.6l0,0L7.6,25.2z M7.5,24.6L7.5,24.6h0.4l24,0.1c3.3,0,6-2.7,6.1-6c0-3.3-2.7-6.1-6-6.1c-0.2,0-0.4,0-0.5,0
	h-0.3v-0.3c0-1.8-0.7-3.5-1.9-4.7c-1.3-1.3-2.9-2-4.7-2c-2.2,0-4.2,1-5.5,2.8L19,8.5l-0.2-0.1C17.9,8.2,17.1,8,16.1,8
	c-3.6,0-6.8,2.3-8,5.7L8,13.9H7.6c-2.9,0-5.4,2.4-5.4,5.3c0,2.8,2.2,5.2,5,5.4H7.5z"/>
<g>
	
		<rect x="12.2" y="27.8" transform="matrix(5.828349e-03 -1 1 5.828349e-03 -19.6763 44.2707)" class="st0" width="0.5" height="8.5"/>
	
		<rect x="29.1" y="27.9" transform="matrix(5.828349e-03 -1 1 5.828349e-03 -2.8726 61.313)" class="st0" width="0.5" height="8.5"/>
	
		<rect x="17.2" y="26.1" transform="matrix(5.828349e-03 -1 1 5.828349e-03 -12.0706 53.2597)" class="st0" width="7.2" height="13.3"/>
</g>
</svg>
