<?xml version="1.0" encoding="UTF-8"?>
<svg width="42px" height="42px" viewBox="0 0 42 42" version="1.1" xmlns="http://www.w3.org/2000/svg" xmlns:xlink="http://www.w3.org/1999/xlink">
    <title>Chord</title>
    <g id="Page-1" stroke="none" stroke-width="1" fill="none" fill-rule="evenodd">
        <g id="Entities-Timeline-Copy" transform="translate(-794.000000, -215.000000)">
            <g id="Chord" transform="translate(794.000000, 215.000000)">
                <rect id="Rectangle-Copy-6" x="0" y="0" width="42" height="42"></rect>
                <g id="chord-copy" transform="translate(4.000000, 5.000000)" fill="#000000" fill-rule="nonzero">
                    <path d="M33.8171937,11.4337945 C33.5335968,10.6106719 33.1116601,9.83596838 32.7173913,9.05434783 C32.6482213,8.91600791 32.4061265,8.78458498 32.2539526,8.79150198 C32.1225296,8.79841897 31.9565217,8.99209486 31.8942688,9.13735178 C31.8527668,9.24110672 31.9357708,9.42094862 31.9980237,9.55237154 C32.3922925,10.458498 32.8349802,11.3438735 33.18083,12.270751 C33.4644269,13.0385375 33.6304348,13.8547431 33.8517787,14.6501976 C33.8102767,14.6778656 33.7687747,14.6986166 33.7341897,14.7262846 C31.8250988,13.6333992 29.9090909,12.5405138 28.006917,11.4476285 C28.034585,11.3784585 28.041502,11.3507905 28.055336,11.3369565 C29.1274704,10.3893281 30.1926877,9.4416996 31.2648221,8.50098814 C31.3201581,8.45256917 31.4031621,8.41106719 31.479249,8.3972332 C32.0395257,8.25197628 32.1294466,8.01679842 31.7974308,7.54644269 C29.798419,4.70355731 27.1768775,2.64229249 23.9604743,1.34189723 C21.0968379,0.186758893 18.1225296,-0.186758893 15.0513834,0.235177866 C14.7539526,0.276679842 14.5741107,0.415019763 14.5879447,0.726284585 C14.5948617,1.00296443 14.8438735,1.14822134 15.1689723,1.11363636 C15.708498,1.0583004 16.2480237,1.01679842 16.7875494,0.954545455 C17.0088933,0.92687747 17.1126482,1.00988142 17.2164032,1.20355731 C17.9496047,2.61462451 18.6966403,4.0187747 19.4367589,5.4229249 C19.4782609,5.50592885 19.5128458,5.5958498 19.5474308,5.67885375 C18.6482213,5.01482213 17.8181818,4.30237154 16.9881423,3.59683794 C15.9782609,2.73913043 14.9614625,1.89525692 13.951581,1.0444664 C13.9031621,1.00296443 13.8409091,0.954545455 13.8201581,0.89229249 C13.6818182,0.567193676 13.4328063,0.532608696 13.1353755,0.615612648 C7.88537549,2.07509881 4.05335968,5.25 1.65316206,10.1403162 C1.49407115,10.458498 1.55632411,10.6936759 1.80533597,10.8250988 C2.04743083,10.9496047 2.2826087,10.8458498 2.4416996,10.541502 C2.71146245,10.0296443 2.9743083,9.51778656 3.25098814,9.01284585 C3.34782609,8.83992095 3.46541502,8.68083004 3.57608696,8.52173913 C3.60375494,8.53557312 3.62450593,8.54249012 3.65217391,8.55632411 C3.79051383,10.437747 3.92885375,12.326087 4.06719368,14.2075099 C4.0256917,14.2282609 3.98418972,14.2490119 3.94268775,14.2697628 C3.26482213,13.5849802 2.58695652,12.9001976 1.90909091,12.215415 C1.88833992,12.194664 1.85375494,12.1600791 1.85375494,12.1324111 C1.83992095,11.7450593 1.59782609,11.5721344 1.24505929,11.4960474 C1.17588933,11.5790514 1.07905138,11.6620553 1.01679842,11.7658103 C0.954545455,11.8695652 0.919960474,11.9940711 0.878458498,12.1185771 C-0.0138339921,14.8577075 -0.200592885,17.6452569 0.269762846,20.4812253 C0.511857708,21.9407115 0.933794466,23.3517787 1.54940711,24.7005929 C1.70849802,25.0464427 1.95059289,25.1294466 2.23418972,25.0049407 C2.58003953,24.8596838 2.94664032,24.7559289 3.36166008,24.6175889 C3.18873518,25.2677866 3.01581028,25.4822134 2.57312253,25.7312253 C2.33794466,25.8626482 2.26185771,26.0770751 2.38636364,26.31917 C2.50395257,26.5543478 2.64920949,26.7687747 2.7944664,26.9901186 C4.14328063,29.0859684 5.86561265,30.8152174 7.94762846,32.1709486 C8.45948617,32.5029644 8.99209486,32.8003953 9.53162055,33.0909091 C9.83596838,33.256917 10.1472332,33.1600791 10.2094862,32.8764822 C10.3478261,32.2608696 10.9081028,31.9703557 11.2401186,31.5 C11.2332016,31.7420949 11.1986166,31.9703557 11.1432806,32.1847826 C11.0741107,32.4614625 11.0464427,32.7658103 10.9081028,33.0009881 C10.6798419,33.3952569 10.7144269,33.6442688 11.1432806,33.8033597 C11.7173913,34.0108696 12.291502,34.2114625 12.8794466,34.3774704 C14.083004,34.7164032 15.3073123,34.916996 16.5523715,34.972332 C17.0296443,34.993083 17.1749012,34.8270751 17.1195652,34.3567194 C17.1057312,34.2252964 17.1403162,34.0869565 17.1749012,33.9624506 C17.7697628,32.0049407 18.2539526,30.0266798 18.4130435,27.986166 C18.5375494,26.4505929 18.6274704,24.8873518 17.527668,23.4901186 C17.7559289,23.3448617 17.9565217,23.1166008 18.1778656,23.0958498 C20.3567194,22.9090909 22.5424901,22.75 24.7282609,22.5909091 C24.7766798,22.5839921 24.8320158,22.6047431 24.8873518,22.6116601 C24.8942688,22.68083 24.9011858,22.722332 24.9011858,22.770751 C24.9496047,26.4021739 24.1264822,29.8468379 22.6116601,33.1393281 C22.5563241,33.263834 22.3972332,33.3883399 22.2658103,33.4229249 C21.4980237,33.6096838 20.7233202,33.7895257 19.9416996,33.9347826 C19.4644269,34.0247036 18.9802372,34.0385375 18.5029644,34.0938735 C18.2262846,34.1284585 18.0395257,34.2806324 18.0602767,34.5711462 C18.0810277,34.8547431 18.2747036,34.993083 18.5583004,34.979249 C18.6966403,34.972332 18.8349802,34.965415 18.9733202,34.951581 C20.9031621,34.7786561 22.756917,34.3083004 24.534585,33.5266798 C26.5059289,32.6551383 28.2628458,31.472332 29.784585,29.9505929 C29.9021739,29.833004 29.9851779,29.6047431 29.9644269,29.4387352 C29.9160079,29.0583004 29.75,28.6986166 29.701581,28.3181818 C29.4525692,26.3952569 29.0029644,24.513834 28.4150198,22.673913 C28.3804348,22.5701581 28.3596838,22.4664032 28.3320158,22.3418972 C30.0750988,22.2035573 31.7628458,22.0721344 33.4920949,21.9337945 C33.4575099,22.0583004 33.4436759,22.1274704 33.4298419,22.1897233 C32.7934783,24.3478261 31.7490119,26.298419 30.3310277,28.041502 C30.1096838,28.3181818 30.1166008,28.5671937 30.3310277,28.7401186 C30.5385375,28.9061265 30.8152174,28.8577075 31.0158103,28.5879447 C31.4100791,28.062253 31.8250988,27.5503953 32.1709486,26.9970356 C35.1729249,22.0790514 35.7193676,16.8843874 33.8171937,11.4337945 Z M29.6185771,12.9901186 C30.9673913,13.7579051 32.3231225,14.5118577 33.6719368,15.2865613 C33.7895257,15.3557312 33.8794466,15.4733202 33.9762846,15.5701581 C33.9486166,15.6116601 33.9140316,15.6600791 33.8863636,15.701581 C31.6383399,14.5741107 29.3903162,13.4397233 27.0800395,12.284585 C27.2944664,12.0978261 27.4397233,11.9733202 27.6126482,11.8211462 C28.2490119,12.194664 28.9268775,12.6027668 29.6185771,12.9901186 Z M22.3557312,10.0780632 C22.6600791,10.2994071 23.0820158,10.451581 23.2411067,10.7490119 C23.5108696,11.2608696 23.5869565,11.2401186 22.9367589,11.6482213 C22.722332,11.1432806 22.5148221,10.6383399 22.3003953,10.1403162 C22.3211462,10.1195652 22.3349802,10.0988142 22.3557312,10.0780632 Z M21.1660079,7.63636364 C21.6709486,7.98913043 22.1966403,8.24505929 22.5632411,8.63932806 C22.812253,8.91600791 22.8537549,9.38636364 22.9920949,9.78754941 C21.8922925,9.48320158 21.5395257,8.59782609 21.1660079,7.63636364 Z M23.3586957,9.14426877 C23.9120553,9.50395257 24.3893281,9.8083004 24.9011858,10.1472332 C24.7005929,10.2994071 24.534585,10.437747 24.3547431,10.562253 C24.2233202,10.6521739 23.7667984,10.444664 23.6837945,10.2302372 C23.5662055,9.89822134 23.4832016,9.55928854 23.3586957,9.14426877 Z M23.0059289,13.3567194 C23.1926877,13.9031621 23.3863636,14.4426877 23.5454545,14.9960474 C23.5800395,15.1205534 23.5523715,15.3211462 23.4693676,15.4179842 C22.3073123,16.8359684 21.1383399,18.2401186 19.9555336,19.6442688 C19.8794466,19.7341897 19.7272727,19.8448617 19.6304348,19.8310277 C18.4476285,19.6788538 17.2648221,19.5059289 15.9851779,19.326087 C18.0948617,16.8567194 20.2667984,14.6225296 22.715415,12.5681818 C22.81917,12.8517787 22.9229249,13.1007905 23.0059289,13.3567194 Z M23.7598814,15.8814229 C23.8013834,15.8883399 23.8428854,15.8883399 23.8843874,15.8952569 C24.1749012,17.3270751 24.465415,18.7658103 24.7766798,20.2875494 C23.2756917,20.1768775 21.8853755,20.0731225 20.3774704,19.9555336 C21.5533597,18.5444664 22.6531621,17.2164032 23.7598814,15.8814229 Z M23.7114625,13.7648221 C23.5800395,13.3843874 23.4416996,13.0039526 23.3033597,12.6304348 C23.1304348,12.1462451 23.1304348,12.1531621 23.6353755,11.8626482 C23.9120553,12.6096838 24.1887352,13.3290514 24.437747,14.055336 C24.472332,14.1521739 24.4100791,14.3043478 24.3478261,14.4081028 C24.2786561,14.5256917 24.1679842,14.6156126 24.0434783,14.7539526 C23.9328063,14.4011858 23.8290514,14.083004 23.7114625,13.7648221 Z M24.1403162,11.5721344 C24.1195652,11.5167984 24.1610672,11.3853755 24.2025692,11.3784585 C24.2855731,11.3577075 24.4031621,11.3507905 24.479249,11.3922925 C25.0533597,11.7104743 25.6205534,12.0424901 26.222332,12.3883399 C25.7934783,12.8517787 25.3853755,13.2875494 24.9357708,13.7717391 C24.6590909,13.0108696 24.3962451,12.298419 24.1403162,11.5721344 Z M24.7766798,10.9496047 C24.8250988,10.8942688 24.8458498,10.8666008 24.8735178,10.8389328 C25.3715415,10.423913 25.3646245,10.423913 25.9179842,10.7697628 C26.298419,11.0118577 26.6788538,11.2401186 27.0938735,11.4960474 C26.9347826,11.6620553 26.7826087,11.8211462 26.6304348,11.9802372 C26.5197628,11.9249012 26.4298419,11.8764822 26.3399209,11.8280632 C25.8211462,11.5444664 25.3162055,11.2539526 24.7766798,10.9496047 Z M31.0019763,7.95454545 C29.826087,8.99901186 28.6501976,10.0296443 27.4535573,11.0948617 C26.9555336,10.7905138 26.4160079,10.465415 25.8142292,10.0918972 C27.3498024,9.06818182 28.8300395,8.07905138 30.3448617,7.07608696 C30.5938735,7.40810277 30.8013834,7.68478261 31.0019763,7.95454545 Z M21.9545455,1.55632411 C25.1363636,2.46936759 27.8063241,4.16403162 29.9851779,6.6541502 C28.4150198,7.7055336 26.8863636,8.72924901 25.3162055,9.78063241 C24.6452569,9.33794466 23.9328063,8.87450593 23.2272727,8.4041502 C23.1511858,8.35573123 23.0958498,8.24505929 23.0681818,8.14822134 C22.5079051,6.01778656 22.0998024,3.86660079 21.9199605,1.66699605 C21.9268775,1.64624506 21.9407115,1.62549407 21.9545455,1.55632411 Z M17.8043478,1.19664032 C17.7697628,1.12747036 17.7490119,1.0513834 17.7075099,0.947628458 C18.9041502,0.975296443 20.0523715,1.10671937 21.1867589,1.36956522 C21.2697628,1.39031621 21.3735178,1.51482213 21.3804348,1.59782609 C21.5602767,3.69367589 21.9268775,5.76185771 22.4456522,7.88537549 C21.8300395,7.44268775 21.2697628,7.04150198 20.7164032,6.63339921 C20.6403162,6.57806324 20.5780632,6.4812253 20.5296443,6.39130435 C19.6166008,4.65513834 18.7104743,2.92588933 17.8043478,1.19664032 Z M14.0899209,1.78458498 C15.0583004,2.65612648 16.0405138,3.51383399 17.0296443,4.35079051 C17.9150198,5.10474308 18.8142292,5.83794466 19.7341897,6.55731225 C20.0385375,6.79940711 20.2944664,7.05533597 20.4466403,7.42193676 C20.5918972,7.76778656 20.7717391,8.09980237 20.9031621,8.46640316 C17.9496047,6.50197628 15.2173913,4.28162055 12.7756917,1.66699605 C13.2598814,1.41106719 13.6749012,1.4041502 14.0899209,1.78458498 Z M10.3063241,2.51086957 C10.9011858,3.33399209 11.4683794,4.08794466 12.0009881,4.86264822 C12.9624506,6.25988142 13.8339921,7.7055336 14.4565217,9.28952569 C14.7608696,10.0642292 14.9822134,10.8596838 14.9199605,11.7104743 C14.8300395,12.9071146 13.8201581,13.6749012 12.6719368,13.3428854 C12.0424901,13.1561265 11.4130435,12.8656126 10.8873518,12.4851779 C8.58399209,10.8320158 6.88241107,8.62549407 5.18774704,6.2944664 C6.8270751,4.95256917 8.50790514,3.70059289 10.3063241,2.51086957 Z M5.09090909,7.11067194 C5.66501976,7.83003953 6.18379447,8.51482213 6.73715415,9.17193676 C8.02371542,10.6867589 9.35869565,12.1600791 11.0810277,13.1907115 C11.6205534,13.5158103 12.25,13.7579051 12.8656126,13.8824111 C14.1452569,14.1383399 15.2519763,13.2529644 15.3903162,11.9525692 C15.4940711,10.9980237 15.2658103,10.0988142 14.9337945,9.22035573 C14.2282609,7.33201581 13.1699605,5.63043478 12.0217391,3.98418972 C11.6482213,3.44466403 11.2539526,2.91897233 10.8250988,2.34486166 C11.2401186,2.18577075 11.6205534,2.02667984 12.0148221,1.90217391 C12.1047431,1.87450593 12.263834,1.9298419 12.326087,2.00592885 C14.9683794,4.82806324 17.9703557,7.22826087 21.1867589,9.37252964 C21.3320158,9.46936759 21.4565217,9.6215415 21.5256917,9.78063241 C21.8369565,10.458498 22.1136364,11.1571146 22.4179842,11.8418972 C22.4871542,12.0009881 22.4664032,12.0978261 22.3280632,12.215415 C19.8656126,14.2628458 17.6452569,16.5523715 15.5632411,18.9802372 C15.4802372,19.0770751 15.2796443,19.1600791 15.1620553,19.1324111 C11.8972332,18.4476285 8.76383399,17.416996 5.90711462,15.6462451 C5.66501976,15.4940711 5.54051383,15.3349802 5.52667984,15.0306324 C5.39525692,12.5197628 5.23616601,10.0158103 5.08399209,7.50494071 C5.08399209,7.38043478 5.09090909,7.27667984 5.09090909,7.11067194 Z M5.49209486,23.4278656 C5.49901186,23.5523715 5.49209486,23.6768775 5.49209486,23.8359684 C5.04249012,23.8982213 4.60671937,23.9604743 4.11561265,24.0296443 C4.7173913,21.1867589 4.70355731,18.3300395 4.61363636,15.4387352 C4.8972332,15.5563241 5.05632411,15.68083 5.0701581,15.9782609 C5.20158103,18.4683794 5.35375494,20.944664 5.49209486,23.4278656 Z M4.5444664,7.20750988 C4.69664032,9.8083004 4.84881423,12.3745059 5.00098814,14.9683794 C4.66205534,14.8577075 4.58596838,14.6571146 4.56521739,14.3527668 C4.42687747,12.277668 4.26778656,10.1956522 4.11561265,8.12055336 C4.08102767,7.66403162 4.12252964,7.59486166 4.5444664,7.20750988 Z M3.20256917,24.1749012 C2.2826087,24.2924901 2.30335968,24.2924901 1.95750988,23.4347826 C1.0583004,21.2213439 0.85770751,18.9041502 1.03754941,16.5523715 C1.12747036,15.3972332 1.32806324,14.2559289 1.48023715,13.1007905 C1.49407115,12.9901186 1.54249012,12.8863636 1.5770751,12.7756917 C2.37944664,13.4950593 3.16106719,14.1867589 3.92885375,14.8922925 C4.00494071,14.9614625 4.06027668,15.0859684 4.06027668,15.1897233 C4.14328063,18.0533597 4.25395257,20.923913 3.63833992,23.7529644 C3.58300395,24.0227273 3.47924901,24.1403162 3.20256917,24.1749012 Z M3.24407115,26.0839921 C3.46541502,25.6136364 3.6729249,25.1709486 3.88735178,24.7351779 C3.91501976,24.6729249 3.99110672,24.6037549 4.05335968,24.5968379 C4.53754941,24.520751 5.02173913,24.451581 5.54051383,24.3754941 C5.63735178,26.0424901 5.73418972,27.6679842 5.83794466,29.3764822 C4.78656126,28.3458498 3.94960474,27.2460474 3.24407115,26.0839921 Z M5.5958498,16.0543478 C8.53557312,17.8596838 11.6828063,18.9041502 14.9960474,19.6235178 C14.8300395,19.8310277 14.6847826,20.0108696 14.5395257,20.1837945 C13.8201581,21.06917 13.1077075,21.9545455 12.3745059,22.826087 C12.270751,22.9505929 12.0909091,23.0681818 11.9318182,23.0889328 C9.98814229,23.3171937 8.0444664,23.5177866 6.04545455,23.7391304 C5.90019763,21.2075099 5.74802372,18.6689723 5.5958498,16.0543478 Z M6.08003953,24.2924901 C7.94071146,24.0780632 9.76679842,23.8705534 11.5928854,23.6630435 C10.0088933,25.7727273 8.30039526,27.7509881 6.39130435,29.666996 C6.28754941,27.8409091 6.18379447,26.0909091 6.08003953,24.2924901 Z M9.78754941,32.3231225 C8.73616601,31.6175889 7.7055336,30.9328063 6.63339921,30.2134387 C7.13833992,29.68083 7.58794466,29.2519763 7.99604743,28.7816206 C9.42786561,27.1422925 10.8458498,25.4960474 12.263834,23.8428854 C12.4160079,23.6630435 12.5750988,23.5731225 12.8171937,23.5592885 C13.5158103,23.5108696 14.2075099,23.4416996 14.9337945,23.3725296 C12.9901186,25.1571146 12.3675889,27.5503953 11.6551383,29.9021739 C11.6205534,30.0197628 11.5928854,30.1581028 11.5237154,30.2480237 C10.9634387,30.9258893 10.4031621,31.5899209 9.78754941,32.3231225 Z M15.0167984,24.0088933 C15.4871542,23.5662055 16.0681818,23.4278656 16.7598814,23.7114625 C15.3349802,25.5029644 13.937747,27.2667984 12.4782609,29.0998024 C12.4782609,28.9614625 12.4644269,28.9130435 12.4782609,28.8715415 C12.8586957,27.6403162 13.2598814,26.4160079 13.944664,25.3092885 C14.2420949,24.8320158 14.6156126,24.3893281 15.0167984,24.0088933 Z M17.9357708,26.0217391 C18.0533597,27.6610672 17.7835968,29.2588933 17.416996,30.8428854 C17.1679842,31.9288538 16.8636364,33.0009881 16.5731225,34.1146245 C14.8092885,33.9555336 13.1561265,33.5750988 11.4683794,33.0355731 C11.6620553,32.1778656 11.8488142,31.3547431 12.0355731,30.5247036 C12.0563241,30.4416996 12.1254941,30.3656126 12.18083,30.2964427 C13.7994071,28.2628458 15.4249012,26.229249 17.0434783,24.1887352 C17.0849802,24.1333992 17.1333992,24.0849802 17.2025692,24.0088933 C17.7490119,24.6037549 17.8873518,25.3023715 17.9357708,26.0217391 Z M17.6867589,22.5148221 C17.6383399,22.5770751 17.527668,22.6116601 17.444664,22.6185771 C15.9920949,22.75 14.5326087,22.8745059 13.0800395,23.0059289 C13.0662055,23.0059289 13.0454545,22.9851779 12.9970356,22.9575099 C13.4743083,22.3764822 13.944664,21.7954545 14.4150198,21.2213439 C14.7677866,20.7924901 15.1136364,20.3636364 15.4733202,19.9486166 C15.5424901,19.8656126 15.68083,19.7756917 15.770751,19.7895257 C16.9535573,19.9762846 18.1294466,20.1768775 19.3745059,20.3843874 C18.8003953,21.1106719 18.2470356,21.8162055 17.6867589,22.5148221 Z M18.3853755,22.5424901 C18.4614625,22.4249012 18.5029644,22.3488142 18.5583004,22.2796443 C18.9940711,21.7262846 19.4229249,21.1729249 19.8725296,20.6333992 C19.9486166,20.5434783 20.0938735,20.4466403 20.1976285,20.4535573 C21.7124506,20.5711462 23.2203557,20.7025692 24.7697628,20.8339921 C24.7974308,21.2351779 24.8250988,21.6225296 24.8527668,22.0583004 C22.701581,22.2173913 20.5780632,22.3764822 18.3853755,22.5424901 Z M24.3685771,15.8814229 C24.2440711,15.2865613 24.2302372,15.2519763 24.7628458,14.8369565 C25.4960474,16.6630435 26.229249,18.4752964 26.9693676,20.3013834 C26.4160079,20.3013834 25.9110672,20.3083004 25.4130435,20.2875494 C25.3438735,20.2875494 25.2401186,20.1284585 25.2193676,20.0316206 C24.9288538,18.6551383 24.6660079,17.2648221 24.3685771,15.8814229 Z M27.0454545,20.8893281 C27.1146245,20.8893281 27.2114625,21 27.2460474,21.083004 C27.3428854,21.3112648 27.4189723,21.5533597 27.5227273,21.8646245 C26.7826087,21.9199605 26.1047431,21.9683794 25.3853755,22.0237154 C25.3577075,21.6225296 25.3369565,21.2490119 25.3162055,20.8824111 C25.9041502,20.8754941 26.4782609,20.8754941 27.0454545,20.8893281 Z M28.9960474,27.4535573 C29.1136364,27.944664 29.1551383,28.4565217 29.1966403,28.9545455 C29.2104743,29.0928854 29.1620553,29.2865613 29.0652174,29.3764822 C27.4743083,30.9535573 25.6343874,32.1501976 23.5523715,32.9733202 C23.4693676,33.0079051 23.3794466,33.0217391 23.2065217,33.0770751 C24.6936759,29.687747 25.4683794,26.222332 25.4061265,22.5563241 C26.1531621,22.5009881 26.8586957,22.4318182 27.5711462,22.4041502 C27.6472332,22.3972332 27.7786561,22.5632411 27.8063241,22.673913 C28.2144269,24.2579051 28.6225296,25.8557312 28.9960474,27.4535573 Z M33.18083,21.4288538 C31.5968379,21.5326087 30.0128458,21.6571146 28.4288538,21.8023715 C28.1521739,21.8300395 28.027668,21.7539526 27.972332,21.4980237 C27.93083,21.3112648 27.8547431,21.1314229 27.7786561,20.9100791 C29.763834,20.9100791 31.7144269,20.9100791 33.6857708,20.9100791 C33.7203557,21.2974308 33.5405138,21.4011858 33.18083,21.4288538 Z M33.4851779,20.3636364 C32.5513834,20.3498024 31.6175889,20.3567194 30.6837945,20.3567194 C30.6837945,20.3567194 30.6837945,20.3636364 30.6837945,20.3636364 C29.75,20.3636364 28.8162055,20.3567194 27.8824111,20.3705534 C27.6541502,20.3705534 27.5434783,20.3083004 27.4535573,20.0869565 C26.7480237,18.2885375 26.0286561,16.4970356 25.2954545,14.7124506 C25.1778656,14.4288538 25.1986166,14.2420949 25.4268775,14.020751 C25.8073123,13.6541502 26.1600791,13.2529644 26.5128458,12.8656126 C26.6442688,12.7203557 26.7480237,12.6788538 26.9486166,12.7826087 C29.2104743,13.937747 31.486166,15.0790514 33.7549407,16.2134387 C33.9486166,16.3102767 34.0454545,16.4209486 34.0316206,16.6284585 C33.9762846,17.7559289 33.9140316,18.8764822 33.8725296,20.0039526 C33.8656126,20.2737154 33.7687747,20.3705534 33.4851779,20.3636364 Z" id="Shape"></path>
                </g>
            </g>
        </g>
    </g>
</svg>