<?xml version="1.0" encoding="UTF-8"?>
<svg width="42px" height="42px" viewBox="0 0 42 42" version="1.1" xmlns="http://www.w3.org/2000/svg" xmlns:xlink="http://www.w3.org/1999/xlink">
    <title>Context_Cards</title>
    <g id="Page-1" stroke="none" stroke-width="1" fill="none" fill-rule="evenodd">
        <g id="Entities-Timeline-Copy" transform="translate(-740.000000, -164.000000)">
            <g id="Context_Cards" transform="translate(740.000000, 164.000000)">
                <rect id="Rectangle" x="0" y="0" width="42" height="42"></rect>
                <g id="web-browser" transform="translate(4.000000, 4.000000)" fill="#000000" fill-rule="nonzero">
                    <path d="M0.51349263,7.48679101 C0.797077493,7.48679101 1.02698526,7.25688325 1.02698526,6.97329838 L1.02698526,6.04264434 L31.3982942,6.04264434 L31.3982942,10.9074051 C31.3982942,11.1909899 31.6281335,11.4208977 31.9117869,11.4208977 C32.1954402,11.4208977 32.4252795,11.1909899 32.4252795,10.9074051 L32.4252795,2.16385794 C32.4252795,0.974540546 31.4577224,0.00698349977 30.268405,0.00698349977 L2.15680598,0.00698349977 C0.967557047,0.00698349977 0,0.974540546 0,2.16385794 L0,6.97329838 C0,7.25688325 0.229907767,7.48679101 0.51349263,7.48679101 Z M2.15680598,1.03396876 L30.268405,1.03396876 C30.8914428,1.03396876 31.3982942,1.54082022 31.3982942,2.16385794 L31.3982942,5.01565908 L1.02698526,5.01565908 L1.02698526,2.16385794 C1.02698526,1.54082022 1.53383672,1.03396876 2.15680598,1.03396876 Z" id="Shape"></path>
                    <path d="M11.3168983,31.4052777 L2.15680598,31.4052777 C1.53376825,31.4052777 1.02698526,30.8984263 1.02698526,30.275457 L1.02698526,9.16166704 C1.02698526,8.87808218 0.797077493,8.64817441 0.51349263,8.64817441 C0.229907767,8.64817441 9.71445147e-16,8.87808218 9.71445147e-16,9.16166704 L9.71445147e-16,30.275457 C9.71445147e-16,31.4647744 0.967557047,32.432263 2.15680598,32.432263 L11.3168983,32.432263 C11.6004832,32.432263 11.8303909,32.2023552 11.8303909,31.9187704 C11.8303909,31.6351855 11.6004832,31.4052777 11.3168983,31.4052777 Z" id="Path"></path>
                    <path d="M32.5873378,12.4478145 L15.26997,12.4478145 C13.9396133,12.4478145 12.8573762,13.53012 12.8573762,14.8604767 L12.8573762,21.5320468 C12.8573762,21.8156317 13.087284,22.0455395 13.3708688,22.0455395 C13.6544537,22.0455395 13.8843615,21.8156317 13.8843615,21.5320468 L13.8843615,18.0859636 L33.9730147,18.0859636 L33.9730147,32.5803543 C33.9730147,33.3443628 33.3514148,33.9659628 32.5874062,33.9659628 L15.26997,33.9659628 C14.5059614,33.9659628 13.8843615,33.3443628 13.8843615,32.5803543 L13.8843615,23.7204155 C13.8843615,23.4368306 13.6544537,23.2069229 13.3708688,23.2069229 C13.087284,23.2069229 12.8573762,23.4368306 12.8573762,23.7204155 L12.8573762,32.5803543 C12.8573762,33.910711 13.9396817,34.992948 15.26997,34.992948 L32.5873378,34.992948 C33.9176945,34.992948 34.9999315,33.9106425 34.9999315,32.5803543 L34.9999315,14.8604767 C34.9999315,13.53012 33.9176945,12.4478145 32.5873378,12.4478145 Z M13.8843615,17.0589783 L13.8843615,14.8604767 C13.8843615,14.0963997 14.5059614,13.4747997 15.26997,13.4747997 L32.5873378,13.4747997 C33.3513463,13.4747997 33.9729463,14.0963997 33.9729463,14.8604767 L33.9729463,17.0589783 L13.8843615,17.0589783 Z" id="Shape"></path>
                    <path d="M3.14668284,3.51242652 L3.53228157,3.51242652 C3.81586643,3.51242652 4.0457742,3.28251875 4.0457742,2.99893389 C4.0457742,2.71534903 3.81586643,2.48544126 3.53228157,2.48544126 L3.14668284,2.48544126 C2.86309797,2.48544126 2.63319021,2.71534903 2.63319021,2.99893389 C2.63319021,3.28251875 2.86309797,3.51242652 3.14668284,3.51242652 Z" id="Path"></path>
                    <path d="M6.71826371,3.51242652 L7.10386244,3.51242652 C7.38744731,3.51242652 7.61735507,3.28251875 7.61735507,2.99893389 C7.61735507,2.71534903 7.38744731,2.48544126 7.10386244,2.48544126 L6.71826371,2.48544126 C6.43467885,2.48544126 6.20477108,2.71534903 6.20477108,2.99893389 C6.20477108,3.28251875 6.43467885,3.51242652 6.71826371,3.51242652 Z" id="Path"></path>
                    <path d="M10.2898446,3.51242652 L10.6754433,3.51242652 C10.9590282,3.51242652 11.1889359,3.28251875 11.1889359,2.99893389 C11.1889359,2.71534903 10.9590282,2.48544126 10.6754433,2.48544126 L10.2898446,2.48544126 C10.0062597,2.48544126 9.77635195,2.71534903 9.77635195,2.99893389 C9.77635195,3.28251875 10.0062597,3.51242652 10.2898446,3.51242652 Z" id="Path"></path>
                    <path d="M29.9766728,25.0015454 L27.814458,25.0015454 C27.5308047,25.0015454 27.3009654,25.2314531 27.3009654,25.515038 C27.3009654,25.7986229 27.5308047,26.0285306 27.814458,26.0285306 L29.9766728,26.0285306 C30.8396827,26.0285306 31.5417983,25.326415 31.5417983,24.4634051 L31.5417983,22.2833892 C31.5417983,21.4203793 30.8396827,20.7182637 29.9766728,20.7182637 L17.8807034,20.7182637 C17.0176935,20.7182637 16.3155094,21.4203793 16.3155094,22.2833892 L16.3155094,24.4634051 C16.3155094,25.326415 17.017625,26.0285306 17.8807034,26.0285306 L25.6261578,26.0285306 C25.9098111,26.0285306 26.1396504,25.7986229 26.1396504,25.515038 C26.1396504,25.2314531 25.9098111,25.0015454 25.6261578,25.0015454 L17.8807034,25.0015454 C17.5839732,25.0015454 17.3424947,24.7601354 17.3424947,24.4634051 L17.3424947,22.2833892 C17.3424947,21.986659 17.5839732,21.745249 17.8807034,21.745249 L29.9767412,21.745249 C30.2734715,21.745249 30.5148815,21.986659 30.5148815,22.2833892 L30.5148815,24.4634051 C30.5148815,24.7601354 30.273403,25.0015454 29.9766728,25.0015454 L29.9766728,25.0015454 Z" id="Path"></path>
                    <path d="M5.39886151,10.2733444 L27.1717706,10.2733444 C27.4554239,10.2733444 27.6852633,10.0434366 27.6852633,9.75985172 C27.6852633,9.47626686 27.4554239,9.24635909 27.1717706,9.24635909 L5.39886151,9.24635909 C4.77157892,9.24635909 4.26123571,9.7567023 4.26123571,10.3839849 L4.26123571,16.7875803 C4.26123571,17.4148629 4.77157892,17.9252061 5.39886151,17.9252061 L10.0248824,17.9252061 C10.3084672,17.9252061 10.538375,17.6952984 10.538375,17.4117135 C10.538375,17.1281286 10.3084672,16.8982209 10.0248824,16.8982209 L5.39886151,16.8982209 C5.33785859,16.8982209 5.28822097,16.8485832 5.28822097,16.7875803 L5.28822097,10.3839849 C5.28822097,10.322982 5.33785859,10.2733444 5.39886151,10.2733444 L5.39886151,10.2733444 Z" id="Path"></path>
                    <path d="M10.0075606,20.1020726 L4.77472834,20.1020726 C4.49114347,20.1020726 4.26123571,20.3319803 4.26123571,20.6155652 C4.26123571,20.89915 4.49114347,21.1290578 4.77472834,21.1290578 L10.0075606,21.1290578 C10.2911454,21.1290578 10.5210532,20.89915 10.5210532,20.6155652 C10.5210532,20.3319803 10.2911454,20.1020726 10.0075606,20.1020726 Z" id="Path"></path>
                    <path d="M10.0075606,23.9514187 L4.77472834,23.9514187 C4.49114347,23.9514187 4.26123571,24.1813265 4.26123571,24.4649113 C4.26123571,24.7484962 4.49114347,24.978404 4.77472834,24.978404 L10.0075606,24.978404 C10.2911454,24.978404 10.5210532,24.7484962 10.5210532,24.4649113 C10.5210532,24.1813265 10.2911454,23.9514187 10.0075606,23.9514187 Z" id="Path"></path>
                    <path d="M16.8290021,30.4626422 L31.0283741,30.4626422 C31.3120275,30.4626422 31.5418668,30.2327344 31.5418668,29.9491496 C31.5418668,29.6655647 31.3120275,29.4356569 31.0283741,29.4356569 L16.8290021,29.4356569 C16.5454172,29.4356569 16.3155094,29.6655647 16.3155094,29.9491496 C16.3155094,30.2327344 16.5454172,30.4626422 16.8290021,30.4626422 Z" id="Path"></path>
                </g>
            </g>
        </g>
    </g>
</svg>