<?xml version="1.0" encoding="UTF-8"?>
<svg width="42px" height="42px" viewBox="0 0 42 42" version="1.1" xmlns="http://www.w3.org/2000/svg" xmlns:xlink="http://www.w3.org/1999/xlink">
    <title>Entity_Cloud</title>
    <g id="Page-1" stroke="none" stroke-width="1" fill="none" fill-rule="evenodd">
        <g id="Entities-Timeline-Copy" transform="translate(-848.000000, -215.000000)">
            <g id="Entity_Cloud" transform="translate(848.000000, 215.000000)">
                <rect id="Rectangle-Copy-7" x="0" y="0" width="42" height="42"></rect>
                <g id="cloud-computing" transform="translate(1.000000, 9.000000)" fill="#000000" fill-rule="nonzero">
                    <path d="M38.213029,13.3491112 C37.1558996,12.14558 35.7016165,11.355478 34.1177524,11.1241944 L34.1177524,5.55672395 C34.1177524,4.60114125 33.3403437,3.82373255 32.384761,3.82373255 L23.3721778,3.82373255 C23.3544227,3.78962406 23.3330075,3.75683942 23.3079323,3.72576799 C21.5234667,1.51946294 18.8718045,0.17490333 16.0328571,0.0369119227 C13.9839339,-0.0629994629 11.9811117,0.462489259 10.2413453,1.55575188 C9.96797433,1.72738453 9.88600967,2.0879377 10.0575644,2.36096133 C10.2291971,2.63406284 10.5898281,2.71645274 10.8628518,2.54474221 C12.3991353,1.57942535 14.1675591,1.11561224 15.9761654,1.20360902 C18.1967213,1.31154135 20.2869173,2.25575456 21.8305209,3.82365467 L14.8689635,3.82365467 C13.9133808,3.82365467 13.1358942,4.60106337 13.1358942,5.55664608 L13.1358942,17.8135849 C12.3401853,18.3477954 11.8153974,19.2557975 11.8153974,20.2841917 C11.8153974,20.6067427 12.0768179,20.8682411 12.3994468,20.8682411 C12.7220757,20.8682411 12.9834962,20.6067427 12.9834962,20.2841917 C12.9834962,19.2884264 13.7935338,18.4783888 14.7892213,18.4783888 C15.2633136,18.4783888 15.7114742,18.6611574 16.0510016,18.9930532 C16.1953786,19.1340816 16.4020542,19.1904619 16.598217,19.1426477 C16.794224,19.0945999 16.9515279,18.9488212 17.0142938,18.7570193 C17.4065414,17.5583163 18.5177927,16.753029 19.7794173,16.753029 C21.0112943,16.753029 22.1141353,17.5336305 22.5236708,18.6954995 C22.6061386,18.9295086 22.8272207,19.0854108 23.0743904,19.0854108 C23.078985,19.0854108 23.0835795,19.0854108 23.0882519,19.0852551 C23.3409506,19.0792589 23.5610983,18.911442 23.6338319,18.6694119 C24.0678195,17.2247852 25.4251504,16.2158593 26.9347234,16.2158593 C28.3789608,16.2158593 29.6810016,17.1273657 30.1746402,18.4839957 C30.2440252,18.6745516 30.4071697,18.8155021 30.6058244,18.8563856 C30.8047127,18.8974248 31.0099866,18.8320892 31.1489903,18.6844415 C31.4942803,18.3172691 31.961442,18.1149544 32.4643475,18.1149544 C33.4600349,18.1149544 34.2701504,18.9249919 34.2701504,19.9206794 C34.2701504,20.2432304 34.5315709,20.5047288 34.8541998,20.5047288 C35.1768287,20.5047288 35.4382492,20.2432304 35.4382492,19.9206794 C35.4382492,18.8922852 34.9134613,17.9843609 34.1177524,17.4501504 L34.1177524,12.3084909 C35.361544,12.5294952 36.4988829,13.1676665 37.3353195,14.1199785 C38.217312,15.1240763 38.7030075,16.4110875 38.7030075,17.7439662 C38.7030075,17.808601 38.7019173,17.8729243 38.6997368,17.9369361 C38.6572959,19.1610258 38.1318072,20.3051396 37.2198335,21.1584748 C36.3088722,22.0109533 35.1160097,22.4804511 33.8612379,22.4804511 L14.7357223,22.4804511 C14.4130934,22.4804511 14.1516729,22.7419495 14.1516729,23.0645005 C14.1516729,23.3870516 14.4130934,23.6485499 14.7357223,23.6485499 L33.8613158,23.6485499 C35.4136412,23.6485499 36.8898067,23.0671482 38.0180344,22.0114205 C39.1573201,20.9454135 39.8140252,19.5127014 39.8671348,17.9772744 C39.8697825,17.8998684 39.8711842,17.822073 39.8711842,17.744044 C39.8711842,16.1273174 39.2823067,14.5665038 38.213029,13.3491112 L38.213029,13.3491112 Z M14.8690414,4.99183136 L32.3848389,4.99183136 C32.6963319,4.99183136 32.9497315,5.24523093 32.9497315,5.55672395 L32.9497315,7.03234425 L14.3040709,7.03234425 L14.3040709,5.55672395 C14.3040709,5.24523093 14.5575483,4.99183136 14.8690414,4.99183136 Z M32.4644253,16.9467777 C31.9249194,16.9467777 31.3972503,17.0959049 30.9397449,17.3688507 C30.1272154,15.9548281 28.6017562,15.0476826 26.9348013,15.0476826 C25.3361412,15.0476826 23.864804,15.8931525 23.0321053,17.203993 C22.27471,16.2041004 21.0782653,15.5849302 19.7794952,15.5849302 C18.2772422,15.5849302 16.9271536,16.399718 16.2179619,17.6751262 C15.7845193,17.4369898 15.2959425,17.3103679 14.7892991,17.3103679 C14.6240521,17.3103679 14.4620757,17.3245408 14.3040709,17.3506284 L14.3040709,8.20044307 L32.9497315,8.20044307 L32.9497315,16.9870381 C32.7916488,16.9610285 32.6296724,16.9467777 32.4644253,16.9467777 L32.4644253,16.9467777 Z" id="Shape"></path>
                    <path d="M12.3995247,22.4803733 L6.00986842,22.4803733 C4.75509667,22.4803733 3.56231203,22.0108754 2.65127282,21.1583969 C1.73937701,20.3050618 1.21381042,19.1610258 1.17144737,17.937014 C1.16926692,17.8729243 1.16809882,17.8085231 1.16809882,17.7439662 C1.16809882,15.09721 3.06991944,12.8163024 5.69012084,12.3205612 C6.38591837,12.1889554 6.87200322,11.5341192 6.79662191,10.8299114 C6.76227981,10.508217 6.74577068,10.1811493 6.74756176,9.85774168 C6.75955424,7.65626477 7.61444683,5.55477712 9.15454619,3.94038668 C9.37718582,3.70700054 9.36846402,3.3373362 9.13507787,3.11461869 C8.90169173,2.89190118 8.53194952,2.90070086 8.30930988,3.134087 C6.56261278,4.96504296 5.59309076,7.35061224 5.57938507,9.85120032 C5.57736037,10.2180612 5.59604995,10.5891273 5.63514232,10.9541192 C5.64620032,11.057457 5.57486842,11.1535526 5.47285446,11.1728652 C2.30177766,11.7728786 1.10664551e-15,14.5363668 1.10664551e-15,17.7439662 C1.10664551e-15,17.822073 0.00147959184,17.8997905 0.00412728249,17.9773523 C0.0572368421,19.5126235 0.713864125,20.9452578 1.85314984,22.0113426 C2.98137755,23.0670704 4.45762084,23.6484721 6.00986842,23.6484721 L12.3995247,23.6484721 C12.7221536,23.6484721 12.9835741,23.3869737 12.9835741,23.0644227 C12.9835741,22.7418716 12.7220757,22.4803733 12.3995247,22.4803733 L12.3995247,22.4803733 Z" id="Path"></path>
                    <path d="M19.4246267,10.2025644 L17.5467132,10.2025644 C17.0276101,10.2025644 16.6053034,10.6248711 16.6053034,11.1439742 L16.6053034,13.0218878 C16.6053034,13.5409909 17.0276101,13.9632975 17.5467132,13.9632975 L19.4246267,13.9632975 C19.9437299,13.9632975 20.3660365,13.5409909 20.3660365,13.0218878 L20.3660365,11.1439742 C20.3660365,10.6248711 19.9437299,10.2025644 19.4246267,10.2025644 L19.4246267,10.2025644 Z M19.1979377,12.7951987 L17.7734023,12.7951987 L17.7734023,11.3706633 L19.1979377,11.3706633 L19.1979377,12.7951987 Z" id="Shape"></path>
                    <path d="M24.765486,10.2025644 L22.8875725,10.2025644 C22.3684694,10.2025644 21.9461627,10.6248711 21.9461627,11.1439742 L21.9461627,13.0218878 C21.9461627,13.5409909 22.3684694,13.9632975 22.8875725,13.9632975 L24.765486,13.9632975 C25.2845892,13.9632975 25.7068958,13.5409909 25.7068958,13.0218878 L25.7068958,11.1439742 C25.7068958,10.6248711 25.284667,10.2025644 24.765486,10.2025644 Z M24.538797,12.7951987 L23.1142615,12.7951987 L23.1142615,11.3706633 L24.538797,11.3706633 L24.538797,12.7951987 Z" id="Shape"></path>
                    <path d="M30.0184264,10.2025644 L28.1405129,10.2025644 C27.6214098,10.2025644 27.1991031,10.6248711 27.1991031,11.1439742 L27.1991031,13.0218878 C27.1991031,13.5409909 27.6214098,13.9632975 28.1405129,13.9632975 L30.0184264,13.9632975 C30.5375295,13.9632975 30.9598362,13.5409909 30.9598362,13.0218878 L30.9598362,11.1439742 C30.9598362,10.6248711 30.5376074,10.2025644 30.0184264,10.2025644 Z M29.7917374,12.7951987 L28.3672019,12.7951987 L28.3672019,11.3706633 L29.7917374,11.3706633 L29.7917374,12.7951987 Z" id="Shape"></path>
                </g>
            </g>
        </g>
    </g>
</svg>