<?xml version="1.0" encoding="UTF-8"?>
<svg width="42px" height="42px" viewBox="0 0 42 42" version="1.1" xmlns="http://www.w3.org/2000/svg" xmlns:xlink="http://www.w3.org/1999/xlink">
    <title>Faceted_Search</title>
    <g id="Page-1" stroke="none" stroke-width="1" fill="none" fill-rule="evenodd">
        <g id="Entities-Timeline-Copy" transform="translate(-848.000000, -164.000000)">
            <g id="Faceted_Search" transform="translate(848.000000, 164.000000)">
                <rect id="Rectangle-Copy-2" x="0" y="0" width="42" height="42"></rect>
                <g id="browser-(1)" transform="translate(2.000000, 5.000000)" fill="#000000" fill-rule="nonzero">
                    <path d="M27.8448876,32.9181093 C27.7384682,32.9181093 27.6323733,32.8891521 27.5389319,32.8318815 C27.3672982,32.7266707 27.26315,32.5410235 27.26315,32.3412195 L27.26315,25.2409386 L21.6229234,20.4478951 C21.4937926,20.3385016 21.4194937,20.1782724 21.4194937,20.0099994 L21.4194937,14.7150329 C21.4194937,14.3965047 21.6800265,14.1381431 22.0012313,14.1381431 L36.9609395,14.1381431 C37.2821443,14.1381431 37.5426771,14.3965047 37.5426771,14.7150329 L37.5426771,20.0099994 C37.5426771,20.1782724 37.4683782,20.3385016 37.3395718,20.4478951 L31.6990208,25.2409386 L31.6990208,30.7199437 C31.6990208,30.9384089 31.5744322,31.1382129 31.3774916,31.2360235 L28.1047715,32.8572993 C28.0226857,32.8978393 27.9337867,32.9181093 27.8448876,32.9181093 L27.8448876,32.9181093 Z M22.5829689,19.7445594 L28.2231955,24.5376028 C28.3523262,24.6469963 28.4266252,24.8069039 28.4266252,24.9754985 L28.4266252,31.4081573 L30.5355456,30.3631278 L30.5355456,24.9754985 C30.5355456,24.8069039 30.6098445,24.6469963 30.7386508,24.5376028 L36.3792019,19.7445594 L36.3792019,15.2919226 L22.5829689,15.2919226 L22.5829689,19.7445594 Z" id="Shape"></path>
                    <path d="M36.9609395,17.8018597 L22.2286702,17.8018597 C21.907141,17.8018597 21.6469327,17.5434981 21.6469327,17.2249699 C21.6469327,16.9064418 21.907141,16.6480802 22.2286702,16.6480802 L36.9609395,16.6480802 C37.2821443,16.6480802 37.5426771,16.9064418 37.5426771,17.2249699 C37.5426771,17.5434981 37.2821443,17.8018597 36.9609395,17.8018597 L36.9609395,17.8018597 Z" id="Path"></path>
                    <path d="M25.5198839,25.7953062 C25.5176127,25.7953062 25.5156661,25.7953062 25.5133949,25.7953062 L3.90604511,25.7953062 C1.75235063,25.7953062 2.36449515e-15,24.0578802 2.36449515e-15,21.9218115 L2.36449515e-15,3.90502576 C2.36449515e-15,1.76895701 1.75235063,0.031209298 3.90604511,0.031209298 L25.5143683,0.031209298 C27.6683872,0.031209298 29.4204134,1.76895701 29.4204134,3.90502576 L29.4204134,14.689615 C29.4204134,15.0081431 29.160205,15.2665047 28.8386757,15.2665047 C28.517471,15.2665047 28.2569382,15.0081431 28.2569382,14.689615 L28.2569382,3.90502576 C28.2569382,2.40536975 27.0266264,1.18531062 25.5143683,1.18531062 L3.90604511,1.18531062 C2.39378687,1.18531062 1.16347514,2.40536975 1.16347514,3.90502576 L1.16347514,21.9218115 C1.16347514,23.4214675 2.39378687,24.6415267 3.90604511,24.6415267 L25.5143683,24.6415267 L25.5189105,24.6415267 C26.0662565,24.6415267 26.59446,24.4809756 27.0473912,24.1775696 C27.3137641,23.9990008 27.6752006,24.0684979 27.85527,24.3323291 C28.0353393,24.5961606 27.9652582,24.9549068 27.6988854,25.1334756 C27.0529068,25.5665452 26.2995356,25.7953062 25.5198839,25.7953062 L25.5198839,25.7953062 Z" id="Path"></path>
                    <path d="M28.8386757,7.88920096 L0.581737569,7.88920096 C0.260532806,7.88920096 -2.36449515e-15,7.63083926 -2.36449515e-15,7.3123112 C-2.36449515e-15,6.99378306 0.260532806,6.73542145 0.581737569,6.73542145 L28.8386757,6.73542145 C29.160205,6.73542145 29.4204134,6.99378306 29.4204134,7.3123112 C29.4204134,7.63083926 29.160205,7.88920096 28.8386757,7.88920096 Z" id="Path"></path>
                    <path d="M8.34224033,5.5996596 C7.4457869,5.5996596 6.71642488,4.8763756 6.71642488,3.98739262 C6.71642488,3.09808791 7.4457869,2.37480391 8.34224033,2.37480391 C9.23901818,2.37480391 9.9683802,3.09808791 9.9683802,3.98739262 C9.9683802,4.8763756 9.23901818,5.5996596 8.34224033,5.5996596 Z M8.34224033,3.5285835 C8.08722322,3.5285835 7.8799001,3.73450065 7.8799001,3.98739262 C7.8799001,4.24028466 8.08722322,4.44588001 8.34224033,4.44588001 C8.59725743,4.44588001 8.80490498,4.24028466 8.80490498,3.98739262 C8.80490498,3.73450065 8.59725743,3.5285835 8.34224033,3.5285835 Z" id="Shape"></path>
                    <path d="M3.65135243,5.58518107 C2.754899,5.58518107 2.02553698,4.86189707 2.02553698,3.97259236 C2.02553698,3.08360938 2.754899,2.36032538 3.65135243,2.36032538 C4.5481302,2.36032538 5.27749222,3.08360938 5.27749222,3.97259236 C5.27749222,4.86189707 4.5481302,5.58518107 3.65135243,5.58518107 Z M3.65135243,3.51410489 C3.39633524,3.51410489 3.18901212,3.72002204 3.18901212,3.97259236 C3.18901212,4.22548433 3.39633524,4.43140148 3.65135243,4.43140148 C3.90636954,4.43140148 4.11401709,4.22548433 4.11401709,3.97259236 C4.11401709,3.72002204 3.90636954,3.51410489 3.65135243,3.51410489 Z" id="Shape"></path>
                    <path d="M13.0331282,5.61445986 C12.1366749,5.61445986 11.4073129,4.89085413 11.4073129,4.00187123 C11.4073129,3.11288825 12.1366749,2.38928243 13.0331282,2.38928243 C13.9299062,2.38928243 14.6592682,3.11288825 14.6592682,4.00187123 C14.6592682,4.89085413 13.9299062,5.61445986 13.0331282,5.61445986 Z M13.0331282,3.54338375 C12.7781111,3.54338375 12.570788,3.74897918 12.570788,4.00187123 C12.570788,4.25476319 12.7781111,4.46068035 13.0331282,4.46068035 C13.2881454,4.46068035 13.495793,4.25476319 13.495793,4.00187123 C13.495793,3.74897918 13.2881454,3.54338375 13.0331282,3.54338375 Z" id="Shape"></path>
                </g>
            </g>
        </g>
    </g>
</svg>