<?xml version="1.0" encoding="UTF-8"?>
<svg width="42px" height="42px" viewBox="0 0 42 42" version="1.1" xmlns="http://www.w3.org/2000/svg" xmlns:xlink="http://www.w3.org/1999/xlink">
    <title>Geomap</title>
    <g id="Page-1" stroke="none" stroke-width="1" fill="none" fill-rule="evenodd">
        <g id="Entities-Timeline-Copy" transform="translate(-740.000000, -215.000000)">
            <g id="Geomap" transform="translate(740.000000, 215.000000)">
                <rect id="Rectangle-Copy-4" x="0" y="0" width="42" height="42"></rect>
                <g id="pin" transform="translate(8.000000, 4.000000)" fill="#000000" fill-rule="nonzero">
                    <path d="M17.2765446,10.1353166 C17.2765446,7.6342165 15.2490024,5.60667429 12.7479024,5.60667429 C10.2468023,5.60667429 8.21926011,7.6342165 8.21926011,10.1353166 C8.21926011,12.6364166 10.2468023,14.6639588 12.7479024,14.6639588 C15.2477827,14.6610166 17.2736024,12.6351969 17.2765446,10.1353166 L17.2765446,10.1353166 Z M12.7479024,13.7295576 C11.294011,13.7296656 9.98322412,12.8539314 9.42679411,11.5107316 C8.87036409,10.1675318 9.17787797,8.62140505 10.2059344,7.5933486 C11.2339909,6.56529216 12.7801176,6.25777828 14.1233174,6.81420829 C15.4665172,7.37063831 16.3422514,8.68142519 16.3421434,10.1353166 C16.3400833,12.1195071 14.7320929,13.7274975 12.7479024,13.7295576 L12.7479024,13.7295576 Z" id="Shape"></path>
                    <path d="M15.3300534,25.0553013 C16.3362629,23.0622094 17.1624414,20.9832273 17.7987414,18.843135 C21.7378908,16.5588795 23.6536377,11.9151587 22.4709185,7.51789859 C21.2881994,3.12063849 17.3014417,0.0644982954 12.7479024,0.0644982954 C8.19436298,0.0644982954 4.20760535,3.12063849 3.02488622,7.51789859 C1.84216708,11.9151587 3.75791394,16.5588795 7.69706331,18.843135 C8.33336337,20.9832273 9.15954186,23.0622094 10.1657513,25.0553013 C5.13920671,25.4213196 -1.70725371e-14,26.9540046 -1.70725371e-14,29.6004958 C-1.70725371e-14,32.6132723 6.56803966,34.2391304 12.7479024,34.2391304 C18.9277651,34.2391304 25.4958047,32.6132723 25.4958047,29.6004958 C25.4958047,26.9540046 20.356598,25.4213196 15.3300534,25.0553013 L15.3300534,25.0553013 Z M8.32257818,18.1231121 C4.67948767,16.1055082 2.86230308,11.8791899 3.90424422,7.84716891 C4.94618535,3.81514796 8.5834295,0.998344575 12.7479024,0.998344575 C16.9123752,0.998344575 20.5496194,3.81514796 21.5915605,7.84716891 C22.6335017,11.8791899 20.8163171,16.1055082 17.1732265,18.1231121 C17.0631516,18.184295 16.9823993,18.2872807 16.9492372,18.4087719 C15.9005721,22.2566362 13.6580092,26.3175439 12.7479024,27.876926 C11.8377956,26.3180778 9.59603356,22.2593059 8.54656751,18.407704 C8.51315028,18.2866105 8.43242851,18.1840487 8.32257818,18.1231121 L8.32257818,18.1231121 Z M12.7479024,33.3047292 C5.78607933,33.3047292 0.93440122,31.3526316 0.93440122,29.6004958 C0.93440122,28.1121281 4.63009153,26.3188787 10.6236079,25.9595347 C11.5390542,27.7276888 12.287643,28.9319985 12.3519832,29.0345156 C12.4389371,29.1687394 12.5879743,29.2497673 12.7479024,29.2497673 C12.9078305,29.2497673 13.0568676,29.1687394 13.1438215,29.0345156 C13.2081617,28.9319985 13.9567506,27.7276888 14.8721968,25.9595347 C20.8657132,26.3188787 24.5614035,28.1121281 24.5614035,29.6004958 C24.5614035,31.3526316 19.7097254,33.3047292 12.7479024,33.3047292 Z" id="Shape"></path>
                </g>
            </g>
        </g>
    </g>
</svg>