<?xml version="1.0" encoding="UTF-8"?>
<svg width="42px" height="42px" viewBox="0 0 42 42" version="1.1" xmlns="http://www.w3.org/2000/svg" xmlns:xlink="http://www.w3.org/1999/xlink">
    <title>Navigator</title>
    <g id="Page-1" stroke="none" stroke-width="1" fill="none" fill-rule="evenodd">
        <g id="Entities-Timeline-Copy" transform="translate(-794.000000, -164.000000)">
            <g id="Navigator" transform="translate(794.000000, 164.000000)">
                <rect id="Rectangle-Copy" x="0" y="0" width="42" height="42"></rect>
                <g id="compass" transform="translate(3.000000, 4.000000)" fill="#000000" fill-rule="nonzero">
                    <path d="M17.5,0 C7.83498992,0 0,7.83498992 0,17.5 C0,27.1650101 7.83498992,35 17.5,35 C27.1650101,35 35,27.1650101 35,17.5 C34.9894153,7.83943548 27.1605645,0.0105846774 17.5,0 Z M17.5,33.8709677 C8.45856855,33.8709677 1.12903226,26.5414315 1.12903226,17.5 C1.12903226,8.45856855 8.45856855,1.12903226 17.5,1.12903226 C26.5414315,1.12903226 33.8709677,8.45856855 33.8709677,17.5 C33.8603831,26.5370565 26.5370565,33.8603831 17.5,33.8709677 Z" id="Shape"></path>
                    <path d="M25.7296573,9.0091129 C25.5742036,8.93375 25.3927823,8.93375 25.2372581,9.0091129 L25.2372581,9.00854839 L14.4877419,14.2258065 C14.471371,14.2337097 14.4617742,14.2506452 14.4465323,14.2602419 C14.3727923,14.3090726 14.3096371,14.3722278 14.2608065,14.4459677 C14.2512097,14.4612097 14.2342742,14.4708065 14.226371,14.4871774 L9.00854839,25.2372581 C8.87257056,25.5178226 8.98977823,25.8554738 9.27034274,25.9914516 C9.42579637,26.0668145 9.60721774,26.0668145 9.76274194,25.9914516 L20.5122581,20.7741935 C20.528629,20.7662903 20.5382258,20.7493548 20.5534677,20.7397581 C20.6272077,20.6909274 20.6903629,20.6277722 20.7391935,20.5540323 C20.7487903,20.5387903 20.7657258,20.5291935 20.773629,20.5128226 L25.9914516,9.76330645 C26.1274294,9.48274194 26.0102218,9.14509073 25.7296573,9.0091129 Z M10.7359677,24.2640323 L14.8958871,15.6935484 L19.3064516,20.1041129 L10.7359677,24.2640323 Z M20.1069355,19.3058871 L15.6935484,14.8958871 L24.2634677,10.7359677 L20.1069355,19.3058871 Z" id="Shape"></path>
                </g>
            </g>
        </g>
    </g>
</svg>