<svg xmlns="http://www.w3.org/2000/svg" width="82" height="82" viewBox="0 0 82 82">
    <g fill="none" fill-rule="evenodd">
        <path d="M0 0H81.233V81.233H0z"/>
        <g fill="#000" fill-rule="nonzero">
            <path d="M59.052 40.036c-.273 0-.55-.084-.787-.26-.59-.435-.716-1.266-.28-1.856l1.559-2.115-1.56-2.119c-.435-.59-.309-1.422.282-1.857.59-.434 1.422-.308 1.857.282l2.14 2.907c.345.468.345 1.107 0 1.575l-2.14 2.903c-.26.353-.663.54-1.07.54zM51.495 9.644c.734 0 1.329-.595 1.329-1.329 0-.733-.595-1.328-1.329-1.328h-.007c-.734 0-1.325.595-1.325 1.328 0 .734.599 1.329 1.332 1.329zM58.665 9.644c.734 0 1.329-.595 1.329-1.329 0-.733-.595-1.328-1.329-1.328h-.007c-.734 0-1.325.595-1.325 1.328 0 .734.599 1.329 1.332 1.329zM44.33 9.644c.733 0 1.327-.595 1.327-1.329 0-.733-.594-1.328-1.328-1.328h-.007c-.734 0-1.325.595-1.325 1.328 0 .734.599 1.329 1.332 1.329zM9.335 9.644h19.953c.734 0 1.329-.595 1.329-1.329 0-.733-.595-1.328-1.329-1.328H9.335c-.734 0-1.329.595-1.329 1.328 0 .734.595 1.329 1.329 1.329z" transform="translate(7 7)"/>
            <path d="M63.737 0H4.259C1.911 0 0 1.91 0 4.257v59.482C0 66.09 1.91 68 4.26 68h59.477C66.087 68 68 66.089 68 63.74V4.256C68 1.91 66.088 0 63.737 0zM4.259 2.656h59.478c.886 0 1.607.718 1.607 1.601v9.718H2.656V4.257c0-.883.72-1.6 1.603-1.6zm59.478 62.688H4.259c-.884 0-1.603-.72-1.603-1.605V16.631h62.688v47.108c0 .885-.721 1.605-1.607 1.605z" transform="translate(7 7)"/>
            <path d="M46.047 56.049h-3.862c-.733 0-1.328.594-1.328 1.328 0 .733.595 1.328 1.328 1.328h3.862c.734 0 1.328-.595 1.328-1.328 0-.734-.594-1.328-1.328-1.328zM36.357 56.049h-3.862c-.734 0-1.328.594-1.328 1.328 0 .733.594 1.328 1.328 1.328h3.862c.733 0 1.328-.595 1.328-1.328 0-.734-.595-1.328-1.328-1.328zM14.7 56.049h-3.862c-.734 0-1.328.594-1.328 1.328 0 .733.594 1.328 1.328 1.328H14.7c.733 0 1.328-.595 1.328-1.328 0-.734-.595-1.328-1.328-1.328zM23.595 52.988c-2.42 0-4.39 1.969-4.39 4.389 0 2.422 1.97 4.392 4.39 4.392 2.424 0 4.396-1.97 4.396-4.392 0-2.42-1.972-4.389-4.396-4.389zm0 6.125c-.956 0-1.735-.779-1.735-1.736 0-.955.779-1.733 1.735-1.733.96 0 1.74.778 1.74 1.733 0 .957-.78 1.736-1.74 1.736zM55.742 56.049H51.88c-.734 0-1.328.594-1.328 1.328 0 .733.594 1.328 1.328 1.328h3.862c.733 0 1.328-.595 1.328-1.328 0-.734-.595-1.328-1.328-1.328zM40.563 49.414h12.521c.73 0 1.335-.614 1.33-1.344V21.53c0-.734-.595-1.329-1.329-1.329H39.966c-.733 0-1.328.595-1.328 1.328 0 .734.595 1.329 1.328 1.329h11.791V43.82l-8.105-11.752c-.248-.359-.657-.574-1.093-.574-.437 0-.846.215-1.094.574l-5.177 7.504-7.466-10.824c-.248-.36-.657-.574-1.093-.574-.437 0-.846.215-1.093.574L16.239 43.821V22.858H28.03c.734 0 1.328-.595 1.328-1.329 0-.733-.594-1.328-1.328-1.328H14.91c-.733 0-1.327.595-1.327 1.328v26.542c-.007.729.6 1.343 1.329 1.343h25.651zm1.995-14.251l7.998 11.595h-9.312l-3.342-4.845 4.656-6.75zm-14.83-3.32l10.289 14.915H17.44L27.73 31.842z" transform="translate(7 7)"/>
            <path d="M33.998 22.858h.008c.733 0 1.324-.595 1.324-1.329 0-.733-.598-1.328-1.332-1.328-.733 0-1.328.595-1.328 1.328 0 .734.595 1.329 1.328 1.329zM60.123 32.111c-.435-.59-1.266-.717-1.857-.282-.59.435-.717 1.267-.282 1.857l1.56 2.119-1.56 2.114c-.435.59-.31 1.422.281 1.858.238.174.514.259.787.259.408 0 .81-.187 1.07-.54l2.14-2.903c.346-.468.346-1.107.001-1.575l-2.14-2.907zM10.016 37.92l-1.56-2.115 1.56-2.119c.435-.59.309-1.422-.282-1.857-.59-.434-1.422-.308-1.857.282l-2.14 2.907c-.345.468-.345 1.107 0 1.575l2.14 2.903c.261.353.663.54 1.07.54.274 0 .55-.085.788-.26.59-.435.716-1.266.28-1.856z" transform="translate(7 7)"/>
        </g>
    </g>
</svg>
