<?xml version="1.0" encoding="UTF-8"?>
<svg width="42px" height="42px" viewBox="0 0 42 42" version="1.1" xmlns="http://www.w3.org/2000/svg" xmlns:xlink="http://www.w3.org/1999/xlink">
    <title>Entities_Timeline</title>
    <g id="Page-1" stroke="none" stroke-width="1" fill="none" fill-rule="evenodd">
        <g id="Entities-Timeline-Copy" transform="translate(-902.000000, -164.000000)">
            <g id="Entities_Timeline" transform="translate(902.000000, 164.000000)">
                <rect id="Rectangle-Copy-3" x="0" y="0" width="42" height="42"></rect>
                <g id="calendar" transform="translate(4.000000, 4.000000)" fill="#000000" fill-rule="nonzero">
                    <path d="M25.8873276,2.71551724 C25.6067241,1.34025862 24.3883621,0.301724138 22.9310345,0.301724138 C22.597931,0.301724138 22.3275862,0.571465517 22.3275862,0.905172414 C22.3275862,1.23887931 22.597931,1.50862069 22.9310345,1.50862069 C23.9291379,1.50862069 24.7413793,2.32086207 24.7413793,3.31896552 C24.7413793,4.31706897 23.9291379,5.12931034 22.9310345,5.12931034 C22.597931,5.12931034 22.3275862,5.39905172 22.3275862,5.73275862 C22.3275862,6.06646552 22.597931,6.3362069 22.9310345,6.3362069 C24.3877586,6.3362069 25.6067241,5.29767241 25.8873276,3.92241379 L33.7931034,3.92241379 L33.7931034,9.35344828 L1.20689655,9.35344828 L1.20689655,3.92241379 L9.65517241,3.92241379 L11.4655172,3.92241379 C11.7986207,3.92241379 12.0689655,3.65267241 12.0689655,3.31896552 C12.0689655,2.98525862 11.7986207,2.71551724 11.4655172,2.71551724 L10.3696552,2.71551724 C10.6194828,2.01431034 11.2832759,1.50862069 12.0689655,1.50862069 C13.067069,1.50862069 13.8793103,2.32086207 13.8793103,3.31896552 C13.8793103,4.31706897 13.067069,5.12931034 12.0689655,5.12931034 C11.7358621,5.12931034 11.4655172,5.39905172 11.4655172,5.73275862 C11.4655172,6.06646552 11.7358621,6.3362069 12.0689655,6.3362069 C13.7326724,6.3362069 15.0862069,4.98267241 15.0862069,3.31896552 C15.0862069,1.65525862 13.7326724,0.301724138 12.0689655,0.301724138 C10.6122414,0.301724138 9.39327586,1.34025862 9.11267241,2.71551724 L0,2.71551724 L0,10.5603448 L0,34.6982759 L35,34.6982759 L35,10.5603448 L35,2.71551724 L25.8873276,2.71551724 Z M33.7931034,33.4913793 L1.20689655,33.4913793 L1.20689655,10.5603448 L33.7931034,10.5603448 L33.7931034,33.4913793 Z" id="Shape"></path>
                    <path d="M15.6896552,1.50862069 C16.6877586,1.50862069 17.5,2.32086207 17.5,3.31896552 C17.5,4.31706897 16.6877586,5.12931034 15.6896552,5.12931034 C15.3565517,5.12931034 15.0862069,5.39905172 15.0862069,5.73275862 C15.0862069,6.06646552 15.3565517,6.3362069 15.6896552,6.3362069 C17.3533621,6.3362069 18.7068966,4.98267241 18.7068966,3.31896552 C18.7068966,1.65525862 17.3533621,0.301724138 15.6896552,0.301724138 C15.3565517,0.301724138 15.0862069,0.571465517 15.0862069,0.905172414 C15.0862069,1.23887931 15.3565517,1.50862069 15.6896552,1.50862069 Z" id="Path"></path>
                    <path d="M19.3103448,1.50862069 C20.3084483,1.50862069 21.1206897,2.32086207 21.1206897,3.31896552 C21.1206897,4.31706897 20.3084483,5.12931034 19.3103448,5.12931034 C18.9772414,5.12931034 18.7068966,5.39905172 18.7068966,5.73275862 C18.7068966,6.06646552 18.9772414,6.3362069 19.3103448,6.3362069 C20.9740517,6.3362069 22.3275862,4.98267241 22.3275862,3.31896552 C22.3275862,1.65525862 20.9740517,0.301724138 19.3103448,0.301724138 C18.9772414,0.301724138 18.7068966,0.571465517 18.7068966,0.905172414 C18.7068966,1.23887931 18.9772414,1.50862069 19.3103448,1.50862069 Z" id="Path"></path>
                    <path d="M5.43103448,15.387931 L18.7068966,15.387931 C19.04,15.387931 19.3103448,15.1181897 19.3103448,14.7844828 C19.3103448,14.4507759 19.04,14.1810345 18.7068966,14.1810345 L5.43103448,14.1810345 C5.09793103,14.1810345 4.82758621,14.4507759 4.82758621,14.7844828 C4.82758621,15.1181897 5.09793103,15.387931 5.43103448,15.387931 Z" id="Path"></path>
                    <path d="M29.5689655,23.8362069 L20.5172414,23.8362069 C20.1841379,23.8362069 19.9137931,24.1059483 19.9137931,24.4396552 C19.9137931,24.7733621 20.1841379,25.0431034 20.5172414,25.0431034 L29.5689655,25.0431034 C29.902069,25.0431034 30.1724138,24.7733621 30.1724138,24.4396552 C30.1724138,24.1059483 29.902069,23.8362069 29.5689655,23.8362069 Z" id="Path"></path>
                    <path d="M5.43103448,20.2155172 L11.4655172,20.2155172 C11.7986207,20.2155172 12.0689655,19.9457759 12.0689655,19.612069 C12.0689655,19.2783621 11.7986207,19.0086207 11.4655172,19.0086207 L5.43103448,19.0086207 C5.09793103,19.0086207 4.82758621,19.2783621 4.82758621,19.612069 C4.82758621,19.9457759 5.09793103,20.2155172 5.43103448,20.2155172 Z" id="Path"></path>
                    <path d="M29.5689655,28.6637931 L23.5344828,28.6637931 C23.2013793,28.6637931 22.9310345,28.9335345 22.9310345,29.2672414 C22.9310345,29.6009483 23.2013793,29.8706897 23.5344828,29.8706897 L29.5689655,29.8706897 C29.902069,29.8706897 30.1724138,29.6009483 30.1724138,29.2672414 C30.1724138,28.9335345 29.902069,28.6637931 29.5689655,28.6637931 Z" id="Path"></path>
                    <path d="M16.8965517,19.612069 C16.8965517,19.9457759 17.1668966,20.2155172 17.5,20.2155172 L26.5517241,20.2155172 C26.8848276,20.2155172 27.1551724,19.9457759 27.1551724,19.612069 C27.1551724,19.2783621 26.8848276,19.0086207 26.5517241,19.0086207 L17.5,19.0086207 C17.1668966,19.0086207 16.8965517,19.2783621 16.8965517,19.612069 Z" id="Path"></path>
                    <path d="M14.9112069,20.0405172 C15.0198276,19.9258621 15.0862069,19.7689655 15.0862069,19.612069 C15.0862069,19.454569 15.0198276,19.2976724 14.9112069,19.1836207 C14.687931,18.9603448 14.2775862,18.9603448 14.0543103,19.1836207 C13.9456897,19.2976724 13.8793103,19.454569 13.8793103,19.612069 C13.8793103,19.7689655 13.9456897,19.9258621 14.0543103,20.0405172 C14.1689655,20.154569 14.3258621,20.2155172 14.4827586,20.2155172 C14.6396552,20.2155172 14.7965517,20.154569 14.9112069,20.0405172 Z" id="Path"></path>
                    <path d="M7.84482759,24.4396552 C7.84482759,24.7733621 8.11517241,25.0431034 8.44827586,25.0431034 L17.5,25.0431034 C17.8331034,25.0431034 18.1034483,24.7733621 18.1034483,24.4396552 C18.1034483,24.1059483 17.8331034,23.8362069 17.5,23.8362069 L8.44827586,23.8362069 C8.11517241,23.8362069 7.84482759,24.1059483 7.84482759,24.4396552 Z" id="Path"></path>
                    <path d="M5.43103448,25.0431034 C5.58793103,25.0431034 5.74482759,24.9767241 5.85948276,24.8681034 C5.96810345,24.7534483 6.03448276,24.5965517 6.03448276,24.4396552 C6.03448276,24.2821552 5.96810345,24.1252586 5.85948276,24.0172414 C5.6362069,23.787931 5.22586207,23.787931 5.00258621,24.0112069 C4.89396552,24.1252586 4.82758621,24.2821552 4.82758621,24.4396552 C4.82758621,24.5965517 4.89396552,24.7534483 5.00258621,24.8681034 C5.11724138,24.9767241 5.26810345,25.0431034 5.43103448,25.0431034 Z" id="Path"></path>
                    <path d="M29.5689655,20.2155172 C29.7258621,20.2155172 29.8827586,20.154569 29.9974138,20.0405172 C30.112069,19.9258621 30.1724138,19.7689655 30.1724138,19.612069 C30.1724138,19.454569 30.112069,19.2976724 29.9974138,19.1836207 C29.7681034,18.9603448 29.3637931,18.9603448 29.1405172,19.1836207 C29.0318966,19.2976724 28.9655172,19.454569 28.9655172,19.612069 C28.9655172,19.7689655 29.0318966,19.9258621 29.1405172,20.0405172 C29.2551724,20.154569 29.412069,20.2155172 29.5689655,20.2155172 Z" id="Path"></path>
                    <path d="M20.5172414,28.6637931 L5.43103448,28.6637931 C5.09793103,28.6637931 4.82758621,28.9335345 4.82758621,29.2672414 C4.82758621,29.6009483 5.09793103,29.8706897 5.43103448,29.8706897 L20.5172414,29.8706897 C20.8503448,29.8706897 21.1206897,29.6009483 21.1206897,29.2672414 C21.1206897,28.9335345 20.8503448,28.6637931 20.5172414,28.6637931 Z" id="Path"></path>
                </g>
            </g>
        </g>
    </g>
</svg>