<?xml version="1.0" encoding="UTF-8"?>
<svg width="42px" height="42px" viewBox="0 0 42 42" version="1.1" xmlns="http://www.w3.org/2000/svg" xmlns:xlink="http://www.w3.org/1999/xlink">
    <title>Glossary</title>
    <g id="Page-1" stroke="none" stroke-width="1" fill="none" fill-rule="evenodd">
        <g id="Entities-Timeline-Copy" transform="translate(-902.000000, -215.000000)">
            <g id="Glossary" transform="translate(902.000000, 215.000000)">
                <rect id="Rectangle-Copy-8" x="0" y="0" width="42" height="42"></rect>
                <g id="abc" transform="translate(4.000000, 4.000000)" fill="#000000" fill-rule="nonzero">
                    <path d="M14.3812402,27.6707129 L13.3195508,27.6707129 C12.4514551,27.6707129 11.745166,28.377002 11.745166,29.2450977 L11.745166,31.1031055 C11.745166,31.9712012 12.4514551,32.6774902 13.3195508,32.6774902 L14.3812402,32.6774902 C14.9566211,32.6774902 15.4248145,32.2092969 15.4248145,31.633916 L15.4248145,31.3684766 C15.4248145,31.085332 15.195332,30.8557812 14.9121191,30.8557812 C14.6289063,30.8557812 14.3994238,31.085332 14.3994238,31.3684766 L14.3994238,31.633916 C14.3994238,31.6439648 14.3912207,31.6520996 14.3812402,31.6520996 L13.3195508,31.6520996 C13.0168555,31.6520996 12.7705566,31.4058008 12.7705566,31.1031055 L12.7705566,29.2450977 C12.7705566,28.9424023 13.0167871,28.6961035 13.3195508,28.6961035 L14.3812402,28.6961035 C14.3912891,28.6961035 14.3994238,28.7043066 14.3994238,28.7142871 L14.3994238,28.9797266 C14.3994238,29.2628711 14.6289063,29.4924219 14.9121191,29.4924219 C15.195332,29.4924219 15.4248145,29.2628711 15.4248145,28.9797266 L15.4248145,28.7142871 C15.4248145,28.1388379 14.9566211,27.6707129 14.3812402,27.6707129 Z" id="Path"></path>
                    <path d="M13.5849902,25.3482715 C10.9239648,25.3482715 8.7590918,27.5131445 8.7590918,30.1741699 C8.7590918,32.8351953 10.9239648,35 13.5849902,35 C16.2460156,35 18.4108887,32.835127 18.4108887,30.1741016 C18.4108887,27.5130762 16.2459473,25.3482715 13.5849902,25.3482715 Z M13.5849902,33.9746094 C11.4894336,33.9746094 9.78448242,32.2697266 9.78448242,30.1741016 C9.78448242,28.0784766 11.4893652,26.3735937 13.5849902,26.3735937 C15.6806152,26.3735937 17.385498,28.0784766 17.385498,30.1741016 C17.385498,32.2697266 15.6805469,33.9746094 13.5849902,33.9746094 Z" id="Shape"></path>
                    <path d="M26.6129883,16.5891797 L24.8435059,16.5891797 C24.560293,16.5891797 24.3308105,16.8187305 24.3308105,17.101875 L24.3308105,23.7375195 C24.3308105,24.0206641 24.560293,24.2502148 24.8435059,24.2502148 L27.7189062,24.2502148 C29.0992871,24.2502148 30.2222949,23.127207 30.2222949,21.7468262 C30.2222949,20.543291 29.3685547,19.5354004 28.2348828,19.2968945 C28.3738574,19.0382227 28.4528125,18.7426367 28.4528125,18.4290039 C28.4528125,17.4145508 27.6274414,16.5891797 26.6129883,16.5891797 Z M25.3562012,17.6145703 L26.6129883,17.6145703 C27.062041,17.6145703 27.4274219,17.9799512 27.4274219,18.4290039 C27.4274219,18.8780566 27.062041,19.2434375 26.6129883,19.2434375 L25.3562012,19.2434375 L25.3562012,17.6145703 Z M29.1969043,21.7468262 C29.1969043,22.5618066 28.5338867,23.2248242 27.7189062,23.2248242 L25.3562012,23.2248242 L25.3562012,20.2688281 L27.7189062,20.2688281 C28.5338867,20.2688281 29.1969043,20.9318457 29.1969043,21.7468262 Z" id="Shape"></path>
                    <path d="M8.29834961,16.932207 L9.50865234,13.3013672 L14.0780664,13.3013672 L15.2883691,16.932207 C15.3600098,17.1470605 15.5600293,17.2828906 15.7746777,17.2828906 C15.8284082,17.2828906 15.8830957,17.2743457 15.9368945,17.2564355 C16.2055469,17.1668848 16.3506738,16.8764941 16.261123,16.6079102 L14.9378906,12.6381445 C14.935498,12.6302832 14.9329004,12.6224902 14.9300977,12.6147656 L13.1531641,7.28396484 C12.957793,6.69771484 12.4112598,6.30389648 11.7933594,6.30389648 C11.175459,6.30389648 10.6289941,6.6977832 10.4335547,7.28396484 L8.65662109,12.6147656 C8.65381836,12.6224902 8.6512207,12.6302832 8.64882813,12.6382129 L7.3255957,16.6079785 C7.23604492,16.8765625 7.38124023,17.1669531 7.64982422,17.2565039 C7.91833984,17.3458496 8.20873047,17.200791 8.29834961,16.932207 Z M11.4063086,7.60819336 C11.4618848,7.44132813 11.6174707,7.32921875 11.793291,7.32921875 C11.9691113,7.32921875 12.1246973,7.44132813 12.1802734,7.60819336 L13.7362012,12.2759766 L9.85038086,12.2759766 L11.4063086,7.60819336 Z" id="Shape"></path>
                    <path d="M31.522832,13.5743945 C31.2941016,13.4071875 30.9734961,13.4569531 30.8063574,13.6855469 C30.6392187,13.9140723 30.6889844,14.2348828 30.9175781,14.4020215 C32.8318457,15.8019531 33.9746777,18.0515918 33.9746777,20.419834 C33.9746777,24.5278223 30.6325879,27.8699121 26.5245996,27.8699121 C22.666875,27.8699121 19.4183691,24.8772754 19.100293,21.0443652 C21.3746777,19.2440527 22.9725098,16.6237695 23.4432324,13.6346191 C24.4129785,13.1933594 25.4495117,12.9696875 26.5245996,12.9696875 C27.5995508,12.9696875 28.6364258,13.1934961 29.6064453,13.6348926 C29.8643652,13.7522656 30.1682227,13.6383105 30.285459,13.3805273 C30.4027637,13.1228125 30.288877,12.8188184 30.0311621,12.7015137 C28.9268164,12.1990039 27.7470703,11.9442285 26.5245996,11.9442285 C25.5023535,11.9442285 24.5103223,12.1222363 23.5673047,12.4742188 C23.5801563,12.2488379 23.5867188,12.0219531 23.5867188,11.7933594 C23.5867187,5.29046875 18.29625,0 11.7933594,0 C5.29046875,0 0,5.29046875 0,11.7933594 C0,14.842666 1.15978516,17.7357715 3.26573242,19.9396777 C3.46130859,20.1444141 3.78581055,20.1517285 3.99061523,19.9561523 C4.1952832,19.7605762 4.20266602,19.4360059 4.00708984,19.2312695 C2.08427734,17.2191113 1.02539062,14.5775684 1.02539062,11.7933594 C1.02539062,5.85586914 5.8559375,1.02539063 11.7933594,1.02539063 C17.7307813,1.02539063 22.5613281,5.85573242 22.5613281,11.7932227 C22.5613281,17.7307129 17.7307813,22.5611914 11.7933594,22.5611914 C9.43393555,22.5611914 7.19407227,21.8124512 5.31576172,20.3958398 C5.08969727,20.2252832 4.76813477,20.2704004 4.59771484,20.4964648 C4.42722656,20.7225293 4.47227539,21.0440234 4.6984082,21.2145117 C6.75595703,22.7664063 9.209375,23.5866504 11.7933594,23.5866504 C14.1319336,23.5866504 16.3134863,22.9025781 18.1487988,21.7238574 C18.4376855,23.5947168 19.3448828,25.3132715 20.7451562,26.619209 C22.3189941,28.0868848 24.371416,28.895166 26.5245312,28.895166 C31.1979199,28.895166 35,25.0930859 35,20.4196973 C35,17.7255859 33.7000781,15.1665527 31.522832,13.5743945 Z" id="Path"></path>
                </g>
            </g>
        </g>
    </g>
</svg>