<svg fill="none" height="64" viewBox="0 0 64 64" width="64" xmlns="http://www.w3.org/2000/svg"><path d="m0 8c0-4.41828 3.58172-8 8-8h48c4.4183 0 8 3.58172 8 8v48c0 4.4183-3.5817 8-8 8h-48c-4.41828 0-8-3.5817-8-8z" fill="#3452db"/><path d="m35.1495 47c-.1697 0-.3189-.1101-.3664-.2702l-4.1766-14.1015c-.1069-.3608-.6272-.3601-.7331.0009l-4.1347 14.0996c-.0471.1606-.1966.2712-.3667.2712h-5.7896c-.1705 0-.3203-.1112-.367-.2723l-5.2006-17.9568c-.0693-.2395.1137-.4777.367-.4777h5.3816c.1737 0 .3254.1152.3693.2804l2.2003 8.2887c.0978.3686.6278.3756.7357.0097l4.0218-13.6313c.0473-.1603.1966-.2706.3665-.2706h5.6975c.171 0 .3211.1118.3674.2736l3.9046 13.6522c.1043.3647.6304.3647.7347.0001l5.6148-19.6225c.0463-.1618.1964-.2735.3674-.2735h5.4748c.2546 0 .4378.2403.3662.4804l-8.7217 29.2501c-.0477.1597-.1968.2695-.3662.2695z" fill="#fff"/></svg>