<svg xmlns="http://www.w3.org/2000/svg" xmlns:xlink="http://www.w3.org/1999/xlink" version="1.1" id="Livello_1" x="0px" y="0px" width="100px" height="100px" viewBox="0 0 100 100" enable-background="new 0 0 100 100" xml:space="preserve">
<path d="M100-0.001h-9.526C85.313,2.911,79.37,4.581,73.027,4.581s-12.285-1.67-17.441-4.582H45  c-5.151,2.912-11.685,4.582-18.027,4.582c-6.338,0-12.285-1.67-17.441-4.582H0v10c3.564,5.537,7.324,10.923,7.324,18  c0,7.07-3.76,11.463-7.324,17v10.002c3.564,5.527,7.324,10.088,7.324,17.158S3.564,84.464,0,90.001v10h10  c5.371-3.271,10.229-5.146,16.973-5.146S39.634,96.739,45,100.001h10.586c5.366-3.262,10.698-5.146,17.441-5.146  S84.629,96.729,90,100.001h10v-10c-3.32-5.4-6.914-11.035-6.914-17.842S96.68,60.401,100,55.001V44.999  c-3.32-5.4-6.914-10.198-6.914-17c0-6.807,3.594-12.598,6.914-18V-0.001z M75,75.001H25V24.999h50V75.001z"/>
</svg>