<svg xmlns="http://www.w3.org/2000/svg" xmlns:xlink="http://www.w3.org/1999/xlink" version="1.1" id="Layer_1" x="0px" y="0px" width="100px" height="100px" viewBox="0 0 100 100" enable-background="new 0 0 100 100" xml:space="preserve">
<path d="M94.242,0H21.127L5.933,6.046V100h73.114l15.26-6.014V0.034L94.242,0z M79.047,21.795v18.36H7.793V18.76h44.506  l-0.207-0.268l1.657-1.266l-0.802-1.926l1.928-0.794l-0.276-2.067l2.068-0.268l0.267-2.068l2.067,0.277l0.794-1.929l1.927,0.802  l1.264-1.657l1.653,1.273l1.652-1.273l1.264,1.657l1.927-0.802l0.794,1.929l2.067-0.277l0.267,2.068l2.069,0.268l-0.275,2.067  l1.928,0.794l-0.804,1.926l1.659,1.266L76.98,18.76h2.067V21.795z M92.447,91.871l-11.539,4.575V78.771l11.539-4.574V91.871z   M92.447,35.271l-11.539,4.575V7.288l11.539-4.575V35.271z"/>
<polygon points="52.092,21.795 53.75,23.062 52.948,24.986 54.875,25.78 54.599,27.848 56.667,28.117 56.934,30.185 59.001,29.907   59.795,31.836 61.722,31.034 62.986,32.691 64.639,31.419 66.292,32.691 67.555,31.034 69.482,31.836 70.276,29.907 72.343,30.185   72.61,28.117 74.679,27.848 74.404,25.78 76.332,24.986 75.528,23.062 77.187,21.795 75.914,20.145 76.98,18.76 52.299,18.76   53.366,20.145 "/>
</svg>