<?xml version="1.0" encoding="utf-8"?>
<!-- Generator: Adobe Illustrator 14.0.0, SVG Export Plug-In . SVG Version: 6.00 Build 43363)  -->
<!DOCTYPE svg PUBLIC "-//W3C//DTD SVG 1.0//EN" "http://www.w3.org/TR/2001/REC-SVG-20010904/DTD/svg10.dtd">
<svg version="1.0" id="Layer_1" xmlns="http://www.w3.org/2000/svg" xmlns:xlink="http://www.w3.org/1999/xlink" x="0px" y="0px"
	 width="100px" height="76.434px" viewBox="0 0 100 76.434" enable-background="new 0 0 100 76.434" xml:space="preserve">
<path d="M98.574,67.99C96.458,57.071,67.338,58.232,60.32,49.68c-1.48-1.805-1.48-1.805-0.488-8.507
	c1.694-7.502,3.229-2.846,5.651-17.809C67.517,10.798,63.177,0,50,0S32.483,10.798,34.517,23.364
	c2.422,14.963,3.956,10.307,5.651,17.809c0.992,6.702,0.992,6.702-0.488,8.507C32.662,58.232,3.542,57.071,1.426,67.99
	C1.175,69.282,0,76.434,0,76.434h100C100,76.434,98.825,69.282,98.574,67.99z"/>
</svg>
