<?xml version="1.0" encoding="utf-8"?>
<!-- Generator: Adobe Illustrator 19.2.1, SVG Export Plug-In . SVG Version: 6.00 Build 0)  -->
<svg version="1.1" id="Layer_1" xmlns="http://www.w3.org/2000/svg" xmlns:xlink="http://www.w3.org/1999/xlink" x="0px" y="0px"
	 viewBox="0 0 40 40" style="enable-background:new 0 0 40 40;" xml:space="preserve">
<style type="text/css">
	.st0{fill:#FFFFFF;stroke:#0A61FE;stroke-width:2;stroke-miterlimit:10;}
	.st1{fill:#FFFFFF;stroke:#0A61FE;stroke-width:8;stroke-miterlimit:10;}
	.st2{opacity:0.2;}
	.st3{fill:#010002;}
	.st4{fill:#FFFFFF;}
	.st5{fill:#CBCBCB;stroke:#000000;stroke-miterlimit:10;}
	.st6{fill:#231F20;}
	.st7{fill:#010101;}
	.st8{display:none;}
	.st9{display:inline;fill:#BAFF1F;}
	.st10{fill:#0A61FE;}
	.st11{fill:none;stroke:#0A61FE;stroke-width:8;stroke-miterlimit:10;}
	.st12{display:inline;}
	.st13{fill:none;stroke:#0A61FE;stroke-miterlimit:10;}
	.st14{fill:#0A61FE;stroke:#FFFFFF;stroke-width:8;stroke-linecap:round;stroke-miterlimit:10;}
	.st15{clip-path:url(#SVGID_2_);}
	.st16{fill:none;stroke:#0A61FE;stroke-width:40;stroke-miterlimit:10;}
	.st17{fill:#0A61FE;stroke:#FFFFFF;stroke-width:8;stroke-miterlimit:10;}
	.st18{fill:none;stroke:#85FF37;stroke-width:8;stroke-miterlimit:10;}
	.st19{fill:none;stroke:#0A61FE;stroke-width:5;stroke-miterlimit:10;}
	.st20{fill:none;stroke:#0A61FE;stroke-width:5;stroke-miterlimit:10;stroke-dasharray:11.8358,11.8358;}
	.st21{fill:#FFFFFF;stroke:#0A61FE;stroke-miterlimit:10;}
	.st22{fill:#FFFFFF;stroke:#0A61FE;stroke-width:0.5;stroke-miterlimit:10;}
	.st23{fill:none;stroke:#0A61FE;stroke-width:0.9086;stroke-miterlimit:10;}
	.st24{fill:#0A61FE;stroke:#0A61FE;stroke-width:0.5;stroke-miterlimit:10;}
	.st25{fill:#0A61FE;stroke:#0A61FE;stroke-miterlimit:10;}
	.st26{fill:none;stroke:#0A61FE;stroke-width:2;stroke-miterlimit:10;}
	.st27{fill:none;stroke:#0A61FE;stroke-width:3;stroke-miterlimit:10;}
	.st28{fill:none;stroke:#0A61FE;stroke-width:0.5712;stroke-miterlimit:10;}
	.st29{fill:#FFFFFF;stroke:#0A61FE;stroke-width:0.5712;stroke-miterlimit:10;}
	.st30{fill:#FFFFFF;stroke:#0A61FE;stroke-width:0.7519;stroke-miterlimit:10;}
	.st31{fill:none;stroke:#0A61FE;stroke-width:0.7519;stroke-miterlimit:10;}
	.st32{fill:none;stroke:#0A61FE;stroke-width:0.4699;stroke-miterlimit:10;}
	.st33{fill:none;stroke:#0A61FE;stroke-width:0.4699;stroke-miterlimit:10;stroke-dasharray:1.1115,1.1115;}
	.st34{fill:#FFFFFF;stroke:#0A61FE;stroke-width:0.4573;stroke-miterlimit:10;}
	.st35{fill:none;stroke:#0A61FE;stroke-width:0.4573;stroke-miterlimit:10;}
	.st36{fill:none;stroke:#0A61FE;stroke-width:0.5069;stroke-miterlimit:10;}
	.st37{fill:#FFFFFF;stroke:#0A61FE;stroke-width:0.5069;stroke-miterlimit:10;}
	.st38{fill:none;stroke:#0A61FE;stroke-width:0.5885;stroke-miterlimit:10;}
	.st39{fill:none;stroke:#0A61FE;stroke-width:0.4951;stroke-miterlimit:10;}
	.st40{fill:none;stroke:#0A61FE;stroke-width:0.4424;stroke-miterlimit:10;}
	.st41{fill:none;stroke:#0A61FE;stroke-width:0.438;stroke-miterlimit:10;}
	.st42{fill:#FFFFFF;stroke:#0A61FE;stroke-width:0.657;stroke-miterlimit:10;}
	.st43{fill:none;stroke:#0A61FE;stroke-width:0.657;stroke-miterlimit:10;}
</style>
<g>
	<g>
		<polygon class="st4" points="4.6,32.4 6.1,30.9 5.5,30.3 26.9,8.9 27.3,9.4 34.2,5.6 35.8,7.1 31.9,13.9 32.3,14.4 11,35.7 
			10.3,35 8.8,36.5 		"/>
		<path class="st10" d="M34.1,6.2l1,1l-3.5,6.2L31.2,14l0.4,0.4L11,35l-0.7-0.7L9.6,35l-0.8,0.8l-3.4-3.4l0.8-0.8l0.7-0.7l-0.6-0.6
			L26.9,9.6l0.4,0.4l0.7-0.4L34.1,6.2 M34.3,4.9l-6.9,3.9l-0.6-0.6L4.8,30.3l0.6,0.6l-1.5,1.5l4.8,4.8l1.5-1.5l0.7,0.7L33,14.4
			l-0.5-0.5L36.4,7L34.3,4.9L34.3,4.9z"/>
	</g>
	<line class="st13" x1="32.6" y1="14.8" x2="28.5" y2="10.8"/>
	<line class="st13" x1="11.5" y1="35.9" x2="9.2" y2="33.7"/>
	<polygon class="st10" points="32.7,11.4 29.7,8.4 34.2,5.5 35.9,7.2 	"/>
	<rect x="6.8" y="29" transform="matrix(0.7071 0.7071 -0.7071 0.7071 24.6051 1.1417)" class="st10" width="8.3" height="2.6"/>
</g>
<g>
	<g>
		<polygon class="st4" points="30,35.1 29.3,35.7 8,14.4 8.5,13.9 4.6,7.1 6.2,5.5 13,9.4 13.4,8.9 34.8,30.3 34.1,31 35.6,32.5 
			31.5,36.6 		"/>
		<path class="st10" d="M6.3,6.1l6.2,3.5l0.7,0.4l0.4-0.4l20.6,20.6L33.4,31l0.7,0.7l0.8,0.8l-3.4,3.4l-0.8-0.8L30,34.4L29.3,35
			L8.7,14.4L9.1,14l-0.4-0.7L5.2,7.1L6.3,6.1 M6.1,4.9L4,7l3.9,6.9l-0.6,0.6l22.1,22.1l0.6-0.6l1.5,1.5l4.8-4.8L34.8,31l0.7-0.7
			L13.4,8.2l-0.5,0.5L6.1,4.9L6.1,4.9z"/>
	</g>
	<line class="st13" x1="13.9" y1="8.7" x2="9.8" y2="12.8"/>
	<line class="st13" x1="35" y1="29.8" x2="32.7" y2="32.1"/>
	
		<rect x="21.9" y="25.4" transform="matrix(0.7071 -0.7071 0.7071 0.7071 -11.556 26.4475)" class="st10" width="8.4" height="3.6"/>
	<rect x="25" y="29.1" transform="matrix(0.7071 -0.7071 0.7071 0.7071 -12.8686 29.6164)" class="st10" width="8.5" height="2.6"/>
	<polygon class="st10" points="10.7,8.3 7.3,11.6 4.6,7.3 6.3,5.6 	"/>
</g>
<rect x="13.4" y="21.9" transform="matrix(-0.7071 0.7071 -0.7071 -0.7071 44.8943 32.4814)" class="st10" width="4.7" height="7.3"/>
</svg>
