<?xml version="1.0" encoding="utf-8"?>
<!-- Generator: Adobe Illustrator 19.2.1, SVG Export Plug-In . SVG Version: 6.00 Build 0)  -->
<svg version="1.1" id="Layer_1" xmlns="http://www.w3.org/2000/svg" xmlns:xlink="http://www.w3.org/1999/xlink" x="0px" y="0px"
	 viewBox="0 0 40 40" style="enable-background:new 0 0 40 40;" xml:space="preserve">
<style type="text/css">
	.st0{fill:#FFFFFF;stroke:#0A61FE;stroke-width:2;stroke-miterlimit:10;}
	.st1{fill:#FFFFFF;stroke:#0A61FE;stroke-width:8;stroke-miterlimit:10;}
	.st2{opacity:0.2;}
	.st3{fill:#010002;}
	.st4{fill:#FFFFFF;}
	.st5{fill:#CBCBCB;stroke:#000000;stroke-miterlimit:10;}
	.st6{fill:#231F20;}
	.st7{fill:#010101;}
	.st8{display:none;}
	.st9{display:inline;fill:#BAFF1F;}
	.st10{fill:#0A61FE;}
	.st11{fill:none;stroke:#0A61FE;stroke-width:8;stroke-miterlimit:10;}
	.st12{display:inline;}
	.st13{fill:none;stroke:#0A61FE;stroke-miterlimit:10;}
	.st14{fill:#0A61FE;stroke:#FFFFFF;stroke-width:8;stroke-linecap:round;stroke-miterlimit:10;}
	.st15{clip-path:url(#SVGID_2_);}
	.st16{fill:none;stroke:#0A61FE;stroke-width:40;stroke-miterlimit:10;}
	.st17{fill:#0A61FE;stroke:#FFFFFF;stroke-width:8;stroke-miterlimit:10;}
	.st18{fill:none;stroke:#85FF37;stroke-width:8;stroke-miterlimit:10;}
	.st19{fill:none;stroke:#0A61FE;stroke-width:5;stroke-miterlimit:10;}
	.st20{fill:none;stroke:#0A61FE;stroke-width:5;stroke-miterlimit:10;stroke-dasharray:11.8358,11.8358;}
	.st21{fill:#FFFFFF;stroke:#0A61FE;stroke-miterlimit:10;}
	.st22{fill:#FFFFFF;stroke:#0A61FE;stroke-width:0.5;stroke-miterlimit:10;}
	.st23{fill:none;stroke:#0A61FE;stroke-width:0.9086;stroke-miterlimit:10;}
	.st24{fill:#0A61FE;stroke:#0A61FE;stroke-width:0.5;stroke-miterlimit:10;}
	.st25{fill:#0A61FE;stroke:#0A61FE;stroke-miterlimit:10;}
	.st26{fill:none;stroke:#0A61FE;stroke-width:2;stroke-miterlimit:10;}
	.st27{fill:none;stroke:#0A61FE;stroke-width:3;stroke-miterlimit:10;}
	.st28{fill:none;stroke:#0A61FE;stroke-width:0.5712;stroke-miterlimit:10;}
	.st29{fill:#FFFFFF;stroke:#0A61FE;stroke-width:0.5712;stroke-miterlimit:10;}
	.st30{fill:#FFFFFF;stroke:#0A61FE;stroke-width:0.7519;stroke-miterlimit:10;}
	.st31{fill:none;stroke:#0A61FE;stroke-width:0.7519;stroke-miterlimit:10;}
	.st32{fill:none;stroke:#0A61FE;stroke-width:0.4699;stroke-miterlimit:10;}
	.st33{fill:none;stroke:#0A61FE;stroke-width:0.4699;stroke-miterlimit:10;stroke-dasharray:1.1115,1.1115;}
	.st34{fill:#FFFFFF;stroke:#0A61FE;stroke-width:0.4573;stroke-miterlimit:10;}
	.st35{fill:none;stroke:#0A61FE;stroke-width:0.4573;stroke-miterlimit:10;}
	.st36{fill:none;stroke:#0A61FE;stroke-width:0.5069;stroke-miterlimit:10;}
	.st37{fill:#FFFFFF;stroke:#0A61FE;stroke-width:0.5069;stroke-miterlimit:10;}
	.st38{fill:none;stroke:#0A61FE;stroke-width:0.5885;stroke-miterlimit:10;}
	.st39{fill:none;stroke:#0A61FE;stroke-width:0.4951;stroke-miterlimit:10;}
	.st40{fill:none;stroke:#0A61FE;stroke-width:0.4424;stroke-miterlimit:10;}
	.st41{fill:none;stroke:#0A61FE;stroke-width:0.438;stroke-miterlimit:10;}
	.st42{fill:#FFFFFF;stroke:#0A61FE;stroke-width:0.657;stroke-miterlimit:10;}
	.st43{fill:none;stroke:#0A61FE;stroke-width:0.657;stroke-miterlimit:10;}
</style>
<polygon class="st25" points="21.1,28.6 20.6,28.6 20.6,24.8 21.2,24.8 "/>
<path class="st25" d="M7.6,25.2L7,25.1c-3-0.3-5.3-2.9-5.2-5.9c0-3.3,2.7-5.9,5.9-5.9l0,0c1.3-3.6,4.6-5.9,8.4-5.9
	c0.9,0,1.8,0.1,2.6,0.4C20.1,6.1,22.3,5,24.5,5c1.9,0,3.7,0.8,5.1,2.1c1.3,1.3,2,3,2.1,4.8c0.1,0,0.2,0,0.3,0c3.6,0,6.6,3,6.6,6.7
	c0,3.5-2.8,6.4-6.3,6.6l0,0L7.6,25.2z M7.5,24.6L7.5,24.6l0.4,0l24,0.1c3.3,0,6-2.7,6.1-6c0-3.3-2.7-6.1-6-6.1c-0.2,0-0.4,0-0.5,0
	l-0.3,0l0-0.3c0-1.8-0.7-3.5-1.9-4.7c-1.3-1.3-2.9-2-4.7-2c-2.2,0-4.2,1-5.5,2.8L19,8.5l-0.2-0.1C17.9,8.2,17.1,8,16.1,8
	c-3.6,0-6.8,2.3-8,5.7l-0.1,0.2l-0.4,0c-2.9,0-5.4,2.4-5.4,5.3c0,2.8,2.2,5.2,5,5.4L7.5,24.6z"/>
<g>
	
		<rect x="12.1" y="27.8" transform="matrix(5.828448e-03 -1 1 5.828448e-03 -19.6954 44.1942)" class="st25" width="0.5" height="8.5"/>
	
		<rect x="29.1" y="27.9" transform="matrix(5.828448e-03 -1 1 5.828448e-03 -2.9217 61.2638)" class="st25" width="0.5" height="8.5"/>
	
		<rect x="14.1" y="29.1" transform="matrix(1 5.828448e-03 -5.828448e-03 1 0.1908 -0.1205)" class="st25" width="13.3" height="7.2"/>
</g>
</svg>
