<?xml version="1.0" encoding="utf-8"?>
<!-- Generator: Adobe Illustrator 19.2.1, SVG Export Plug-In . SVG Version: 6.00 Build 0)  -->
<svg version="1.1" id="Layer_1" xmlns="http://www.w3.org/2000/svg" xmlns:xlink="http://www.w3.org/1999/xlink" x="0px" y="0px"
	 viewBox="0 0 40 40" style="enable-background:new 0 0 40 40;" xml:space="preserve">
<style type="text/css">
	.st0{fill:#FFFFFF;stroke:#0A61FE;stroke-width:2;stroke-miterlimit:10;}
	.st1{fill:#FFFFFF;stroke:#0A61FE;stroke-width:8;stroke-miterlimit:10;}
	.st2{opacity:0.2;}
	.st3{fill:#010002;}
	.st4{fill:#FFFFFF;}
	.st5{fill:#CBCBCB;stroke:#000000;stroke-miterlimit:10;}
	.st6{fill:#231F20;}
	.st7{fill:#010101;}
	.st8{display:none;}
	.st9{display:inline;fill:#BAFF1F;}
	.st10{fill:#0A61FE;}
	.st11{fill:none;stroke:#0A61FE;stroke-width:8;stroke-miterlimit:10;}
	.st12{display:inline;}
	.st13{fill:none;stroke:#0A61FE;stroke-miterlimit:10;}
	.st14{fill:#0A61FE;stroke:#FFFFFF;stroke-width:8;stroke-linecap:round;stroke-miterlimit:10;}
	.st15{clip-path:url(#SVGID_2_);}
	.st16{fill:none;stroke:#0A61FE;stroke-width:40;stroke-miterlimit:10;}
	.st17{fill:#0A61FE;stroke:#FFFFFF;stroke-width:8;stroke-miterlimit:10;}
	.st18{fill:none;stroke:#85FF37;stroke-width:8;stroke-miterlimit:10;}
	.st19{fill:none;stroke:#0A61FE;stroke-width:5;stroke-miterlimit:10;}
	.st20{fill:none;stroke:#0A61FE;stroke-width:5;stroke-miterlimit:10;stroke-dasharray:11.8358,11.8358;}
	.st21{fill:#FFFFFF;stroke:#0A61FE;stroke-miterlimit:10;}
	.st22{fill:#FFFFFF;stroke:#0A61FE;stroke-width:0.5;stroke-miterlimit:10;}
	.st23{fill:none;stroke:#0A61FE;stroke-width:0.9086;stroke-miterlimit:10;}
	.st24{fill:#0A61FE;stroke:#0A61FE;stroke-width:0.5;stroke-miterlimit:10;}
	.st25{fill:#0A61FE;stroke:#0A61FE;stroke-miterlimit:10;}
	.st26{fill:none;stroke:#0A61FE;stroke-width:2;stroke-miterlimit:10;}
	.st27{fill:none;stroke:#0A61FE;stroke-width:3;stroke-miterlimit:10;}
	.st28{fill:none;stroke:#0A61FE;stroke-width:0.5712;stroke-miterlimit:10;}
	.st29{fill:#FFFFFF;stroke:#0A61FE;stroke-width:0.5712;stroke-miterlimit:10;}
	.st30{fill:#FFFFFF;stroke:#0A61FE;stroke-width:0.7519;stroke-miterlimit:10;}
	.st31{fill:none;stroke:#0A61FE;stroke-width:0.7519;stroke-miterlimit:10;}
	.st32{fill:none;stroke:#0A61FE;stroke-width:0.4699;stroke-miterlimit:10;}
	.st33{fill:none;stroke:#0A61FE;stroke-width:0.4699;stroke-miterlimit:10;stroke-dasharray:1.1115,1.1115;}
	.st34{fill:#FFFFFF;stroke:#0A61FE;stroke-width:0.4573;stroke-miterlimit:10;}
	.st35{fill:none;stroke:#0A61FE;stroke-width:0.4573;stroke-miterlimit:10;}
	.st36{fill:none;stroke:#0A61FE;stroke-width:0.5069;stroke-miterlimit:10;}
	.st37{fill:#FFFFFF;stroke:#0A61FE;stroke-width:0.5069;stroke-miterlimit:10;}
	.st38{fill:none;stroke:#0A61FE;stroke-width:0.5885;stroke-miterlimit:10;}
	.st39{fill:none;stroke:#0A61FE;stroke-width:0.4951;stroke-miterlimit:10;}
	.st40{fill:none;stroke:#0A61FE;stroke-width:0.4424;stroke-miterlimit:10;}
	.st41{fill:none;stroke:#0A61FE;stroke-width:0.438;stroke-miterlimit:10;}
	.st42{fill:#FFFFFF;stroke:#0A61FE;stroke-width:0.657;stroke-miterlimit:10;}
	.st43{fill:none;stroke:#0A61FE;stroke-width:0.657;stroke-miterlimit:10;}
</style>
<g>
	<rect x="10.8" y="23" class="st4" width="21.6" height="8.1"/>
	<path class="st10" d="M32,23.5v7.1H11.3v-7.1H32 M33,22.5H10.3v9.1H33V22.5L33,22.5z"/>
</g>
<line class="st13" x1="31" y1="31.3" x2="31" y2="34.5"/>
<g>
	<circle class="st4" cx="30.9" cy="36" r="1.1"/>
	<path class="st10" d="M30.9,35.4c0.3,0,0.6,0.3,0.6,0.6s-0.3,0.6-0.6,0.6s-0.6-0.3-0.6-0.6S30.6,35.4,30.9,35.4 M30.9,34.4
		c-0.9,0-1.6,0.7-1.6,1.6s0.7,1.6,1.6,1.6c0.9,0,1.6-0.7,1.6-1.6S31.8,34.4,30.9,34.4L30.9,34.4z"/>
</g>
<g>
	<g>
		<circle class="st13" cx="10.7" cy="31.1" r="5.1"/>
	</g>
	<g>
		<line class="st13" x1="10.7" y1="31.1" x2="10.7" y2="36.3"/>
		<line class="st13" x1="10.7" y1="31.1" x2="14.3" y2="34.8"/>
		<line class="st13" x1="10.7" y1="31.1" x2="15.8" y2="31.1"/>
		<line class="st13" x1="10.7" y1="31.1" x2="14.3" y2="27.5"/>
		<line class="st13" x1="10.7" y1="31.1" x2="10.7" y2="26"/>
		<line class="st13" x1="10.7" y1="31.1" x2="7" y2="27.5"/>
		<line class="st13" x1="10.7" y1="31.1" x2="5.5" y2="31.1"/>
		<line class="st13" x1="10.7" y1="31.1" x2="7" y2="34.8"/>
	</g>
</g>
<circle class="st21" cx="10.7" cy="31.1" r="1.3"/>
<rect x="9" y="21.7" transform="matrix(-1 -7.295310e-14 7.295310e-14 -1 43.0246 44.6692)" class="st21" width="25" height="1.3"/>
<g>
	<path class="st4" d="M31,13.4c-0.8,0-1.5-0.4-1.9-1.1l-0.4-0.8l-0.4,0.8c-0.4,0.7-1.1,1.1-1.9,1.1s-1.5-0.4-1.9-1.1L24,11.4
		l-0.4,0.8c-0.4,0.7-1.1,1.1-1.9,1.1s-1.5-0.4-1.9-1.1l-0.4-0.8l-0.4,0.8c-0.4,0.7-1.1,1.1-1.9,1.1s-1.5-0.4-1.9-1.1l-0.4-0.8
		l-0.4,0.8c-0.4,0.7-1.1,1.1-1.9,1.1c-1.2,0-2.1-1-2.1-2.1c0-0.3,0-0.5,0.1-0.7l1.3-6.9H31l1.9,6.7c0.2,0.4,0.2,0.7,0.2,1
		C33.1,12.4,32.2,13.4,31,13.4z"/>
	<path class="st10" d="M30.6,4.1l1.8,6.3l0,0.1l0,0.1c0.1,0.2,0.2,0.5,0.2,0.7c0,0.9-0.7,1.6-1.6,1.6c-0.6,0-1.2-0.3-1.4-0.9
		l-0.9-1.7L27.8,12c-0.3,0.5-0.8,0.9-1.4,0.9s-1.2-0.3-1.4-0.9L24,10.3L23.1,12c-0.3,0.5-0.8,0.9-1.4,0.9s-1.2-0.3-1.4-0.9l-0.9-1.7
		L18.5,12c-0.3,0.5-0.8,0.9-1.4,0.9s-1.2-0.3-1.4-0.9l-0.9-1.7L13.9,12c-0.3,0.5-0.8,0.9-1.4,0.9c-0.9,0-1.6-0.7-1.6-1.6
		c0-0.2,0-0.4,0.1-0.6l0-0.1l0-0.1l1.2-6.5H30.6 M31.3,3.1h-20L10,10.3c-0.1,0.3-0.2,0.6-0.2,0.9c0,1.4,1.2,2.6,2.6,2.6
		c1,0,1.9-0.6,2.3-1.4c0.4,0.8,1.3,1.4,2.3,1.4c1,0,1.9-0.6,2.3-1.4c0.4,0.8,1.3,1.4,2.3,1.4c1,0,1.9-0.6,2.3-1.4
		c0.4,0.8,1.3,1.4,2.3,1.4c1,0,1.9-0.6,2.3-1.4c0.4,0.8,1.3,1.4,2.3,1.4c1.4,0,2.6-1.2,2.6-2.6c0-0.4-0.1-0.8-0.3-1.2L31.3,3.1
		L31.3,3.1z"/>
</g>
<line class="st13" x1="10.1" y1="10.3" x2="32.9" y2="10.3"/>
<line class="st13" x1="15.8" y1="3.3" x2="14.7" y2="10.4"/>
<line class="st13" x1="19.4" y1="10.4" x2="19.8" y2="3.6"/>
<line class="st13" x1="23.9" y1="10.3" x2="23.4" y2="3.3"/>
<line class="st13" x1="28.9" y1="10.4" x2="27.8" y2="3.4"/>
<line class="st13" x1="12.6" y1="21.5" x2="12.6" y2="13.7"/>
<line class="st13" x1="31.2" y1="21.5" x2="31.2" y2="13.7"/>
<g>
	<path class="st10" d="M14.7,11.3c0,1.3-1,2.3-2.3,2.3s-2.3-1-2.3-2.3c0-1.5,1.1-1,2.4-1C15,10.3,14.7,9.8,14.7,11.3z"/>
</g>
<g>
	<path class="st10" d="M24,11.3c0,1.3-1,2.3-2.3,2.3c-1.3,0-2.3-1-2.3-2.3c0-1.5-0.1-1,2.4-1C24.3,10.3,24,9.8,24,11.3z"/>
</g>
<g>
	<path class="st10" d="M33.3,11.3c0,1.3-1,2.3-2.3,2.3c-1.3,0-2.3-1-2.3-2.3c0-1.5-0.2-1,2.4-1C33.6,10.3,33.3,9.8,33.3,11.3z"/>
</g>
<polygon class="st10" points="11.8,3.6 10.5,10.3 14.8,10.2 15.9,3.5 "/>
<polygon class="st10" points="31.4,3.6 33,10.2 28.7,10.2 27.6,3.5 "/>
<rect x="19.7" y="3.3" class="st10" width="4" height="7"/>
<path class="st21" d="M10.6,25.1c-3.4,0-6.1,2.7-6.1,6.1s2.7,6.1,6.1,6.1s6.1-2.7,6.1-6.1S14,25.1,10.6,25.1z M10.6,35.9
	c-2.6,0-4.6-2.1-4.6-4.6s2.1-4.6,4.6-4.6s4.6,2.1,4.6,4.6S13.2,35.9,10.6,35.9z"/>
</svg>
