<?xml version="1.0" encoding="utf-8"?>
<!-- Generator: Adobe Illustrator 19.2.1, SVG Export Plug-In . SVG Version: 6.00 Build 0)  -->
<svg version="1.1" id="Layer_1" xmlns="http://www.w3.org/2000/svg" xmlns:xlink="http://www.w3.org/1999/xlink" x="0px" y="0px"
	 viewBox="0 0 40 40" style="enable-background:new 0 0 40 40;" xml:space="preserve">
<style type="text/css">
	.st0{fill:#FFFFFF;}
	.st1{fill:#CBCBCB;}
	.st2{fill:none;stroke:#CBCBCB;stroke-width:2;stroke-miterlimit:10;}
	.st3{fill:#CBCBCB;stroke:#CBCBCB;stroke-miterlimit:10;}
	.st4{fill:none;stroke:#CBCBCB;stroke-width:3;stroke-miterlimit:10;}
</style>
<rect x="4.8" y="6" class="st0" width="30.5" height="19.5"/>
<path class="st1" d="M34.2,7v17.5H5.8V7H34.2 M36.2,5H3.8v21.5h32.5L36.2,5L36.2,5z"/>
<line class="st2" x1="4.2" y1="15.8" x2="36.1" y2="15.7"/>
<g>
	<circle class="st3" cx="31.2" cy="10.3" r="1.5"/>
</g>
<g>
	<circle class="st3" cx="31.2" cy="21" r="1.5"/>
</g>
<rect x="7.4" y="31.9" class="st3" width="8.5" height="0.5"/>
<g id="XMLID_8_">
	<g>
		<polygon class="st3" points="24.3,32.2 15.9,32.2 15.9,30.1 20.1,30.1 24.3,30.1 		"/>
		<rect x="15.9" y="32.2" class="st3" width="8.5" height="2.1"/>
	</g>
	<g>
		<polyline class="st3" points="15.9,32.2 15.9,30.1 20.1,30.1 24.3,30.1 24.3,32.2 		"/>
		<rect x="15.9" y="32.2" class="st3" width="8.5" height="2.1"/>
	</g>
</g>
<polygon class="st3" points="20.3,30.1 19.8,30.1 19.8,26.3 20.4,26.3 "/>
<rect x="24.3" y="31.9" class="st3" width="8.5" height="0.5"/>
<line class="st4" x1="7.8" y1="10.3" x2="21.1" y2="10.3"/>
<line class="st4" x1="7.8" y1="21" x2="21.1" y2="21"/>
</svg>
