<?xml version="1.0" encoding="utf-8"?>
<!-- Generator: Adobe Illustrator 19.2.1, SVG Export Plug-In . SVG Version: 6.00 Build 0)  -->
<svg version="1.1" id="Layer_1" xmlns="http://www.w3.org/2000/svg" xmlns:xlink="http://www.w3.org/1999/xlink" x="0px" y="0px"
	 viewBox="0 0 40 40" style="enable-background:new 0 0 40 40;" xml:space="preserve">
<style type="text/css">
	.st0{fill:#FFFFFF;stroke:#0A61FE;stroke-width:2;stroke-miterlimit:10;}
	.st1{fill:#FFFFFF;stroke:#0A61FE;stroke-width:8;stroke-miterlimit:10;}
	.st2{opacity:0.2;}
	.st3{fill:#010002;}
	.st4{fill:#FFFFFF;}
	.st5{fill:#CBCBCB;stroke:#000000;stroke-miterlimit:10;}
	.st6{fill:#231F20;}
	.st7{fill:#010101;}
	.st8{display:none;}
	.st9{display:inline;fill:#BAFF1F;}
	.st10{fill:#0A61FE;}
	.st11{fill:none;stroke:#0A61FE;stroke-width:8;stroke-miterlimit:10;}
	.st12{display:inline;}
	.st13{fill:none;stroke:#0A61FE;stroke-miterlimit:10;}
	.st14{fill:#0A61FE;stroke:#FFFFFF;stroke-width:8;stroke-linecap:round;stroke-miterlimit:10;}
	.st15{clip-path:url(#SVGID_2_);}
	.st16{fill:none;stroke:#0A61FE;stroke-width:40;stroke-miterlimit:10;}
	.st17{fill:#0A61FE;stroke:#FFFFFF;stroke-width:8;stroke-miterlimit:10;}
	.st18{fill:none;stroke:#85FF37;stroke-width:8;stroke-miterlimit:10;}
	.st19{fill:none;stroke:#0A61FE;stroke-width:5;stroke-miterlimit:10;}
	.st20{fill:none;stroke:#0A61FE;stroke-width:5;stroke-miterlimit:10;stroke-dasharray:11.8358,11.8358;}
	.st21{fill:#FFFFFF;stroke:#0A61FE;stroke-miterlimit:10;}
	.st22{fill:#FFFFFF;stroke:#0A61FE;stroke-width:0.5;stroke-miterlimit:10;}
	.st23{fill:none;stroke:#0A61FE;stroke-width:0.9086;stroke-miterlimit:10;}
	.st24{fill:#0A61FE;stroke:#0A61FE;stroke-width:0.5;stroke-miterlimit:10;}
	.st25{fill:#0A61FE;stroke:#0A61FE;stroke-miterlimit:10;}
	.st26{fill:none;stroke:#0A61FE;stroke-width:2;stroke-miterlimit:10;}
	.st27{fill:none;stroke:#0A61FE;stroke-width:3;stroke-miterlimit:10;}
	.st28{fill:none;stroke:#0A61FE;stroke-width:0.5712;stroke-miterlimit:10;}
	.st29{fill:#FFFFFF;stroke:#0A61FE;stroke-width:0.5712;stroke-miterlimit:10;}
	.st30{fill:#FFFFFF;stroke:#0A61FE;stroke-width:0.7519;stroke-miterlimit:10;}
	.st31{fill:none;stroke:#0A61FE;stroke-width:0.7519;stroke-miterlimit:10;}
	.st32{fill:none;stroke:#0A61FE;stroke-width:0.4699;stroke-miterlimit:10;}
	.st33{fill:none;stroke:#0A61FE;stroke-width:0.4699;stroke-miterlimit:10;stroke-dasharray:1.1115,1.1115;}
	.st34{fill:#FFFFFF;stroke:#0A61FE;stroke-width:0.4573;stroke-miterlimit:10;}
	.st35{fill:none;stroke:#0A61FE;stroke-width:0.4573;stroke-miterlimit:10;}
	.st36{fill:none;stroke:#0A61FE;stroke-width:0.5069;stroke-miterlimit:10;}
	.st37{fill:#FFFFFF;stroke:#0A61FE;stroke-width:0.5069;stroke-miterlimit:10;}
	.st38{fill:none;stroke:#0A61FE;stroke-width:0.5885;stroke-miterlimit:10;}
	.st39{fill:none;stroke:#0A61FE;stroke-width:0.4951;stroke-miterlimit:10;}
	.st40{fill:none;stroke:#0A61FE;stroke-width:0.4424;stroke-miterlimit:10;}
	.st41{fill:none;stroke:#0A61FE;stroke-width:0.438;stroke-miterlimit:10;}
	.st42{fill:#FFFFFF;stroke:#0A61FE;stroke-width:0.657;stroke-miterlimit:10;}
	.st43{fill:none;stroke:#0A61FE;stroke-width:0.657;stroke-miterlimit:10;}
</style>
<polygon class="st13" points="10.6,34.6 3.1,36.7 3.1,19.9 10.6,17.8 "/>
<polygon class="st13" points="27.1,34.6 19.7,36.7 19.7,19.9 27.1,17.8 "/>
<polygon class="st25" points="11.4,34.6 18.8,36.7 18.8,19.9 11.4,17.8 "/>
<polygon class="st25" points="28,34.6 35.6,35.5 35.6,18.7 28,17.8 "/>
<g>
	<path class="st4" d="M19.5,24.1c-0.6-0.8-1.2-1.6-1.8-2.4c-2.9-3.9-5.7-7.7-5.7-11c0-4.1,3.3-7.4,7.4-7.4s7.4,3.3,7.4,7.4
		c0,3.6-3.5,8.2-6.5,12.3C20.1,23.4,19.8,23.8,19.5,24.1z M19.5,6.6c-2.2,0-4,1.8-4,4s1.8,4,4,4s4-1.8,4-4S21.7,6.6,19.5,6.6z"/>
	<path class="st10" d="M19.5,4.3c3.5,0,6.4,2.9,6.4,6.4c0,3.3-3.4,7.7-6.3,11.7c0,0,0,0,0,0.1c-0.3-0.5-0.7-0.9-1-1.3
		c-2.8-3.8-5.5-7.4-5.5-10.4C13,7.2,15.9,4.3,19.5,4.3 M19.5,15.6c2.7,0,5-2.2,5-5s-2.2-5-5-5s-5,2.2-5,5S16.7,15.6,19.5,15.6
		 M19.5,2.3c-4.7,0-8.4,3.8-8.4,8.4s4.5,9.5,8.4,15.1c3.6-4.9,8.4-10.5,8.4-15.1S24.1,2.3,19.5,2.3L19.5,2.3z M19.5,13.6
		c-1.6,0-3-1.3-3-3s1.3-3,3-3c1.6,0,3,1.3,3,3S21.1,13.6,19.5,13.6L19.5,13.6z"/>
</g>
</svg>
