<?xml version="1.0" encoding="utf-8"?>
<!-- Generator: Adobe Illustrator 19.2.1, SVG Export Plug-In . SVG Version: 6.00 Build 0)  -->
<svg version="1.1" id="Layer_1" xmlns="http://www.w3.org/2000/svg" xmlns:xlink="http://www.w3.org/1999/xlink" x="0px" y="0px"
	 viewBox="0 0 40 40" style="enable-background:new 0 0 40 40;" xml:space="preserve">
<style type="text/css">
	.st0{fill:#FFFFFF;}
	.st1{fill:#0A61FE;}
	.st2{fill:#FFFFFF;stroke:#0A61FE;stroke-width:2;stroke-miterlimit:10;}
	.st3{fill:#0A61FE;stroke:#0A61FE;stroke-miterlimit:10;}
</style>
<g>
	<path class="st0" d="M20.3,36.2c-8.8,0-15.9-7.1-15.9-15.9s7.1-16,15.9-16s15.9,7.1,15.9,15.9S29,36.2,20.3,36.2z"/>
	<path class="st1" d="M20.3,5.3c8.2,0,14.9,6.7,14.9,14.9s-6.7,14.9-14.9,14.9S5.4,28.4,5.4,20.2C5.3,12,12,5.3,20.3,5.3 M20.3,3.3
		C11,3.3,3.4,10.9,3.4,20.2S11,37.1,20.3,37.1s16.9-7.6,16.9-16.9S29.6,3.3,20.3,3.3L20.3,3.3z"/>
</g>
<path class="st1" d="M14.7,6.7c0.8-0.3-0.1-1.7-0.2-2.5C8.2,8,3.7,10.7,3.3,19.6c1,6.7-0.5,0.7,3.1-1.8C16.8,10.8,6.3,10.3,14.7,6.7
	z"/>
<path class="st1" d="M20.3,3.3c-3.3,0-6.4,1-9,2.6c0.8,12,7.6,1.8,15.4,4.8c3.5,1.4,7,3.1,10.3,6.4C35.5,9.3,28.6,3.3,20.3,3.3z"/>
<path class="st2" d="M14.1,26.2c1.3,2,3.6,3.3,6.2,3.3s4.8-1.3,6.2-3.3"/>
<g>
	<circle class="st3" cx="14.6" cy="18.8" r="1.5"/>
	<circle class="st3" cx="25.9" cy="18.8" r="1.5"/>
</g>
</svg>
