<?xml version="1.0" encoding="utf-8"?>
<!-- Generator: Adobe Illustrator 19.2.1, SVG Export Plug-In . SVG Version: 6.00 Build 0)  -->
<svg version="1.1" id="Layer_1" xmlns="http://www.w3.org/2000/svg" xmlns:xlink="http://www.w3.org/1999/xlink" x="0px" y="0px"
	 viewBox="0 0 40 40" style="enable-background:new 0 0 40 40;" xml:space="preserve">
<style type="text/css">
	.st0{fill:#FFFFFF;stroke:#0A61FE;stroke-width:2;stroke-miterlimit:10;}
	.st1{fill:#FFFFFF;stroke:#0A61FE;stroke-width:8;stroke-miterlimit:10;}
	.st2{opacity:0.2;}
	.st3{fill:#010002;}
	.st4{fill:#FFFFFF;}
	.st5{fill:#CBCBCB;stroke:#000000;stroke-miterlimit:10;}
	.st6{fill:#231F20;}
	.st7{fill:#010101;}
	.st8{display:none;}
	.st9{display:inline;fill:#BAFF1F;}
	.st10{fill:#0A61FE;}
	.st11{fill:none;stroke:#0A61FE;stroke-width:8;stroke-miterlimit:10;}
	.st12{display:inline;}
	.st13{fill:none;stroke:#0A61FE;stroke-miterlimit:10;}
	.st14{fill:#0A61FE;stroke:#FFFFFF;stroke-width:8;stroke-linecap:round;stroke-miterlimit:10;}
	.st15{clip-path:url(#SVGID_2_);}
	.st16{fill:none;stroke:#0A61FE;stroke-width:40;stroke-miterlimit:10;}
	.st17{fill:#0A61FE;stroke:#FFFFFF;stroke-width:8;stroke-miterlimit:10;}
	.st18{fill:none;stroke:#85FF37;stroke-width:8;stroke-miterlimit:10;}
	.st19{fill:none;stroke:#0A61FE;stroke-width:5;stroke-miterlimit:10;}
	.st20{fill:none;stroke:#0A61FE;stroke-width:5;stroke-miterlimit:10;stroke-dasharray:11.8358,11.8358;}
	.st21{fill:#FFFFFF;stroke:#0A61FE;stroke-miterlimit:10;}
	.st22{fill:#FFFFFF;stroke:#0A61FE;stroke-width:0.5;stroke-miterlimit:10;}
	.st23{fill:none;stroke:#0A61FE;stroke-width:0.9086;stroke-miterlimit:10;}
	.st24{fill:#0A61FE;stroke:#0A61FE;stroke-width:0.5;stroke-miterlimit:10;}
	.st25{fill:#0A61FE;stroke:#0A61FE;stroke-miterlimit:10;}
	.st26{fill:none;stroke:#0A61FE;stroke-width:2;stroke-miterlimit:10;}
	.st27{fill:none;stroke:#0A61FE;stroke-width:3;stroke-miterlimit:10;}
	.st28{fill:none;stroke:#0A61FE;stroke-width:0.5712;stroke-miterlimit:10;}
	.st29{fill:#FFFFFF;stroke:#0A61FE;stroke-width:0.5712;stroke-miterlimit:10;}
	.st30{fill:#FFFFFF;stroke:#0A61FE;stroke-width:0.7519;stroke-miterlimit:10;}
	.st31{fill:none;stroke:#0A61FE;stroke-width:0.7519;stroke-miterlimit:10;}
	.st32{fill:none;stroke:#0A61FE;stroke-width:0.4699;stroke-miterlimit:10;}
	.st33{fill:none;stroke:#0A61FE;stroke-width:0.4699;stroke-miterlimit:10;stroke-dasharray:1.1115,1.1115;}
	.st34{fill:#FFFFFF;stroke:#0A61FE;stroke-width:0.4573;stroke-miterlimit:10;}
	.st35{fill:none;stroke:#0A61FE;stroke-width:0.4573;stroke-miterlimit:10;}
	.st36{fill:none;stroke:#0A61FE;stroke-width:0.5069;stroke-miterlimit:10;}
	.st37{fill:#FFFFFF;stroke:#0A61FE;stroke-width:0.5069;stroke-miterlimit:10;}
	.st38{fill:none;stroke:#0A61FE;stroke-width:0.5885;stroke-miterlimit:10;}
	.st39{fill:none;stroke:#0A61FE;stroke-width:0.4951;stroke-miterlimit:10;}
	.st40{fill:none;stroke:#0A61FE;stroke-width:0.4424;stroke-miterlimit:10;}
	.st41{fill:none;stroke:#0A61FE;stroke-width:0.438;stroke-miterlimit:10;}
	.st42{fill:#FFFFFF;stroke:#0A61FE;stroke-width:0.657;stroke-miterlimit:10;}
	.st43{fill:none;stroke:#0A61FE;stroke-width:0.657;stroke-miterlimit:10;}
</style>
<g>
	<path class="st4" d="M20.3,36.2c-8.8,0-15.9-7.1-15.9-15.9S11.5,4.3,20.3,4.3s15.9,7.1,15.9,15.9S29,36.2,20.3,36.2z"/>
	<path class="st10" d="M20.3,5.3c8.2,0,14.9,6.7,14.9,14.9c0,8.2-6.7,14.9-14.9,14.9c-8.2,0-14.9-6.7-14.9-14.9
		C5.3,12,12,5.3,20.3,5.3 M20.3,3.3c-9.3,0-16.9,7.6-16.9,16.9s7.6,16.9,16.9,16.9s16.9-7.6,16.9-16.9S29.6,3.3,20.3,3.3L20.3,3.3z"
		/>
</g>
<path class="st10" d="M14.7,6.7c0.8-0.3-0.1-1.7-0.2-2.5C8.2,8,3.7,10.7,3.3,19.6c1,6.7-0.5,0.7,3.1-1.8
	C16.8,10.8,6.3,10.3,14.7,6.7z"/>
<path class="st10" d="M20.3,3.3c-3.3,0-6.4,1-9,2.6c0.8,12,7.6,1.8,15.4,4.8c3.5,1.4,7,3.1,10.3,6.4C35.5,9.3,28.6,3.3,20.3,3.3z"/>
<path class="st0" d="M14.1,26.2c1.3,2,3.6,3.3,6.2,3.3c2.6,0,4.8-1.3,6.2-3.3"/>
<g>
	<circle class="st25" cx="14.6" cy="18.8" r="1.5"/>
	<circle class="st25" cx="25.9" cy="18.8" r="1.5"/>
</g>
</svg>
