<svg id="Layer_1" data-name="Layer 1" xmlns="http://www.w3.org/2000/svg" viewBox="0 0 110 20"><defs><style>.cls-1{fill:#428bca;}.cls-2{fill:#fff;}</style></defs><title>logo-woorank</title><path d="M57.2,6a6.39,6.39,0,0,0-5.9,3.4A6.57,6.57,0,0,0,45.4,6a6.32,6.32,0,0,0-6,3.6l-1.8,3.9L34.1,5.3l-3.6,8.2L27.2,6.4H24l6.6,13.1,3.5-7.9,3.5,7.9,2-4a6.78,6.78,0,0,0,11.7-.1,6.57,6.57,0,0,0,5.9,3.4,6.31,6.31,0,0,0,6.6-6.4A6.31,6.31,0,0,0,57.2,6ZM45.4,16.2a3.78,3.78,0,0,1-3.9-3.9,3.9,3.9,0,0,1,7.8,0A3.78,3.78,0,0,1,45.4,16.2Zm11.8,0a3.78,3.78,0,0,1-3.9-3.9,3.9,3.9,0,0,1,7.8,0A3.78,3.78,0,0,1,57.2,16.2ZM73.4,6.4A5.27,5.27,0,0,0,71.1,6c-1.7,0-2.9.3-3.6,1.3v-1H64.8V18.4h2.7V12.9c0-2.7,1.2-4.4,2.9-4.4a4.48,4.48,0,0,1,1.1.1A6.74,6.74,0,0,1,73.4,6.4Zm8.4,1A5.45,5.45,0,0,0,77.9,6a6.13,6.13,0,0,0-6.1,6.4,6.13,6.13,0,0,0,6.1,6.4,5.64,5.64,0,0,0,3.9-1.4v1.1h2.7V6.4H81.8Zm-3.6,8.8a3.68,3.68,0,0,1-3.7-3.9,3.71,3.71,0,1,1,7.4,0A3.68,3.68,0,0,1,78.2,16.2ZM92.5,6a4.48,4.48,0,0,0-3.8,1.8V6.3H86V18.4h2.7V11.7a3,3,0,0,1,3.2-3.2c1.8,0,2.9,1.1,2.9,3.2v6.7h2.7V10.8A4.67,4.67,0,0,0,92.5,6Zm12.4,6.2-.2-.2,5.1-5.7h-3.4l-4.1,4.6h-.7V.2L98.9,2.9V18.5h2.7V13.4h.7l4.1,5.1h3.4C109.9,18.4,106.6,14.3,104.9,12.2Z"/><path class="cls-1" d="M7.9,20c6.5,0,11.9-7.8,11.9-7.8S14.4,4.4,7.9,4.4A8,8,0,0,0,0,12.2,8,8,0,0,0,7.9,20Z"/><path class="cls-2" d="M6.8,14.8l.7.7.7-.7,4-3.9a1,1,0,0,0-1.4-1.4L7.5,12.7,6.2,11.4a1,1,0,0,0-1.4,1.4Z"/></svg>